M48
; DRILL file {KiCad (6.0.0)} date Mon Nov 14 00:42:42 2022
; FORMAT={-:-/ absolute / inch / decimal}
; #@! TF.CreationDate,2022-11-14T00:42:42-08:00
; #@! TF.GenerationSoftware,Kicad,Pcbnew,(6.0.0)
; #@! TF.FileFunction,Plated,1,2,PTH
FMAT,2
INCH
; #@! TA.AperFunction,Plated,PTH,ViaDrill
T1C0.0157
; #@! TA.AperFunction,Plated,PTH,ComponentDrill
T2C0.0197
; #@! TA.AperFunction,Plated,PTH,ComponentDrill
T3C0.0250
; #@! TA.AperFunction,Plated,PTH,ComponentDrill
T4C0.0276
; #@! TA.AperFunction,Plated,PTH,ComponentDrill
T5C0.0315
; #@! TA.AperFunction,Plated,PTH,ComponentDrill
T6C0.0394
; #@! TA.AperFunction,Plated,PTH,ComponentDrill
T7C0.0472
; #@! TA.AperFunction,Plated,PTH,ComponentDrill
T8C0.0520
%
G90
G05
T1
X1.135Y-2.045
X1.185Y-2.05
X1.235Y-2.05
X1.26Y-1.8115
X1.2959Y-1.7938
X1.305Y-2.375
X1.3142Y-1.8953
X1.33Y-2.015
X1.3508Y-1.8004
X1.365Y-1.965
X1.38Y-1.24
X1.38Y-1.55
X1.3835Y-1.3171
X1.3905Y-1.815
X1.4Y-2.33
X1.4217Y-2.045
X1.4563Y-2.2314
X1.463Y-1.8875
X1.5195Y-1.8703
X1.635Y-2.19
X1.6353Y-2.2343
X1.66Y-2.4
X1.67Y-1.335
X1.6701Y-2.2078
X1.6853Y-2.0567
X1.6977Y-2.26
X1.7261Y-2.1547
X1.7307Y-2.2328
X1.7565Y-2.1796
X1.7823Y-2.0522
X1.805Y-2.085
X1.8149Y-2.1695
X1.815Y-2.25
X1.86Y-2.025
X1.9276Y-2.1134
X1.94Y-2.16
X1.9487Y-2.0137
X1.95Y-1.9743
X1.9646Y-2.0496
X1.9895Y-2.2359
X2.02Y-2.1
X2.17Y-2.08
X2.1992Y-2.123
X2.205Y-2.18
X2.225Y-1.87
X2.275Y-2.105
X2.705Y-2.06
T2
X0.9609Y-2.0534
X0.9609Y-2.2534
T3
X0.455Y-1.01
X0.755Y-1.01
T5
X0.0699Y-1.1354
X0.0699Y-1.3354
X0.0699Y-1.7354
X0.0704Y-1.2354
X0.0704Y-1.4354
X0.0704Y-1.6354
X0.0704Y-1.8354
X0.0709Y-1.5354
X0.1699Y-1.1354
X0.1699Y-1.3354
X0.1699Y-1.7354
X0.1704Y-1.2354
X0.1704Y-1.4354
X0.1704Y-1.6354
X0.1704Y-1.8354
X0.1709Y-1.5354
X0.2201Y-0.6355
X0.2201Y-0.9355
X0.2699Y-1.1354
X0.2699Y-1.3354
X0.2699Y-1.7354
X0.2704Y-1.2354
X0.2704Y-1.4354
X0.2704Y-1.6354
X0.2704Y-1.8354
X0.2709Y-1.5354
X0.3699Y-1.1354
X0.3699Y-1.3354
X0.3699Y-1.7354
X0.3704Y-1.2354
X0.3704Y-1.4354
X0.3704Y-1.6354
X0.3704Y-1.8354
X0.3709Y-1.5354
X0.4581Y-0.6395
X0.4581Y-0.885
X0.4699Y-1.1354
X0.4699Y-1.3354
X0.4699Y-1.7354
X0.4704Y-1.2354
X0.4704Y-1.4354
X0.4704Y-1.6354
X0.4704Y-1.8354
X0.4709Y-1.5354
X0.526Y-2.3524
X0.5699Y-1.1354
X0.5699Y-1.3354
X0.5699Y-1.7354
X0.5704Y-1.2354
X0.5704Y-1.4354
X0.5704Y-1.6354
X0.5704Y-1.8354
X0.5709Y-1.5354
X0.626Y-2.3524
X0.6699Y-1.1354
X0.6699Y-1.3354
X0.6699Y-1.7354
X0.6704Y-1.2354
X0.6704Y-1.4354
X0.6704Y-1.6354
X0.6704Y-1.8354
X0.6709Y-1.5354
X0.726Y-2.3524
X0.7581Y-0.6395
X0.7581Y-0.885
X0.7699Y-1.1354
X0.7699Y-1.3354
X0.7699Y-1.7354
X0.7704Y-1.2354
X0.7704Y-1.4354
X0.7704Y-1.6354
X0.7704Y-1.8354
X0.7709Y-1.5354
X0.826Y-2.3524
X0.926Y-2.3524
X1.026Y-2.3524
X1.126Y-2.3524
X1.226Y-2.3524
X2.81Y-1.991
X2.81Y-2.091
X2.81Y-2.191
X3.31Y-1.015
X3.41Y-1.015
X3.51Y-1.015
T6
X1.5906Y-0.463
X1.5906Y-0.837
X1.5906Y-1.063
X1.5906Y-1.2307
X1.5906Y-1.437
X1.5906Y-1.8307
X1.6906Y-0.463
X1.6906Y-0.837
X1.6906Y-1.063
X1.6906Y-1.2307
X1.6906Y-1.437
X1.6906Y-1.8307
X1.7906Y-0.463
X1.7906Y-0.837
X1.7906Y-1.063
X1.7906Y-1.2307
X1.7906Y-1.437
X1.7906Y-1.8307
X1.8906Y-0.463
X1.8906Y-0.837
X1.8906Y-1.063
X1.8906Y-1.2307
X1.8906Y-1.437
X1.8906Y-1.8307
X1.9906Y-0.463
X1.9906Y-0.837
X1.9906Y-1.063
X1.9906Y-1.2307
X1.9906Y-1.437
X1.9906Y-1.8307
X2.0906Y-0.463
X2.0906Y-0.837
X2.0906Y-1.063
X2.0906Y-1.2307
X2.0906Y-1.437
X2.0906Y-1.8307
T7
X0.93Y-0.09
X0.93Y-0.59
X1.23Y-0.09
X1.23Y-0.59
X1.445Y-0.09
X1.445Y-0.59
X1.745Y-0.09
X1.745Y-0.59
X1.96Y-0.09
X1.96Y-0.59
X2.26Y-0.09
X2.26Y-0.59
X2.48Y-0.09
X2.48Y-0.59
X2.78Y-0.09
X2.78Y-0.59
X3.1102Y-1.1614
X3.3071Y-1.1614
X3.5039Y-1.1614
T8
X3.0906Y-0.5783
X3.0906Y-0.8783
T4
G00X3.4094Y-0.7047
M15
G01X3.4094Y-0.7047
M16
G05
G00X3.4094Y-0.7677
M15
G01X3.4094Y-0.7677
M16
G05
G00X3.4094Y-0.8307
M15
G01X3.4094Y-0.8307
M16
G05
G00X3.4543Y-0.624
M15
G01X3.4071Y-0.624
M16
G05
G00X3.4543Y-0.9114
M15
G01X3.4071Y-0.9114
M16
G05
G00X3.4567Y-0.7362
M15
G01X3.4567Y-0.7362
M16
G05
G00X3.4567Y-0.7992
M15
G01X3.4567Y-0.7992
M16
G05
G00X3.6319Y-0.624
M15
G01X3.5846Y-0.624
M16
G05
G00X3.6319Y-0.9114
M15
G01X3.5846Y-0.9114
M16
G05
T0
M30
