%TF.GenerationSoftware,KiCad,Pcbnew,(6.0.0)*%
%TF.CreationDate,2022-11-14T00:42:39-08:00*%
%TF.ProjectId,digital_clock_v1,64696769-7461-46c5-9f63-6c6f636b5f76,rev?*%
%TF.SameCoordinates,Original*%
%TF.FileFunction,Soldermask,Bot*%
%TF.FilePolarity,Negative*%
%FSLAX46Y46*%
G04 Gerber Fmt 4.6, Leading zero omitted, Abs format (unit mm)*
G04 Created by KiCad (PCBNEW (6.0.0)) date 2022-11-14 00:42:39*
%MOMM*%
%LPD*%
G01*
G04 APERTURE LIST*
G04 Aperture macros list*
%AMFreePoly0*
4,1,54,0.201078,0.979575,0.387516,0.921863,0.559193,0.829038,0.709571,0.704634,0.832921,0.553392,0.924546,0.381070,0.947815,0.304000,1.093000,0.304000,1.093000,0.635000,1.107645,0.670355,1.143000,0.685000,2.921000,0.685000,2.956355,0.670355,2.971000,0.635000,2.971000,0.304000,3.556000,0.304000,3.591355,0.289355,3.606000,0.254000,3.606000,-0.254000,3.591355,-0.289355,
3.556000,-0.304000,2.971000,-0.304000,2.971000,-0.635000,2.956355,-0.670355,2.921000,-0.685000,1.143000,-0.685000,1.107645,-0.670355,1.093000,-0.635000,1.093000,-0.304000,0.947721,-0.304000,0.913545,-0.406737,0.817145,-0.576432,0.689620,-0.724172,0.535827,-0.844328,0.361625,-0.932324,0.173648,-0.984808,-0.020942,-0.999781,-0.214735,-0.976672,-0.400349,-0.916363,-0.570714,-0.821149,
-0.719340,-0.694658,-0.840567,-0.541708,-0.929776,-0.368125,-0.983571,-0.180519,-0.999903,0.013962,-0.978148,0.207912,-0.919135,0.393942,-0.825113,0.564967,-0.699663,0.714473,-0.547563,0.836764,-0.374607,0.927184,-0.187381,0.982287,0.006981,0.999976,0.201078,0.979575,0.201078,0.979575,$1*%
%AMFreePoly1*
4,1,51,0.174003,0.741867,0.334039,0.684881,0.477472,0.593856,0.597174,0.473315,0.687196,0.329249,0.743064,0.168820,0.762000,0.000000,0.761703,-0.021276,0.738060,-0.189502,0.677735,-0.348309,0.583726,-0.489804,0.460705,-0.606956,0.314786,-0.693941,0.153221,-0.746436,-0.015958,-0.761833,-0.184344,-0.739365,-0.343569,-0.680150,-0.485717,-0.587131,-0.603725,-0.464931,-0.691726,-0.319622,
-0.696923,-0.304000,-1.093000,-0.304000,-1.093000,-0.635000,-1.107645,-0.670355,-1.143000,-0.685000,-2.921000,-0.685000,-2.956355,-0.670355,-2.971000,-0.635000,-2.971000,-0.304000,-3.556000,-0.304000,-3.591355,-0.289355,-3.606000,-0.254000,-3.606000,0.254000,-3.591355,0.289355,-3.556000,0.304000,-2.971000,0.304000,-2.971000,0.635000,-2.956355,0.670355,-2.921000,0.685000,-1.143000,0.685000,
-1.107645,0.670355,-1.093000,0.635000,-1.093000,0.304000,-0.695203,0.304000,-0.682532,0.338812,-0.590508,0.481606,-0.469134,0.600464,-0.324444,0.689478,-0.163628,0.744224,0.005320,0.761981,0.174003,0.741867,0.174003,0.741867,$1*%
%AMFreePoly2*
4,1,50,0.174003,0.741867,0.334039,0.684881,0.477472,0.593856,0.597174,0.473315,0.687196,0.329249,0.695989,0.304000,1.093000,0.304000,1.093000,0.635000,1.107645,0.670355,1.143000,0.685000,2.921000,0.685000,2.956355,0.670355,2.971000,0.635000,2.971000,0.304000,3.556000,0.304000,3.591355,0.289355,3.606000,0.254000,3.606000,-0.254000,3.591355,-0.289355,3.556000,-0.304000,
2.971000,-0.304000,2.971000,-0.635000,2.956355,-0.670355,2.921000,-0.685000,1.143000,-0.685000,1.107645,-0.670355,1.093000,-0.635000,1.093000,-0.304000,0.694566,-0.304000,0.677735,-0.348309,0.583726,-0.489804,0.460705,-0.606956,0.314786,-0.693941,0.153221,-0.746436,-0.015958,-0.761833,-0.184344,-0.739365,-0.343569,-0.680150,-0.485717,-0.587131,-0.603725,-0.464931,-0.691726,-0.319622,
-0.745348,-0.158429,-0.761926,0.010639,-0.740634,0.179178,-0.682532,0.338812,-0.590508,0.481606,-0.469134,0.600464,-0.324444,0.689478,-0.163628,0.744224,0.005320,0.761981,0.174003,0.741867,0.174003,0.741867,$1*%
G04 Aperture macros list end*
%ADD10C,2.500000*%
%ADD11C,1.500000*%
%ADD12R,1.500000X1.500000*%
%ADD13O,2.000000X2.000000*%
%ADD14C,3.000000*%
%ADD15C,2.000000*%
%ADD16R,2.000000X2.100000*%
%ADD17O,2.700000X1.700000*%
%ADD18R,2.032000X2.032000*%
%ADD19C,2.032000*%
%ADD20R,1.200000X2.000000*%
%ADD21O,1.200000X2.000000*%
%ADD22C,4.300000*%
%ADD23FreePoly0,0.000000*%
%ADD24FreePoly0,180.000000*%
%ADD25FreePoly1,180.000000*%
%ADD26FreePoly2,180.000000*%
%ADD27C,1.000000*%
%ADD28O,2.000000X1.200000*%
%ADD29R,2.000000X1.200000*%
%ADD30FreePoly0,270.000000*%
%ADD31FreePoly0,90.000000*%
G04 APERTURE END LIST*
D10*
%TO.C,S4*%
X62992000Y-2286000D03*
X70612000Y-2286000D03*
X62992000Y-14986000D03*
X70612000Y-14986000D03*
%TD*%
%TO.C,S3*%
X49784000Y-2286000D03*
X57404000Y-2286000D03*
X49784000Y-14986000D03*
X57404000Y-14986000D03*
%TD*%
%TO.C,S2*%
X44323000Y-14986000D03*
X36703000Y-14986000D03*
X44323000Y-2286000D03*
X36703000Y-2286000D03*
%TD*%
%TO.C,S1*%
X31242000Y-14986000D03*
X23622000Y-14986000D03*
X31242000Y-2286000D03*
X23622000Y-2286000D03*
%TD*%
D11*
%TO.C,Upsidedown1*%
X40400000Y-31260000D03*
X42940000Y-31260000D03*
X45480000Y-31260000D03*
X48020000Y-31260000D03*
X50560000Y-31260000D03*
X53100000Y-31260000D03*
X53100000Y-46500000D03*
X50560000Y-46500000D03*
X48020000Y-46500000D03*
X45480000Y-46500000D03*
X42940000Y-46500000D03*
D12*
X40400000Y-46500000D03*
%TD*%
D13*
%TO.C,U6*%
X19554600Y-28840000D03*
X19567300Y-31380000D03*
X19554600Y-33920000D03*
X19567300Y-36460000D03*
X19580000Y-39000000D03*
X19567300Y-41540000D03*
X19554600Y-44080000D03*
X19567300Y-46620000D03*
X17014600Y-28840000D03*
X17027300Y-31380000D03*
X17014600Y-33920000D03*
X17027300Y-36460000D03*
X17040000Y-39000000D03*
X17027300Y-41540000D03*
X17014600Y-44080000D03*
X17027300Y-46620000D03*
X14474600Y-28840000D03*
X14487300Y-31380000D03*
X14474600Y-33920000D03*
X14487300Y-36460000D03*
X14500000Y-39000000D03*
X14487300Y-41540000D03*
X14474600Y-44080000D03*
X14487300Y-46620000D03*
X11934600Y-28840000D03*
X11947300Y-31380000D03*
X11934600Y-33920000D03*
X11947300Y-36460000D03*
X11960000Y-39000000D03*
X11947300Y-41540000D03*
X11934600Y-44080000D03*
X11947300Y-46620000D03*
X9394600Y-28840000D03*
X9407300Y-31380000D03*
X9394600Y-33920000D03*
X9407300Y-36460000D03*
X9420000Y-39000000D03*
X9407300Y-41540000D03*
X9394600Y-44080000D03*
X9407300Y-46620000D03*
X6854600Y-28840000D03*
X6867300Y-31380000D03*
X6854600Y-33920000D03*
X6867300Y-36460000D03*
X6880000Y-39000000D03*
X6867300Y-41540000D03*
X6854600Y-44080000D03*
X6867300Y-46620000D03*
X4314600Y-28840000D03*
X4327300Y-31380000D03*
X4314600Y-33920000D03*
X4327300Y-36460000D03*
X4340000Y-39000000D03*
X4327300Y-41540000D03*
X4314600Y-44080000D03*
X4327300Y-46620000D03*
X1774600Y-28840000D03*
X1787300Y-31380000D03*
X1774600Y-33920000D03*
X1787300Y-36460000D03*
X1800000Y-39000000D03*
X1787300Y-41540000D03*
X1774600Y-44080000D03*
X1787300Y-46620000D03*
%TD*%
D12*
%TO.C,U5*%
X40400000Y-27000000D03*
D11*
X42940000Y-27000000D03*
X45480000Y-27000000D03*
X48020000Y-27000000D03*
X50560000Y-27000000D03*
X53100000Y-27000000D03*
X53100000Y-11760000D03*
X50560000Y-11760000D03*
X48020000Y-11760000D03*
X45480000Y-11760000D03*
X42940000Y-11760000D03*
X40400000Y-11760000D03*
%TD*%
D14*
%TO.C,S9*%
X79000000Y-29500000D03*
X84000000Y-29500000D03*
X89000000Y-29500000D03*
D15*
X84000000Y-40000000D03*
D16*
X76200000Y-40000000D03*
X91800000Y-40000000D03*
%TD*%
D17*
%TO.C,J1*%
X91650000Y-15850000D03*
X87139280Y-23150000D03*
X87139280Y-15850000D03*
X91650000Y-23150000D03*
%TD*%
D18*
%TO.C,BZ1*%
X78500000Y-14690000D03*
D19*
X78500000Y-22310000D03*
%TD*%
D12*
%TO.C,T2*%
X13360000Y-59750000D03*
D11*
X15900000Y-59750000D03*
X18440000Y-59750000D03*
X20980000Y-59750000D03*
X23520000Y-59750000D03*
X26060000Y-59750000D03*
X28600000Y-59750000D03*
X31140000Y-59750000D03*
%TD*%
D20*
%TO.C,T3*%
X89154000Y-25781000D03*
D21*
X86614000Y-25781000D03*
X84074000Y-25781000D03*
%TD*%
D22*
%TO.C,H1*%
X16000000Y-53000000D03*
%TD*%
%TO.C,H2*%
X16000000Y-5000000D03*
%TD*%
%TO.C,H3*%
X78000000Y-53000000D03*
%TD*%
D23*
%TO.C,C3*%
X11634600Y-16242800D03*
D24*
X19254600Y-16242800D03*
%TD*%
%TO.C,C4*%
X19254600Y-22479000D03*
D23*
X11634600Y-22479000D03*
%TD*%
D25*
%TO.C,D1*%
X11557000Y-25654000D03*
D26*
X19177000Y-25654000D03*
%TD*%
D27*
%TO.C,Y2*%
X24407200Y-52156000D03*
X24407200Y-57236000D03*
%TD*%
D28*
%TO.C,T1*%
X71374000Y-55652500D03*
X71374000Y-53112500D03*
D29*
X71374000Y-50572500D03*
%TD*%
D30*
%TO.C,C2*%
X5589400Y-16141200D03*
D31*
X5589400Y-23761200D03*
%TD*%
D22*
%TO.C,H4*%
X78000000Y-5500000D03*
%TD*%
D12*
%TO.C,U3*%
X40400000Y-36500000D03*
D11*
X42940000Y-36500000D03*
X45480000Y-36500000D03*
X48020000Y-36500000D03*
X50560000Y-36500000D03*
X53100000Y-36500000D03*
X53100000Y-21260000D03*
X50560000Y-21260000D03*
X48020000Y-21260000D03*
X45480000Y-21260000D03*
X42940000Y-21260000D03*
X40400000Y-21260000D03*
%TD*%
M02*
