%TF.GenerationSoftware,KiCad,Pcbnew,(6.0.0)*%
%TF.CreationDate,2022-11-14T00:42:39-08:00*%
%TF.ProjectId,digital_clock_v1,64696769-7461-46c5-9f63-6c6f636b5f76,rev?*%
%TF.SameCoordinates,Original*%
%TF.FileFunction,Paste,Top*%
%TF.FilePolarity,Positive*%
%FSLAX46Y46*%
G04 Gerber Fmt 4.6, Leading zero omitted, Abs format (unit mm)*
G04 Created by KiCad (PCBNEW (6.0.0)) date 2022-11-14 00:42:39*
%MOMM*%
%LPD*%
G01*
G04 APERTURE LIST*
G04 Aperture macros list*
%AMRoundRect*
0 Rectangle with rounded corners*
0 $1 Rounding radius*
0 $2 $3 $4 $5 $6 $7 $8 $9 X,Y pos of 4 corners*
0 Add a 4 corners polygon primitive as box body*
4,1,4,$2,$3,$4,$5,$6,$7,$8,$9,$2,$3,0*
0 Add four circle primitives for the rounded corners*
1,1,$1+$1,$2,$3*
1,1,$1+$1,$4,$5*
1,1,$1+$1,$6,$7*
1,1,$1+$1,$8,$9*
0 Add four rect primitives between the rounded corners*
20,1,$1+$1,$2,$3,$4,$5,0*
20,1,$1+$1,$4,$5,$6,$7,0*
20,1,$1+$1,$6,$7,$8,$9,0*
20,1,$1+$1,$8,$9,$2,$3,0*%
G04 Aperture macros list end*
%ADD10RoundRect,0.135000X-0.185000X0.135000X-0.185000X-0.135000X0.185000X-0.135000X0.185000X0.135000X0*%
%ADD11RoundRect,0.200000X-0.275000X0.200000X-0.275000X-0.200000X0.275000X-0.200000X0.275000X0.200000X0*%
%ADD12RoundRect,0.200000X-0.200000X-0.275000X0.200000X-0.275000X0.200000X0.275000X-0.200000X0.275000X0*%
%ADD13RoundRect,0.225000X0.250000X-0.225000X0.250000X0.225000X-0.250000X0.225000X-0.250000X-0.225000X0*%
%ADD14RoundRect,0.225000X-0.250000X0.225000X-0.250000X-0.225000X0.250000X-0.225000X0.250000X0.225000X0*%
%ADD15RoundRect,0.150000X-0.875000X-0.150000X0.875000X-0.150000X0.875000X0.150000X-0.875000X0.150000X0*%
%ADD16R,1.400000X1.200000*%
%ADD17R,0.550000X1.600000*%
%ADD18R,1.600000X0.550000*%
G04 APERTURE END LIST*
D10*
%TO.C,R9*%
X30099000Y-50163000D03*
X30099000Y-51183000D03*
%TD*%
%TO.C,R8*%
X31242000Y-50163000D03*
X31242000Y-51183000D03*
%TD*%
%TO.C,R7*%
X32385000Y-50163000D03*
X32385000Y-51183000D03*
%TD*%
%TO.C,R6*%
X28956000Y-50163000D03*
X28956000Y-51183000D03*
%TD*%
D11*
%TO.C,R5*%
X35941000Y-52502000D03*
X35941000Y-54152000D03*
%TD*%
%TO.C,R4*%
X67310000Y-49531000D03*
X67310000Y-51181000D03*
%TD*%
%TO.C,R3*%
X65659000Y-49531000D03*
X65659000Y-51181000D03*
%TD*%
%TO.C,R2*%
X34290000Y-55804000D03*
X34290000Y-57454000D03*
%TD*%
D12*
%TO.C,R1*%
X7812400Y-25894800D03*
X9462400Y-25894800D03*
%TD*%
D13*
%TO.C,C7*%
X32639000Y-57404000D03*
X32639000Y-55854000D03*
%TD*%
%TO.C,C6*%
X32639000Y-54102000D03*
X32639000Y-52552000D03*
%TD*%
D14*
%TO.C,C5*%
X34290000Y-52552000D03*
X34290000Y-54102000D03*
%TD*%
D13*
%TO.C,C1*%
X68961000Y-51131000D03*
X68961000Y-49581000D03*
%TD*%
D15*
%TO.C,U1*%
X53100000Y-51555000D03*
X53100000Y-52825000D03*
X53100000Y-54095000D03*
X53100000Y-55365000D03*
X53100000Y-56635000D03*
X53100000Y-57905000D03*
X53100000Y-59175000D03*
X53100000Y-60445000D03*
X62400000Y-60445000D03*
X62400000Y-59175000D03*
X62400000Y-57905000D03*
X62400000Y-56635000D03*
X62400000Y-55365000D03*
X62400000Y-54095000D03*
X62400000Y-52825000D03*
X62400000Y-51555000D03*
%TD*%
D16*
%TO.C,Y1*%
X28307200Y-55546000D03*
X30507200Y-55546000D03*
X30507200Y-53846000D03*
X28307200Y-53846000D03*
%TD*%
D17*
%TO.C,U4*%
X40450000Y-51000000D03*
X41250000Y-51000000D03*
X42050000Y-51000000D03*
X42850000Y-51000000D03*
X43650000Y-51000000D03*
X44450000Y-51000000D03*
X45250000Y-51000000D03*
X46050000Y-51000000D03*
D18*
X47500000Y-52450000D03*
X47500000Y-53250000D03*
X47500000Y-54050000D03*
X47500000Y-54850000D03*
X47500000Y-55650000D03*
X47500000Y-56450000D03*
X47500000Y-57250000D03*
X47500000Y-58050000D03*
D17*
X46050000Y-59500000D03*
X45250000Y-59500000D03*
X44450000Y-59500000D03*
X43650000Y-59500000D03*
X42850000Y-59500000D03*
X42050000Y-59500000D03*
X41250000Y-59500000D03*
X40450000Y-59500000D03*
D18*
X39000000Y-58050000D03*
X39000000Y-57250000D03*
X39000000Y-56450000D03*
X39000000Y-55650000D03*
X39000000Y-54850000D03*
X39000000Y-54050000D03*
X39000000Y-53250000D03*
X39000000Y-52450000D03*
%TD*%
M02*
