%TF.GenerationSoftware,KiCad,Pcbnew,(6.0.0)*%
%TF.CreationDate,2022-11-14T00:42:39-08:00*%
%TF.ProjectId,digital_clock_v1,64696769-7461-46c5-9f63-6c6f636b5f76,rev?*%
%TF.SameCoordinates,Original*%
%TF.FileFunction,Legend,Top*%
%TF.FilePolarity,Positive*%
%FSLAX46Y46*%
G04 Gerber Fmt 4.6, Leading zero omitted, Abs format (unit mm)*
G04 Created by KiCad (PCBNEW (6.0.0)) date 2022-11-14 00:42:39*
%MOMM*%
%LPD*%
G01*
G04 APERTURE LIST*
%ADD10C,0.300000*%
%ADD11C,0.150000*%
%ADD12C,0.254000*%
%ADD13C,0.120000*%
G04 APERTURE END LIST*
D10*
X26360571Y-792285D02*
X26703428Y-792285D01*
X26874857Y-878000D01*
X27046285Y-1049428D01*
X27132000Y-1392285D01*
X27132000Y-1992285D01*
X27046285Y-2335142D01*
X26874857Y-2506571D01*
X26703428Y-2592285D01*
X26360571Y-2592285D01*
X26189142Y-2506571D01*
X26017714Y-2335142D01*
X25932000Y-1992285D01*
X25932000Y-1392285D01*
X26017714Y-1049428D01*
X26189142Y-878000D01*
X26360571Y-792285D01*
X27903428Y-2592285D02*
X27903428Y-792285D01*
X28932000Y-2592285D02*
X28160571Y-1563714D01*
X28932000Y-792285D02*
X27903428Y-1820857D01*
X38370142Y-1649428D02*
X38970142Y-1649428D01*
X39227285Y-2592285D02*
X38370142Y-2592285D01*
X38370142Y-792285D01*
X39227285Y-792285D01*
X39913000Y-2506571D02*
X40170142Y-2592285D01*
X40598714Y-2592285D01*
X40770142Y-2506571D01*
X40855857Y-2420857D01*
X40941571Y-2249428D01*
X40941571Y-2078000D01*
X40855857Y-1906571D01*
X40770142Y-1820857D01*
X40598714Y-1735142D01*
X40255857Y-1649428D01*
X40084428Y-1563714D01*
X39998714Y-1478000D01*
X39913000Y-1306571D01*
X39913000Y-1135142D01*
X39998714Y-963714D01*
X40084428Y-878000D01*
X40255857Y-792285D01*
X40684428Y-792285D01*
X40941571Y-878000D01*
X42741571Y-2420857D02*
X42655857Y-2506571D01*
X42398714Y-2592285D01*
X42227285Y-2592285D01*
X41970142Y-2506571D01*
X41798714Y-2335142D01*
X41713000Y-2163714D01*
X41627285Y-1820857D01*
X41627285Y-1563714D01*
X41713000Y-1220857D01*
X41798714Y-1049428D01*
X41970142Y-878000D01*
X42227285Y-792285D01*
X42398714Y-792285D01*
X42655857Y-878000D01*
X42741571Y-963714D01*
X52324142Y-1738285D02*
X54609857Y-1738285D01*
X65659142Y-1865285D02*
X67944857Y-1865285D01*
X66802000Y-3008142D02*
X66802000Y-722428D01*
D11*
X70479181Y-8235915D02*
X70479181Y-8616915D01*
X70479181Y-8616915D02*
X70352181Y-8870915D01*
X70352181Y-8870915D02*
X66034181Y-8870915D01*
X66034181Y-8870915D02*
X63621181Y-8870915D01*
X63621181Y-8870915D02*
X63367181Y-8489915D01*
X63367181Y-8489915D02*
X64256181Y-8235915D01*
X64256181Y-8235915D02*
X68320181Y-8108915D01*
X68320181Y-8108915D02*
X70479181Y-8235915D01*
G36*
X70479181Y-8235915D02*
G01*
X70479181Y-8616915D01*
X70352181Y-8870915D01*
X63621181Y-8870915D01*
X63367181Y-8489915D01*
X64256181Y-8235915D01*
X68320181Y-8108915D01*
X70479181Y-8235915D01*
G37*
X70479181Y-8235915D02*
X70479181Y-8616915D01*
X70352181Y-8870915D01*
X63621181Y-8870915D01*
X63367181Y-8489915D01*
X64256181Y-8235915D01*
X68320181Y-8108915D01*
X70479181Y-8235915D01*
X70479181Y-6350000D02*
X70479181Y-6731000D01*
X70479181Y-6731000D02*
X70225181Y-6985000D01*
X70225181Y-6985000D02*
X64256181Y-7112000D01*
X64256181Y-7112000D02*
X63494181Y-6985000D01*
X63494181Y-6985000D02*
X63748181Y-6350000D01*
X63748181Y-6350000D02*
X67431181Y-6223000D01*
X67431181Y-6223000D02*
X70479181Y-6350000D01*
G36*
X70479181Y-6350000D02*
G01*
X70479181Y-6731000D01*
X70225181Y-6985000D01*
X64256181Y-7112000D01*
X63494181Y-6985000D01*
X63748181Y-6350000D01*
X67431181Y-6223000D01*
X70479181Y-6350000D01*
G37*
X70479181Y-6350000D02*
X70479181Y-6731000D01*
X70225181Y-6985000D01*
X64256181Y-7112000D01*
X63494181Y-6985000D01*
X63748181Y-6350000D01*
X67431181Y-6223000D01*
X70479181Y-6350000D01*
X70104000Y-4539237D02*
X70612000Y-4793237D01*
X70612000Y-4793237D02*
X70231000Y-5174237D01*
X70231000Y-5174237D02*
X64389000Y-5047237D01*
X64389000Y-5047237D02*
X63373000Y-4793237D01*
X63373000Y-4793237D02*
X63373000Y-4412237D01*
X63373000Y-4412237D02*
X64135000Y-4285237D01*
X64135000Y-4285237D02*
X70104000Y-4539237D01*
G36*
X70104000Y-4539237D02*
G01*
X70612000Y-4793237D01*
X70231000Y-5174237D01*
X64389000Y-5047237D01*
X63373000Y-4793237D01*
X63373000Y-4412237D01*
X64135000Y-4285237D01*
X70104000Y-4539237D01*
G37*
X70104000Y-4539237D02*
X70612000Y-4793237D01*
X70231000Y-5174237D01*
X64389000Y-5047237D01*
X63373000Y-4793237D01*
X63373000Y-4412237D01*
X64135000Y-4285237D01*
X70104000Y-4539237D01*
X52070000Y-7112000D02*
X50927000Y-7874000D01*
X50927000Y-7874000D02*
X50546000Y-8001000D01*
X50546000Y-8001000D02*
X50800000Y-7620000D01*
X50800000Y-7620000D02*
X52070000Y-6985000D01*
X52070000Y-6985000D02*
X52070000Y-7112000D01*
G36*
X52070000Y-7112000D02*
G01*
X50927000Y-7874000D01*
X50546000Y-8001000D01*
X50800000Y-7620000D01*
X52070000Y-6985000D01*
X52070000Y-7112000D01*
G37*
X52070000Y-7112000D02*
X50927000Y-7874000D01*
X50546000Y-8001000D01*
X50800000Y-7620000D01*
X52070000Y-6985000D01*
X52070000Y-7112000D01*
X51943000Y-5842000D02*
X51816000Y-5969000D01*
X51816000Y-5969000D02*
X50927000Y-6096000D01*
X50927000Y-6096000D02*
X50165000Y-6096000D01*
X50165000Y-6096000D02*
X50165000Y-5842000D01*
X50165000Y-5842000D02*
X50673000Y-5715000D01*
X50673000Y-5715000D02*
X51943000Y-5842000D01*
G36*
X51943000Y-5842000D02*
G01*
X51816000Y-5969000D01*
X50927000Y-6096000D01*
X50165000Y-6096000D01*
X50165000Y-5842000D01*
X50673000Y-5715000D01*
X51943000Y-5842000D01*
G37*
X51943000Y-5842000D02*
X51816000Y-5969000D01*
X50927000Y-6096000D01*
X50165000Y-6096000D01*
X50165000Y-5842000D01*
X50673000Y-5715000D01*
X51943000Y-5842000D01*
X52451000Y-4826000D02*
X52324000Y-4826000D01*
X52324000Y-4826000D02*
X51943000Y-4699000D01*
X51943000Y-4699000D02*
X51689000Y-3810000D01*
X51689000Y-3810000D02*
X51816000Y-3810000D01*
X51816000Y-3810000D02*
X52451000Y-4826000D01*
G36*
X52451000Y-4826000D02*
G01*
X52324000Y-4826000D01*
X51943000Y-4699000D01*
X51689000Y-3810000D01*
X51816000Y-3810000D01*
X52451000Y-4826000D01*
G37*
X52451000Y-4826000D02*
X52324000Y-4826000D01*
X51943000Y-4699000D01*
X51689000Y-3810000D01*
X51816000Y-3810000D01*
X52451000Y-4826000D01*
X56261000Y-4318000D02*
X55118000Y-5080000D01*
X55118000Y-5080000D02*
X54864000Y-5080000D01*
X54864000Y-5080000D02*
X55118000Y-4699000D01*
X55118000Y-4699000D02*
X56007000Y-4064000D01*
X56007000Y-4064000D02*
X56388000Y-4064000D01*
X56388000Y-4064000D02*
X56261000Y-4318000D01*
G36*
X56261000Y-4318000D02*
G01*
X55118000Y-5080000D01*
X54864000Y-5080000D01*
X55118000Y-4699000D01*
X56007000Y-4064000D01*
X56388000Y-4064000D01*
X56261000Y-4318000D01*
G37*
X56261000Y-4318000D02*
X55118000Y-5080000D01*
X54864000Y-5080000D01*
X55118000Y-4699000D01*
X56007000Y-4064000D01*
X56388000Y-4064000D01*
X56261000Y-4318000D01*
X56515000Y-8285655D02*
X56515000Y-8509000D01*
X56515000Y-8509000D02*
X55880000Y-8255000D01*
X55880000Y-8255000D02*
X55118000Y-7777655D01*
X55118000Y-7777655D02*
X54991000Y-7620000D01*
X54991000Y-7620000D02*
X55245000Y-7523655D01*
X55245000Y-7523655D02*
X56515000Y-8285655D01*
G36*
X56515000Y-8285655D02*
G01*
X56515000Y-8509000D01*
X55880000Y-8255000D01*
X55118000Y-7777655D01*
X54991000Y-7620000D01*
X55245000Y-7523655D01*
X56515000Y-8285655D01*
G37*
X56515000Y-8285655D02*
X56515000Y-8509000D01*
X55880000Y-8255000D01*
X55118000Y-7777655D01*
X54991000Y-7620000D01*
X55245000Y-7523655D01*
X56515000Y-8285655D01*
X53623881Y-8001000D02*
X53723826Y-8985436D01*
X53723826Y-8985436D02*
X53496881Y-9652000D01*
X53496881Y-9652000D02*
X53467000Y-8643471D01*
X53467000Y-8643471D02*
X53369881Y-7874000D01*
X53369881Y-7874000D02*
X53623881Y-8001000D01*
G36*
X53623881Y-8001000D02*
G01*
X53723826Y-8985436D01*
X53496881Y-9652000D01*
X53467000Y-8643471D01*
X53369881Y-7874000D01*
X53623881Y-8001000D01*
G37*
X53623881Y-8001000D02*
X53723826Y-8985436D01*
X53496881Y-9652000D01*
X53467000Y-8643471D01*
X53369881Y-7874000D01*
X53623881Y-8001000D01*
X56515000Y-6223000D02*
X56515000Y-6350000D01*
X56515000Y-6350000D02*
X55753000Y-6350000D01*
X55753000Y-6350000D02*
X54991000Y-6223000D01*
X54991000Y-6223000D02*
X55118000Y-6096000D01*
X55118000Y-6096000D02*
X55880000Y-5969000D01*
X55880000Y-5969000D02*
X56515000Y-6223000D01*
G36*
X56515000Y-6223000D02*
G01*
X56515000Y-6350000D01*
X55753000Y-6350000D01*
X54991000Y-6223000D01*
X55118000Y-6096000D01*
X55880000Y-5969000D01*
X56515000Y-6223000D01*
G37*
X56515000Y-6223000D02*
X56515000Y-6350000D01*
X55753000Y-6350000D01*
X54991000Y-6223000D01*
X55118000Y-6096000D01*
X55880000Y-5969000D01*
X56515000Y-6223000D01*
X53721000Y-4572000D02*
X53594000Y-4572000D01*
X53594000Y-4572000D02*
X53594000Y-3810000D01*
X53594000Y-3810000D02*
X53721000Y-3556000D01*
X53721000Y-3556000D02*
X53848000Y-3556000D01*
X53848000Y-3556000D02*
X53721000Y-4572000D01*
G36*
X53721000Y-4572000D02*
G01*
X53594000Y-4572000D01*
X53594000Y-3810000D01*
X53721000Y-3556000D01*
X53848000Y-3556000D01*
X53721000Y-4572000D01*
G37*
X53721000Y-4572000D02*
X53594000Y-4572000D01*
X53594000Y-3810000D01*
X53721000Y-3556000D01*
X53848000Y-3556000D01*
X53721000Y-4572000D01*
X54737000Y-7112000D02*
X54356000Y-7493000D01*
X54356000Y-7493000D02*
X52832000Y-7366000D01*
X52832000Y-7366000D02*
X52578000Y-7239000D01*
X52578000Y-7239000D02*
X52324000Y-6858000D01*
X52324000Y-6858000D02*
X52324000Y-6350000D01*
X52324000Y-6350000D02*
X52197000Y-5588000D01*
X52197000Y-5588000D02*
X52832000Y-5080000D01*
X52832000Y-5080000D02*
X54229000Y-5080000D01*
X54229000Y-5080000D02*
X54737000Y-5588000D01*
X54737000Y-5588000D02*
X54737000Y-7112000D01*
G36*
X54737000Y-5588000D02*
G01*
X54737000Y-7112000D01*
X54356000Y-7493000D01*
X52832000Y-7366000D01*
X52578000Y-7239000D01*
X52324000Y-6858000D01*
X52324000Y-6350000D01*
X52197000Y-5588000D01*
X52832000Y-5080000D01*
X54229000Y-5080000D01*
X54737000Y-5588000D01*
G37*
X54737000Y-5588000D02*
X54737000Y-7112000D01*
X54356000Y-7493000D01*
X52832000Y-7366000D01*
X52578000Y-7239000D01*
X52324000Y-6858000D01*
X52324000Y-6350000D01*
X52197000Y-5588000D01*
X52832000Y-5080000D01*
X54229000Y-5080000D01*
X54737000Y-5588000D01*
X40767000Y-4191000D02*
X40513000Y-4191000D01*
X40513000Y-4191000D02*
X40513000Y-4318000D01*
X40513000Y-4318000D02*
X40640000Y-4572000D01*
X40640000Y-4572000D02*
X43434000Y-4572000D01*
X43434000Y-4572000D02*
X43561000Y-4699000D01*
X43561000Y-4699000D02*
X43561000Y-4953000D01*
X43561000Y-4953000D02*
X36957000Y-5080000D01*
X36957000Y-5080000D02*
X36830000Y-4953000D01*
X36830000Y-4953000D02*
X37338000Y-4699000D01*
X37338000Y-4699000D02*
X39497000Y-4572000D01*
X39497000Y-4572000D02*
X39751000Y-4572000D01*
X39751000Y-4572000D02*
X40132000Y-4572000D01*
X40132000Y-4572000D02*
X40259000Y-4191000D01*
X40259000Y-4191000D02*
X39751000Y-4191000D01*
X39751000Y-4191000D02*
X39624000Y-3937000D01*
X39624000Y-3937000D02*
X40894000Y-3937000D01*
X40894000Y-3937000D02*
X40767000Y-4191000D01*
G36*
X40767000Y-4191000D02*
G01*
X40513000Y-4191000D01*
X40513000Y-4318000D01*
X40640000Y-4572000D01*
X43434000Y-4572000D01*
X43561000Y-4699000D01*
X43561000Y-4953000D01*
X36957000Y-5080000D01*
X36830000Y-4953000D01*
X37338000Y-4699000D01*
X39497000Y-4572000D01*
X40132000Y-4572000D01*
X40259000Y-4191000D01*
X39751000Y-4191000D01*
X39624000Y-3937000D01*
X40894000Y-3937000D01*
X40767000Y-4191000D01*
G37*
X40767000Y-4191000D02*
X40513000Y-4191000D01*
X40513000Y-4318000D01*
X40640000Y-4572000D01*
X43434000Y-4572000D01*
X43561000Y-4699000D01*
X43561000Y-4953000D01*
X36957000Y-5080000D01*
X36830000Y-4953000D01*
X37338000Y-4699000D01*
X39497000Y-4572000D01*
X40132000Y-4572000D01*
X40259000Y-4191000D01*
X39751000Y-4191000D01*
X39624000Y-3937000D01*
X40894000Y-3937000D01*
X40767000Y-4191000D01*
X43561000Y-6223000D02*
X44323000Y-6223000D01*
X44323000Y-6223000D02*
X44577000Y-6477000D01*
X44577000Y-6477000D02*
X44450000Y-6731000D01*
X44450000Y-6731000D02*
X43561000Y-7112000D01*
X43561000Y-7112000D02*
X43561000Y-8001000D01*
X43561000Y-8001000D02*
X43434000Y-8255000D01*
X43434000Y-8255000D02*
X43180000Y-8636000D01*
X43180000Y-8636000D02*
X40259000Y-8763000D01*
X40259000Y-8763000D02*
X37592000Y-8763000D01*
X37592000Y-8763000D02*
X37211000Y-7239000D01*
X37211000Y-7239000D02*
X36322000Y-6985000D01*
X36322000Y-6985000D02*
X35941000Y-6604000D01*
X35941000Y-6604000D02*
X36195000Y-6350000D01*
X36195000Y-6350000D02*
X37084000Y-6350000D01*
X37084000Y-6350000D02*
X37084000Y-6223000D01*
X37084000Y-6223000D02*
X36957000Y-5461000D01*
X36957000Y-5461000D02*
X39878000Y-5588000D01*
X39878000Y-5588000D02*
X41783000Y-5461000D01*
X41783000Y-5461000D02*
X43561000Y-5461000D01*
X43561000Y-5461000D02*
X43561000Y-6223000D01*
G36*
X43561000Y-6223000D02*
G01*
X44323000Y-6223000D01*
X44577000Y-6477000D01*
X44450000Y-6731000D01*
X43561000Y-7112000D01*
X43561000Y-8001000D01*
X43434000Y-8255000D01*
X43180000Y-8636000D01*
X40259000Y-8763000D01*
X37592000Y-8763000D01*
X37211000Y-7239000D01*
X36322000Y-6985000D01*
X35941000Y-6604000D01*
X36195000Y-6350000D01*
X37084000Y-6350000D01*
X37084000Y-6223000D01*
X36957000Y-5461000D01*
X39878000Y-5588000D01*
X41783000Y-5461000D01*
X43561000Y-5461000D01*
X43561000Y-6223000D01*
G37*
X43561000Y-6223000D02*
X44323000Y-6223000D01*
X44577000Y-6477000D01*
X44450000Y-6731000D01*
X43561000Y-7112000D01*
X43561000Y-8001000D01*
X43434000Y-8255000D01*
X43180000Y-8636000D01*
X40259000Y-8763000D01*
X37592000Y-8763000D01*
X37211000Y-7239000D01*
X36322000Y-6985000D01*
X35941000Y-6604000D01*
X36195000Y-6350000D01*
X37084000Y-6350000D01*
X37084000Y-6223000D01*
X36957000Y-5461000D01*
X39878000Y-5588000D01*
X41783000Y-5461000D01*
X43561000Y-5461000D01*
X43561000Y-6223000D01*
X28575000Y-3937000D02*
X28956000Y-5334000D01*
X28956000Y-5334000D02*
X28956000Y-6604000D01*
X28956000Y-6604000D02*
X29718000Y-6731000D01*
X29718000Y-6731000D02*
X30099000Y-6858000D01*
X30099000Y-6858000D02*
X30099000Y-7493000D01*
X30099000Y-7493000D02*
X29718000Y-7620000D01*
X29718000Y-7620000D02*
X29464000Y-7747000D01*
X29464000Y-7747000D02*
X28829000Y-7747000D01*
X28829000Y-7747000D02*
X27813000Y-7747000D01*
X27813000Y-7747000D02*
X27813000Y-8255000D01*
X27813000Y-8255000D02*
X27686000Y-8636000D01*
X27686000Y-8636000D02*
X27940000Y-8890000D01*
X27940000Y-8890000D02*
X27940000Y-9144000D01*
X27940000Y-9144000D02*
X27813000Y-9398000D01*
X27813000Y-9398000D02*
X27559000Y-9525000D01*
X27559000Y-9525000D02*
X27305000Y-9398000D01*
X27305000Y-9398000D02*
X27051000Y-9144000D01*
X27051000Y-9144000D02*
X27178000Y-8763000D01*
X27178000Y-8763000D02*
X27432000Y-8509000D01*
X27432000Y-8509000D02*
X27432000Y-7747000D01*
X27432000Y-7747000D02*
X25527000Y-7620000D01*
X25527000Y-7620000D02*
X24511000Y-7493000D01*
X24511000Y-7493000D02*
X24511000Y-6985000D01*
X24511000Y-6985000D02*
X25654000Y-6350000D01*
X25654000Y-6350000D02*
X25908000Y-4191000D01*
X25908000Y-4191000D02*
X26162000Y-3429000D01*
X26162000Y-3429000D02*
X27686000Y-3175000D01*
X27686000Y-3175000D02*
X28575000Y-3937000D01*
G36*
X28575000Y-3937000D02*
G01*
X28956000Y-5334000D01*
X28956000Y-6604000D01*
X29718000Y-6731000D01*
X30099000Y-6858000D01*
X30099000Y-7493000D01*
X29718000Y-7620000D01*
X29464000Y-7747000D01*
X27813000Y-7747000D01*
X27813000Y-8255000D01*
X27686000Y-8636000D01*
X27940000Y-8890000D01*
X27940000Y-9144000D01*
X27813000Y-9398000D01*
X27559000Y-9525000D01*
X27305000Y-9398000D01*
X27051000Y-9144000D01*
X27178000Y-8763000D01*
X27432000Y-8509000D01*
X27432000Y-7747000D01*
X25527000Y-7620000D01*
X24511000Y-7493000D01*
X24511000Y-6985000D01*
X25654000Y-6350000D01*
X25908000Y-4191000D01*
X26162000Y-3429000D01*
X27686000Y-3175000D01*
X28575000Y-3937000D01*
G37*
X28575000Y-3937000D02*
X28956000Y-5334000D01*
X28956000Y-6604000D01*
X29718000Y-6731000D01*
X30099000Y-6858000D01*
X30099000Y-7493000D01*
X29718000Y-7620000D01*
X29464000Y-7747000D01*
X27813000Y-7747000D01*
X27813000Y-8255000D01*
X27686000Y-8636000D01*
X27940000Y-8890000D01*
X27940000Y-9144000D01*
X27813000Y-9398000D01*
X27559000Y-9525000D01*
X27305000Y-9398000D01*
X27051000Y-9144000D01*
X27178000Y-8763000D01*
X27432000Y-8509000D01*
X27432000Y-7747000D01*
X25527000Y-7620000D01*
X24511000Y-7493000D01*
X24511000Y-6985000D01*
X25654000Y-6350000D01*
X25908000Y-4191000D01*
X26162000Y-3429000D01*
X27686000Y-3175000D01*
X28575000Y-3937000D01*
%TO.C,R9*%
X29424333Y-49474380D02*
X29091000Y-48998190D01*
X28852904Y-49474380D02*
X28852904Y-48474380D01*
X29233857Y-48474380D01*
X29329095Y-48522000D01*
X29376714Y-48569619D01*
X29424333Y-48664857D01*
X29424333Y-48807714D01*
X29376714Y-48902952D01*
X29329095Y-48950571D01*
X29233857Y-48998190D01*
X28852904Y-48998190D01*
X29900523Y-49474380D02*
X30091000Y-49474380D01*
X30186238Y-49426761D01*
X30233857Y-49379142D01*
X30329095Y-49236285D01*
X30376714Y-49045809D01*
X30376714Y-48664857D01*
X30329095Y-48569619D01*
X30281476Y-48522000D01*
X30186238Y-48474380D01*
X29995761Y-48474380D01*
X29900523Y-48522000D01*
X29852904Y-48569619D01*
X29805285Y-48664857D01*
X29805285Y-48902952D01*
X29852904Y-48998190D01*
X29900523Y-49045809D01*
X29995761Y-49093428D01*
X30186238Y-49093428D01*
X30281476Y-49045809D01*
X30329095Y-48998190D01*
X30376714Y-48902952D01*
%TO.C,R8*%
X31202333Y-49601380D02*
X30869000Y-49125190D01*
X30630904Y-49601380D02*
X30630904Y-48601380D01*
X31011857Y-48601380D01*
X31107095Y-48649000D01*
X31154714Y-48696619D01*
X31202333Y-48791857D01*
X31202333Y-48934714D01*
X31154714Y-49029952D01*
X31107095Y-49077571D01*
X31011857Y-49125190D01*
X30630904Y-49125190D01*
X31773761Y-49029952D02*
X31678523Y-48982333D01*
X31630904Y-48934714D01*
X31583285Y-48839476D01*
X31583285Y-48791857D01*
X31630904Y-48696619D01*
X31678523Y-48649000D01*
X31773761Y-48601380D01*
X31964238Y-48601380D01*
X32059476Y-48649000D01*
X32107095Y-48696619D01*
X32154714Y-48791857D01*
X32154714Y-48839476D01*
X32107095Y-48934714D01*
X32059476Y-48982333D01*
X31964238Y-49029952D01*
X31773761Y-49029952D01*
X31678523Y-49077571D01*
X31630904Y-49125190D01*
X31583285Y-49220428D01*
X31583285Y-49410904D01*
X31630904Y-49506142D01*
X31678523Y-49553761D01*
X31773761Y-49601380D01*
X31964238Y-49601380D01*
X32059476Y-49553761D01*
X32107095Y-49506142D01*
X32154714Y-49410904D01*
X32154714Y-49220428D01*
X32107095Y-49125190D01*
X32059476Y-49077571D01*
X31964238Y-49029952D01*
%TO.C,R7*%
X34107380Y-50077666D02*
X33631190Y-50411000D01*
X34107380Y-50649095D02*
X33107380Y-50649095D01*
X33107380Y-50268142D01*
X33155000Y-50172904D01*
X33202619Y-50125285D01*
X33297857Y-50077666D01*
X33440714Y-50077666D01*
X33535952Y-50125285D01*
X33583571Y-50172904D01*
X33631190Y-50268142D01*
X33631190Y-50649095D01*
X33107380Y-49744333D02*
X33107380Y-49077666D01*
X34107380Y-49506238D01*
%TO.C,R6*%
X28265380Y-50458666D02*
X27789190Y-50792000D01*
X28265380Y-51030095D02*
X27265380Y-51030095D01*
X27265380Y-50649142D01*
X27313000Y-50553904D01*
X27360619Y-50506285D01*
X27455857Y-50458666D01*
X27598714Y-50458666D01*
X27693952Y-50506285D01*
X27741571Y-50553904D01*
X27789190Y-50649142D01*
X27789190Y-51030095D01*
X27265380Y-49601523D02*
X27265380Y-49792000D01*
X27313000Y-49887238D01*
X27360619Y-49934857D01*
X27503476Y-50030095D01*
X27693952Y-50077714D01*
X28074904Y-50077714D01*
X28170142Y-50030095D01*
X28217761Y-49982476D01*
X28265380Y-49887238D01*
X28265380Y-49696761D01*
X28217761Y-49601523D01*
X28170142Y-49553904D01*
X28074904Y-49506285D01*
X27836809Y-49506285D01*
X27741571Y-49553904D01*
X27693952Y-49601523D01*
X27646333Y-49696761D01*
X27646333Y-49887238D01*
X27693952Y-49982476D01*
X27741571Y-50030095D01*
X27836809Y-50077714D01*
%TO.C,R5*%
X36520380Y-55792666D02*
X36044190Y-56126000D01*
X36520380Y-56364095D02*
X35520380Y-56364095D01*
X35520380Y-55983142D01*
X35568000Y-55887904D01*
X35615619Y-55840285D01*
X35710857Y-55792666D01*
X35853714Y-55792666D01*
X35948952Y-55840285D01*
X35996571Y-55887904D01*
X36044190Y-55983142D01*
X36044190Y-56364095D01*
X35520380Y-54887904D02*
X35520380Y-55364095D01*
X35996571Y-55411714D01*
X35948952Y-55364095D01*
X35901333Y-55268857D01*
X35901333Y-55030761D01*
X35948952Y-54935523D01*
X35996571Y-54887904D01*
X36091809Y-54840285D01*
X36329904Y-54840285D01*
X36425142Y-54887904D01*
X36472761Y-54935523D01*
X36520380Y-55030761D01*
X36520380Y-55268857D01*
X36472761Y-55364095D01*
X36425142Y-55411714D01*
%TO.C,R4*%
X67889380Y-53125666D02*
X67413190Y-53459000D01*
X67889380Y-53697095D02*
X66889380Y-53697095D01*
X66889380Y-53316142D01*
X66937000Y-53220904D01*
X66984619Y-53173285D01*
X67079857Y-53125666D01*
X67222714Y-53125666D01*
X67317952Y-53173285D01*
X67365571Y-53220904D01*
X67413190Y-53316142D01*
X67413190Y-53697095D01*
X67222714Y-52268523D02*
X67889380Y-52268523D01*
X66841761Y-52506619D02*
X67556047Y-52744714D01*
X67556047Y-52125666D01*
%TO.C,R3*%
X66238380Y-52998666D02*
X65762190Y-53332000D01*
X66238380Y-53570095D02*
X65238380Y-53570095D01*
X65238380Y-53189142D01*
X65286000Y-53093904D01*
X65333619Y-53046285D01*
X65428857Y-52998666D01*
X65571714Y-52998666D01*
X65666952Y-53046285D01*
X65714571Y-53093904D01*
X65762190Y-53189142D01*
X65762190Y-53570095D01*
X65238380Y-52665333D02*
X65238380Y-52046285D01*
X65619333Y-52379619D01*
X65619333Y-52236761D01*
X65666952Y-52141523D01*
X65714571Y-52093904D01*
X65809809Y-52046285D01*
X66047904Y-52046285D01*
X66143142Y-52093904D01*
X66190761Y-52141523D01*
X66238380Y-52236761D01*
X66238380Y-52522476D01*
X66190761Y-52617714D01*
X66143142Y-52665333D01*
%TO.C,R2*%
X34996380Y-59221666D02*
X34520190Y-59555000D01*
X34996380Y-59793095D02*
X33996380Y-59793095D01*
X33996380Y-59412142D01*
X34044000Y-59316904D01*
X34091619Y-59269285D01*
X34186857Y-59221666D01*
X34329714Y-59221666D01*
X34424952Y-59269285D01*
X34472571Y-59316904D01*
X34520190Y-59412142D01*
X34520190Y-59793095D01*
X34091619Y-58840714D02*
X34044000Y-58793095D01*
X33996380Y-58697857D01*
X33996380Y-58459761D01*
X34044000Y-58364523D01*
X34091619Y-58316904D01*
X34186857Y-58269285D01*
X34282095Y-58269285D01*
X34424952Y-58316904D01*
X34996380Y-58888333D01*
X34996380Y-58269285D01*
%TO.C,R1*%
X8723333Y-24836380D02*
X8390000Y-24360190D01*
X8151904Y-24836380D02*
X8151904Y-23836380D01*
X8532857Y-23836380D01*
X8628095Y-23884000D01*
X8675714Y-23931619D01*
X8723333Y-24026857D01*
X8723333Y-24169714D01*
X8675714Y-24264952D01*
X8628095Y-24312571D01*
X8532857Y-24360190D01*
X8151904Y-24360190D01*
X9675714Y-24836380D02*
X9104285Y-24836380D01*
X9390000Y-24836380D02*
X9390000Y-23836380D01*
X9294761Y-23979238D01*
X9199523Y-24074476D01*
X9104285Y-24122095D01*
%TO.C,C7*%
X33631142Y-59348666D02*
X33678761Y-59396285D01*
X33726380Y-59539142D01*
X33726380Y-59634380D01*
X33678761Y-59777238D01*
X33583523Y-59872476D01*
X33488285Y-59920095D01*
X33297809Y-59967714D01*
X33154952Y-59967714D01*
X32964476Y-59920095D01*
X32869238Y-59872476D01*
X32774000Y-59777238D01*
X32726380Y-59634380D01*
X32726380Y-59539142D01*
X32774000Y-59396285D01*
X32821619Y-59348666D01*
X32726380Y-59015333D02*
X32726380Y-58348666D01*
X33726380Y-58777238D01*
%TO.C,C6*%
X30821333Y-52808142D02*
X30773714Y-52855761D01*
X30630857Y-52903380D01*
X30535619Y-52903380D01*
X30392761Y-52855761D01*
X30297523Y-52760523D01*
X30249904Y-52665285D01*
X30202285Y-52474809D01*
X30202285Y-52331952D01*
X30249904Y-52141476D01*
X30297523Y-52046238D01*
X30392761Y-51951000D01*
X30535619Y-51903380D01*
X30630857Y-51903380D01*
X30773714Y-51951000D01*
X30821333Y-51998619D01*
X31678476Y-51903380D02*
X31488000Y-51903380D01*
X31392761Y-51951000D01*
X31345142Y-51998619D01*
X31249904Y-52141476D01*
X31202285Y-52331952D01*
X31202285Y-52712904D01*
X31249904Y-52808142D01*
X31297523Y-52855761D01*
X31392761Y-52903380D01*
X31583238Y-52903380D01*
X31678476Y-52855761D01*
X31726095Y-52808142D01*
X31773714Y-52712904D01*
X31773714Y-52474809D01*
X31726095Y-52379571D01*
X31678476Y-52331952D01*
X31583238Y-52284333D01*
X31392761Y-52284333D01*
X31297523Y-52331952D01*
X31249904Y-52379571D01*
X31202285Y-52474809D01*
%TO.C,C5*%
X35282142Y-51220666D02*
X35329761Y-51268285D01*
X35377380Y-51411142D01*
X35377380Y-51506380D01*
X35329761Y-51649238D01*
X35234523Y-51744476D01*
X35139285Y-51792095D01*
X34948809Y-51839714D01*
X34805952Y-51839714D01*
X34615476Y-51792095D01*
X34520238Y-51744476D01*
X34425000Y-51649238D01*
X34377380Y-51506380D01*
X34377380Y-51411142D01*
X34425000Y-51268285D01*
X34472619Y-51220666D01*
X34377380Y-50315904D02*
X34377380Y-50792095D01*
X34853571Y-50839714D01*
X34805952Y-50792095D01*
X34758333Y-50696857D01*
X34758333Y-50458761D01*
X34805952Y-50363523D01*
X34853571Y-50315904D01*
X34948809Y-50268285D01*
X35186904Y-50268285D01*
X35282142Y-50315904D01*
X35329761Y-50363523D01*
X35377380Y-50458761D01*
X35377380Y-50696857D01*
X35329761Y-50792095D01*
X35282142Y-50839714D01*
%TO.C,C1*%
X69318142Y-53633666D02*
X69365761Y-53681285D01*
X69413380Y-53824142D01*
X69413380Y-53919380D01*
X69365761Y-54062238D01*
X69270523Y-54157476D01*
X69175285Y-54205095D01*
X68984809Y-54252714D01*
X68841952Y-54252714D01*
X68651476Y-54205095D01*
X68556238Y-54157476D01*
X68461000Y-54062238D01*
X68413380Y-53919380D01*
X68413380Y-53824142D01*
X68461000Y-53681285D01*
X68508619Y-53633666D01*
X69413380Y-52681285D02*
X69413380Y-53252714D01*
X69413380Y-52967000D02*
X68413380Y-52967000D01*
X68556238Y-53062238D01*
X68651476Y-53157476D01*
X68699095Y-53252714D01*
%TO.C,Upsidedown1*%
X19852380Y-51119047D02*
X20661904Y-51119047D01*
X20757142Y-51071428D01*
X20804761Y-51023809D01*
X20852380Y-50928571D01*
X20852380Y-50738095D01*
X20804761Y-50642857D01*
X20757142Y-50595238D01*
X20661904Y-50547619D01*
X19852380Y-50547619D01*
X20185714Y-50071428D02*
X21185714Y-50071428D01*
X20233333Y-50071428D02*
X20185714Y-49976190D01*
X20185714Y-49785714D01*
X20233333Y-49690476D01*
X20280952Y-49642857D01*
X20376190Y-49595238D01*
X20661904Y-49595238D01*
X20757142Y-49642857D01*
X20804761Y-49690476D01*
X20852380Y-49785714D01*
X20852380Y-49976190D01*
X20804761Y-50071428D01*
X20804761Y-49214285D02*
X20852380Y-49119047D01*
X20852380Y-48928571D01*
X20804761Y-48833333D01*
X20709523Y-48785714D01*
X20661904Y-48785714D01*
X20566666Y-48833333D01*
X20519047Y-48928571D01*
X20519047Y-49071428D01*
X20471428Y-49166666D01*
X20376190Y-49214285D01*
X20328571Y-49214285D01*
X20233333Y-49166666D01*
X20185714Y-49071428D01*
X20185714Y-48928571D01*
X20233333Y-48833333D01*
X20852380Y-48357142D02*
X20185714Y-48357142D01*
X19852380Y-48357142D02*
X19900000Y-48404761D01*
X19947619Y-48357142D01*
X19900000Y-48309523D01*
X19852380Y-48357142D01*
X19947619Y-48357142D01*
X20852380Y-47452380D02*
X19852380Y-47452380D01*
X20804761Y-47452380D02*
X20852380Y-47547619D01*
X20852380Y-47738095D01*
X20804761Y-47833333D01*
X20757142Y-47880952D01*
X20661904Y-47928571D01*
X20376190Y-47928571D01*
X20280952Y-47880952D01*
X20233333Y-47833333D01*
X20185714Y-47738095D01*
X20185714Y-47547619D01*
X20233333Y-47452380D01*
X20804761Y-46595238D02*
X20852380Y-46690476D01*
X20852380Y-46880952D01*
X20804761Y-46976190D01*
X20709523Y-47023809D01*
X20328571Y-47023809D01*
X20233333Y-46976190D01*
X20185714Y-46880952D01*
X20185714Y-46690476D01*
X20233333Y-46595238D01*
X20328571Y-46547619D01*
X20423809Y-46547619D01*
X20519047Y-47023809D01*
X20852380Y-45690476D02*
X19852380Y-45690476D01*
X20804761Y-45690476D02*
X20852380Y-45785714D01*
X20852380Y-45976190D01*
X20804761Y-46071428D01*
X20757142Y-46119047D01*
X20661904Y-46166666D01*
X20376190Y-46166666D01*
X20280952Y-46119047D01*
X20233333Y-46071428D01*
X20185714Y-45976190D01*
X20185714Y-45785714D01*
X20233333Y-45690476D01*
X20852380Y-45071428D02*
X20804761Y-45166666D01*
X20757142Y-45214285D01*
X20661904Y-45261904D01*
X20376190Y-45261904D01*
X20280952Y-45214285D01*
X20233333Y-45166666D01*
X20185714Y-45071428D01*
X20185714Y-44928571D01*
X20233333Y-44833333D01*
X20280952Y-44785714D01*
X20376190Y-44738095D01*
X20661904Y-44738095D01*
X20757142Y-44785714D01*
X20804761Y-44833333D01*
X20852380Y-44928571D01*
X20852380Y-45071428D01*
X20185714Y-44404761D02*
X20852380Y-44214285D01*
X20376190Y-44023809D01*
X20852380Y-43833333D01*
X20185714Y-43642857D01*
X20185714Y-43261904D02*
X20852380Y-43261904D01*
X20280952Y-43261904D02*
X20233333Y-43214285D01*
X20185714Y-43119047D01*
X20185714Y-42976190D01*
X20233333Y-42880952D01*
X20328571Y-42833333D01*
X20852380Y-42833333D01*
X20852380Y-41833333D02*
X20852380Y-42404761D01*
X20852380Y-42119047D02*
X19852380Y-42119047D01*
X19995238Y-42214285D01*
X20090476Y-42309523D01*
X20138095Y-42404761D01*
%TO.C,U6*%
X1651095Y-25614380D02*
X1651095Y-26423904D01*
X1698714Y-26519142D01*
X1746333Y-26566761D01*
X1841571Y-26614380D01*
X2032047Y-26614380D01*
X2127285Y-26566761D01*
X2174904Y-26519142D01*
X2222523Y-26423904D01*
X2222523Y-25614380D01*
X3127285Y-25614380D02*
X2936809Y-25614380D01*
X2841571Y-25662000D01*
X2793952Y-25709619D01*
X2698714Y-25852476D01*
X2651095Y-26042952D01*
X2651095Y-26423904D01*
X2698714Y-26519142D01*
X2746333Y-26566761D01*
X2841571Y-26614380D01*
X3032047Y-26614380D01*
X3127285Y-26566761D01*
X3174904Y-26519142D01*
X3222523Y-26423904D01*
X3222523Y-26185809D01*
X3174904Y-26090571D01*
X3127285Y-26042952D01*
X3032047Y-25995333D01*
X2841571Y-25995333D01*
X2746333Y-26042952D01*
X2698714Y-26090571D01*
X2651095Y-26185809D01*
%TO.C,U5*%
X20280380Y-20827904D02*
X21089904Y-20827904D01*
X21185142Y-20780285D01*
X21232761Y-20732666D01*
X21280380Y-20637428D01*
X21280380Y-20446952D01*
X21232761Y-20351714D01*
X21185142Y-20304095D01*
X21089904Y-20256476D01*
X20280380Y-20256476D01*
X20280380Y-19304095D02*
X20280380Y-19780285D01*
X20756571Y-19827904D01*
X20708952Y-19780285D01*
X20661333Y-19685047D01*
X20661333Y-19446952D01*
X20708952Y-19351714D01*
X20756571Y-19304095D01*
X20851809Y-19256476D01*
X21089904Y-19256476D01*
X21185142Y-19304095D01*
X21232761Y-19351714D01*
X21280380Y-19446952D01*
X21280380Y-19685047D01*
X21232761Y-19780285D01*
X21185142Y-19827904D01*
%TO.C,S9*%
X82738095Y-33904761D02*
X82880952Y-33952380D01*
X83119047Y-33952380D01*
X83214285Y-33904761D01*
X83261904Y-33857142D01*
X83309523Y-33761904D01*
X83309523Y-33666666D01*
X83261904Y-33571428D01*
X83214285Y-33523809D01*
X83119047Y-33476190D01*
X82928571Y-33428571D01*
X82833333Y-33380952D01*
X82785714Y-33333333D01*
X82738095Y-33238095D01*
X82738095Y-33142857D01*
X82785714Y-33047619D01*
X82833333Y-33000000D01*
X82928571Y-32952380D01*
X83166666Y-32952380D01*
X83309523Y-33000000D01*
X83785714Y-33952380D02*
X83976190Y-33952380D01*
X84071428Y-33904761D01*
X84119047Y-33857142D01*
X84214285Y-33714285D01*
X84261904Y-33523809D01*
X84261904Y-33142857D01*
X84214285Y-33047619D01*
X84166666Y-33000000D01*
X84071428Y-32952380D01*
X83880952Y-32952380D01*
X83785714Y-33000000D01*
X83738095Y-33047619D01*
X83690476Y-33142857D01*
X83690476Y-33380952D01*
X83738095Y-33476190D01*
X83785714Y-33523809D01*
X83880952Y-33571428D01*
X84071428Y-33571428D01*
X84166666Y-33523809D01*
X84214285Y-33476190D01*
X84261904Y-33380952D01*
X79309523Y-32357142D02*
X79261904Y-32404761D01*
X79119047Y-32452380D01*
X79023809Y-32452380D01*
X78880952Y-32404761D01*
X78785714Y-32309523D01*
X78738095Y-32214285D01*
X78690476Y-32023809D01*
X78690476Y-31880952D01*
X78738095Y-31690476D01*
X78785714Y-31595238D01*
X78880952Y-31500000D01*
X79023809Y-31452380D01*
X79119047Y-31452380D01*
X79261904Y-31500000D01*
X79309523Y-31547619D01*
X84071428Y-31928571D02*
X84214285Y-31976190D01*
X84261904Y-32023809D01*
X84309523Y-32119047D01*
X84309523Y-32261904D01*
X84261904Y-32357142D01*
X84214285Y-32404761D01*
X84119047Y-32452380D01*
X83738095Y-32452380D01*
X83738095Y-31452380D01*
X84071428Y-31452380D01*
X84166666Y-31500000D01*
X84214285Y-31547619D01*
X84261904Y-31642857D01*
X84261904Y-31738095D01*
X84214285Y-31833333D01*
X84166666Y-31880952D01*
X84071428Y-31928571D01*
X83738095Y-31928571D01*
X88761904Y-32166666D02*
X89238095Y-32166666D01*
X88666666Y-32452380D02*
X89000000Y-31452380D01*
X89333333Y-32452380D01*
D12*
%TO.C,BZ1*%
X77751304Y-11456942D02*
X79299495Y-11456942D01*
X78525400Y-12231038D02*
X78525400Y-10682847D01*
D11*
%TO.C,T2*%
X19304095Y-56983380D02*
X19875523Y-56983380D01*
X19589809Y-57983380D02*
X19589809Y-56983380D01*
X20161238Y-57078619D02*
X20208857Y-57031000D01*
X20304095Y-56983380D01*
X20542190Y-56983380D01*
X20637428Y-57031000D01*
X20685047Y-57078619D01*
X20732666Y-57173857D01*
X20732666Y-57269095D01*
X20685047Y-57411952D01*
X20113619Y-57983380D01*
X20732666Y-57983380D01*
%TO.C,U1*%
X64135095Y-59777380D02*
X64135095Y-60586904D01*
X64182714Y-60682142D01*
X64230333Y-60729761D01*
X64325571Y-60777380D01*
X64516047Y-60777380D01*
X64611285Y-60729761D01*
X64658904Y-60682142D01*
X64706523Y-60586904D01*
X64706523Y-59777380D01*
X65706523Y-60777380D02*
X65135095Y-60777380D01*
X65420809Y-60777380D02*
X65420809Y-59777380D01*
X65325571Y-59920238D01*
X65230333Y-60015476D01*
X65135095Y-60063095D01*
%TO.C,T3*%
X85852095Y-22733380D02*
X86423523Y-22733380D01*
X86137809Y-23733380D02*
X86137809Y-22733380D01*
X86661619Y-22733380D02*
X87280666Y-22733380D01*
X86947333Y-23114333D01*
X87090190Y-23114333D01*
X87185428Y-23161952D01*
X87233047Y-23209571D01*
X87280666Y-23304809D01*
X87280666Y-23542904D01*
X87233047Y-23638142D01*
X87185428Y-23685761D01*
X87090190Y-23733380D01*
X86804476Y-23733380D01*
X86709238Y-23685761D01*
X86661619Y-23638142D01*
%TO.C,H1*%
X10287095Y-49982380D02*
X10287095Y-48982380D01*
X10287095Y-49458571D02*
X10858523Y-49458571D01*
X10858523Y-49982380D02*
X10858523Y-48982380D01*
X11858523Y-49982380D02*
X11287095Y-49982380D01*
X11572809Y-49982380D02*
X11572809Y-48982380D01*
X11477571Y-49125238D01*
X11382333Y-49220476D01*
X11287095Y-49268095D01*
%TO.C,H2*%
X10795095Y-8961380D02*
X10795095Y-7961380D01*
X10795095Y-8437571D02*
X11366523Y-8437571D01*
X11366523Y-8961380D02*
X11366523Y-7961380D01*
X11795095Y-8056619D02*
X11842714Y-8009000D01*
X11937952Y-7961380D01*
X12176047Y-7961380D01*
X12271285Y-8009000D01*
X12318904Y-8056619D01*
X12366523Y-8151857D01*
X12366523Y-8247095D01*
X12318904Y-8389952D01*
X11747476Y-8961380D01*
X12366523Y-8961380D01*
%TO.C,H3*%
X77470095Y-59253380D02*
X77470095Y-58253380D01*
X77470095Y-58729571D02*
X78041523Y-58729571D01*
X78041523Y-59253380D02*
X78041523Y-58253380D01*
X78422476Y-58253380D02*
X79041523Y-58253380D01*
X78708190Y-58634333D01*
X78851047Y-58634333D01*
X78946285Y-58681952D01*
X78993904Y-58729571D01*
X79041523Y-58824809D01*
X79041523Y-59062904D01*
X78993904Y-59158142D01*
X78946285Y-59205761D01*
X78851047Y-59253380D01*
X78565333Y-59253380D01*
X78470095Y-59205761D01*
X78422476Y-59158142D01*
%TO.C,C3*%
X15073333Y-14581142D02*
X15025714Y-14628761D01*
X14882857Y-14676380D01*
X14787619Y-14676380D01*
X14644761Y-14628761D01*
X14549523Y-14533523D01*
X14501904Y-14438285D01*
X14454285Y-14247809D01*
X14454285Y-14104952D01*
X14501904Y-13914476D01*
X14549523Y-13819238D01*
X14644761Y-13724000D01*
X14787619Y-13676380D01*
X14882857Y-13676380D01*
X15025714Y-13724000D01*
X15073333Y-13771619D01*
X15406666Y-13676380D02*
X16025714Y-13676380D01*
X15692380Y-14057333D01*
X15835238Y-14057333D01*
X15930476Y-14104952D01*
X15978095Y-14152571D01*
X16025714Y-14247809D01*
X16025714Y-14485904D01*
X15978095Y-14581142D01*
X15930476Y-14628761D01*
X15835238Y-14676380D01*
X15549523Y-14676380D01*
X15454285Y-14628761D01*
X15406666Y-14581142D01*
%TO.C,Y1*%
X27844809Y-57126190D02*
X27844809Y-57602380D01*
X27511476Y-56602380D02*
X27844809Y-57126190D01*
X28178142Y-56602380D01*
X29035285Y-57602380D02*
X28463857Y-57602380D01*
X28749571Y-57602380D02*
X28749571Y-56602380D01*
X28654333Y-56745238D01*
X28559095Y-56840476D01*
X28463857Y-56888095D01*
%TO.C,C4*%
X15073333Y-21058142D02*
X15025714Y-21105761D01*
X14882857Y-21153380D01*
X14787619Y-21153380D01*
X14644761Y-21105761D01*
X14549523Y-21010523D01*
X14501904Y-20915285D01*
X14454285Y-20724809D01*
X14454285Y-20581952D01*
X14501904Y-20391476D01*
X14549523Y-20296238D01*
X14644761Y-20201000D01*
X14787619Y-20153380D01*
X14882857Y-20153380D01*
X15025714Y-20201000D01*
X15073333Y-20248619D01*
X15930476Y-20486714D02*
X15930476Y-21153380D01*
X15692380Y-20105761D02*
X15454285Y-20820047D01*
X16073333Y-20820047D01*
%TO.C,D1*%
X14501904Y-24582380D02*
X14501904Y-23582380D01*
X14740000Y-23582380D01*
X14882857Y-23630000D01*
X14978095Y-23725238D01*
X15025714Y-23820476D01*
X15073333Y-24010952D01*
X15073333Y-24153809D01*
X15025714Y-24344285D01*
X14978095Y-24439523D01*
X14882857Y-24534761D01*
X14740000Y-24582380D01*
X14501904Y-24582380D01*
X16025714Y-24582380D02*
X15454285Y-24582380D01*
X15740000Y-24582380D02*
X15740000Y-23582380D01*
X15644761Y-23725238D01*
X15549523Y-23820476D01*
X15454285Y-23868095D01*
%TO.C,Y2*%
X23883390Y-55172190D02*
X24359580Y-55172190D01*
X23359580Y-55505523D02*
X23883390Y-55172190D01*
X23359580Y-54838857D01*
X23454819Y-54553142D02*
X23407200Y-54505523D01*
X23359580Y-54410285D01*
X23359580Y-54172190D01*
X23407200Y-54076952D01*
X23454819Y-54029333D01*
X23550057Y-53981714D01*
X23645295Y-53981714D01*
X23788152Y-54029333D01*
X24359580Y-54600761D01*
X24359580Y-53981714D01*
%TO.C,U4*%
X35814095Y-59650380D02*
X35814095Y-60459904D01*
X35861714Y-60555142D01*
X35909333Y-60602761D01*
X36004571Y-60650380D01*
X36195047Y-60650380D01*
X36290285Y-60602761D01*
X36337904Y-60555142D01*
X36385523Y-60459904D01*
X36385523Y-59650380D01*
X37290285Y-59983714D02*
X37290285Y-60650380D01*
X37052190Y-59602761D02*
X36814095Y-60317047D01*
X37433142Y-60317047D01*
%TO.C,T1*%
X71080380Y-58800904D02*
X71080380Y-58229476D01*
X72080380Y-58515190D02*
X71080380Y-58515190D01*
X72080380Y-57372333D02*
X72080380Y-57943761D01*
X72080380Y-57658047D02*
X71080380Y-57658047D01*
X71223238Y-57753285D01*
X71318476Y-57848523D01*
X71366095Y-57943761D01*
%TO.C,C2*%
X3406542Y-20117866D02*
X3454161Y-20165485D01*
X3501780Y-20308342D01*
X3501780Y-20403580D01*
X3454161Y-20546438D01*
X3358923Y-20641676D01*
X3263685Y-20689295D01*
X3073209Y-20736914D01*
X2930352Y-20736914D01*
X2739876Y-20689295D01*
X2644638Y-20641676D01*
X2549400Y-20546438D01*
X2501780Y-20403580D01*
X2501780Y-20308342D01*
X2549400Y-20165485D01*
X2597019Y-20117866D01*
X2597019Y-19736914D02*
X2549400Y-19689295D01*
X2501780Y-19594057D01*
X2501780Y-19355961D01*
X2549400Y-19260723D01*
X2597019Y-19213104D01*
X2692257Y-19165485D01*
X2787495Y-19165485D01*
X2930352Y-19213104D01*
X3501780Y-19784533D01*
X3501780Y-19165485D01*
%TO.C,H4*%
X82296095Y-9469380D02*
X82296095Y-8469380D01*
X82296095Y-8945571D02*
X82867523Y-8945571D01*
X82867523Y-9469380D02*
X82867523Y-8469380D01*
X83772285Y-8802714D02*
X83772285Y-9469380D01*
X83534190Y-8421761D02*
X83296095Y-9136047D01*
X83915142Y-9136047D01*
%TO.C,U3*%
X19852380Y-37261904D02*
X20661904Y-37261904D01*
X20757142Y-37214285D01*
X20804761Y-37166666D01*
X20852380Y-37071428D01*
X20852380Y-36880952D01*
X20804761Y-36785714D01*
X20757142Y-36738095D01*
X20661904Y-36690476D01*
X19852380Y-36690476D01*
X19852380Y-36309523D02*
X19852380Y-35690476D01*
X20233333Y-36023809D01*
X20233333Y-35880952D01*
X20280952Y-35785714D01*
X20328571Y-35738095D01*
X20423809Y-35690476D01*
X20661904Y-35690476D01*
X20757142Y-35738095D01*
X20804761Y-35785714D01*
X20852380Y-35880952D01*
X20852380Y-36166666D01*
X20804761Y-36261904D01*
X20757142Y-36309523D01*
D13*
%TO.C,R9*%
X30479000Y-50519359D02*
X30479000Y-50826641D01*
X29719000Y-50519359D02*
X29719000Y-50826641D01*
%TO.C,R8*%
X31622000Y-50519359D02*
X31622000Y-50826641D01*
X30862000Y-50519359D02*
X30862000Y-50826641D01*
%TO.C,R7*%
X32765000Y-50519359D02*
X32765000Y-50826641D01*
X32005000Y-50519359D02*
X32005000Y-50826641D01*
%TO.C,R6*%
X29336000Y-50519359D02*
X29336000Y-50826641D01*
X28576000Y-50519359D02*
X28576000Y-50826641D01*
%TO.C,R5*%
X36463500Y-53089742D02*
X36463500Y-53564258D01*
X35418500Y-53089742D02*
X35418500Y-53564258D01*
%TO.C,R4*%
X67832500Y-50118742D02*
X67832500Y-50593258D01*
X66787500Y-50118742D02*
X66787500Y-50593258D01*
%TO.C,R3*%
X66181500Y-50118742D02*
X66181500Y-50593258D01*
X65136500Y-50118742D02*
X65136500Y-50593258D01*
%TO.C,R2*%
X34812500Y-56391742D02*
X34812500Y-56866258D01*
X33767500Y-56391742D02*
X33767500Y-56866258D01*
%TO.C,R1*%
X8400142Y-25372300D02*
X8874658Y-25372300D01*
X8400142Y-26417300D02*
X8874658Y-26417300D01*
%TO.C,C7*%
X32129000Y-56769580D02*
X32129000Y-56488420D01*
X33149000Y-56769580D02*
X33149000Y-56488420D01*
%TO.C,C6*%
X32129000Y-53467580D02*
X32129000Y-53186420D01*
X33149000Y-53467580D02*
X33149000Y-53186420D01*
%TO.C,C5*%
X34800000Y-53186420D02*
X34800000Y-53467580D01*
X33780000Y-53186420D02*
X33780000Y-53467580D01*
%TO.C,C1*%
X68451000Y-50496580D02*
X68451000Y-50215420D01*
X69471000Y-50496580D02*
X69471000Y-50215420D01*
D11*
%TO.C,Upsidedown1*%
X37860000Y-38880000D02*
X39130000Y-37610000D01*
X56910000Y-38880000D02*
X55640000Y-37610000D01*
X68340000Y-46500000D02*
X67070000Y-45230000D01*
X60720000Y-38880000D02*
X61990000Y-40150000D01*
X56910000Y-31260000D02*
X58180000Y-32530000D01*
X69610000Y-47770000D02*
X69610000Y-46500000D01*
X32780000Y-40150000D02*
X27700000Y-40150000D01*
X55640000Y-47770000D02*
X50560000Y-47770000D01*
X55640000Y-37610000D02*
X56910000Y-38880000D01*
X58180000Y-32530000D02*
X58180000Y-37610000D01*
X32780000Y-32530000D02*
X34050000Y-31260000D01*
X55640000Y-29990000D02*
X56910000Y-31260000D01*
X50560000Y-47770000D02*
X49290000Y-46500000D01*
X26430000Y-46500000D02*
X25160000Y-45230000D01*
X61990000Y-45230000D02*
X60720000Y-46500000D01*
X35320000Y-46500000D02*
X36590000Y-46500000D01*
X34050000Y-31260000D02*
X32780000Y-32530000D01*
X61990000Y-40150000D02*
X61990000Y-45230000D01*
X49290000Y-38880000D02*
X48020000Y-37610000D01*
X32780000Y-37610000D02*
X32780000Y-32530000D01*
X44210000Y-32530000D02*
X39130000Y-32530000D01*
D13*
X21480000Y-48500000D02*
X21480000Y-29260000D01*
D11*
X48020000Y-37610000D02*
X48020000Y-32530000D01*
X44210000Y-40150000D02*
X45480000Y-38880000D01*
X67070000Y-32530000D02*
X61990000Y-32530000D01*
X35320000Y-37610000D02*
X34050000Y-38880000D01*
X58180000Y-47770000D02*
X58180000Y-46500000D01*
X60720000Y-46500000D02*
X59450000Y-45230000D01*
X39130000Y-32530000D02*
X37860000Y-31260000D01*
X45480000Y-46500000D02*
X44210000Y-45230000D01*
X59450000Y-45230000D02*
X59450000Y-40150000D01*
X39130000Y-37610000D02*
X37860000Y-38880000D01*
X68340000Y-38880000D02*
X67070000Y-40150000D01*
X39130000Y-40150000D02*
X39130000Y-45230000D01*
X59450000Y-47770000D02*
X58180000Y-47770000D01*
X32780000Y-37610000D02*
X34050000Y-38880000D01*
X67070000Y-40150000D02*
X61990000Y-40150000D01*
X32780000Y-29990000D02*
X34050000Y-31260000D01*
X36590000Y-40150000D02*
X37860000Y-38880000D01*
X45480000Y-46500000D02*
X44210000Y-47770000D01*
X37860000Y-46500000D02*
X36590000Y-45230000D01*
X26430000Y-38880000D02*
X27700000Y-37610000D01*
X67070000Y-37610000D02*
X68340000Y-38880000D01*
X70880000Y-46500000D02*
X70880000Y-47770000D01*
X39130000Y-45230000D02*
X37860000Y-46500000D01*
X69610000Y-40150000D02*
X69610000Y-45230000D01*
X60720000Y-38880000D02*
X61990000Y-37610000D01*
X27700000Y-40150000D02*
X27700000Y-45230000D01*
X50560000Y-40150000D02*
X49290000Y-38880000D01*
X49290000Y-38880000D02*
X50560000Y-37610000D01*
X26430000Y-46500000D02*
X27700000Y-45230000D01*
X26430000Y-31260000D02*
X27700000Y-32530000D01*
X39130000Y-37610000D02*
X44210000Y-37610000D01*
X39130000Y-47770000D02*
X37860000Y-46500000D01*
X56910000Y-38880000D02*
X55640000Y-40150000D01*
X55640000Y-45230000D02*
X56910000Y-46500000D01*
X44210000Y-32530000D02*
X45480000Y-31260000D01*
X49290000Y-46500000D02*
X48020000Y-45230000D01*
X61990000Y-37610000D02*
X67070000Y-37610000D01*
X68340000Y-38880000D02*
X67070000Y-37610000D01*
X39130000Y-40150000D02*
X37860000Y-38880000D01*
X59450000Y-32530000D02*
X60720000Y-31260000D01*
X44210000Y-37610000D02*
X45480000Y-38880000D01*
X37860000Y-38880000D02*
X39130000Y-40150000D01*
X44210000Y-29990000D02*
X45480000Y-31260000D01*
X27700000Y-37610000D02*
X32780000Y-37610000D01*
X49290000Y-38880000D02*
X50560000Y-40150000D01*
X49290000Y-46500000D02*
X50560000Y-45230000D01*
X55640000Y-32530000D02*
X56910000Y-31260000D01*
X35320000Y-47770000D02*
X35320000Y-46500000D01*
X67070000Y-47770000D02*
X61990000Y-47770000D01*
X34050000Y-46500000D02*
X32780000Y-47770000D01*
X45480000Y-31260000D02*
X44210000Y-32530000D01*
X44210000Y-37610000D02*
X44210000Y-32530000D01*
X60720000Y-31260000D02*
X61990000Y-29990000D01*
X46750000Y-37610000D02*
X45480000Y-38880000D01*
X39130000Y-32530000D02*
X39130000Y-37610000D01*
X61990000Y-45230000D02*
X67070000Y-45230000D01*
X46750000Y-40150000D02*
X46750000Y-45230000D01*
X36590000Y-45230000D02*
X36590000Y-40150000D01*
X37860000Y-46500000D02*
X39130000Y-45230000D01*
X50560000Y-29990000D02*
X55640000Y-29990000D01*
X48020000Y-46500000D02*
X48020000Y-47770000D01*
X25160000Y-45230000D02*
X25160000Y-40150000D01*
X50560000Y-32530000D02*
X49290000Y-31260000D01*
X44210000Y-45230000D02*
X44210000Y-40150000D01*
X55640000Y-32530000D02*
X50560000Y-32530000D01*
X58180000Y-40150000D02*
X58180000Y-45230000D01*
X56910000Y-31260000D02*
X55640000Y-32530000D01*
X37860000Y-31260000D02*
X39130000Y-32530000D01*
X55640000Y-45230000D02*
X55640000Y-40150000D01*
X37860000Y-31260000D02*
X39130000Y-29990000D01*
X61990000Y-47770000D02*
X60720000Y-46500000D01*
X48020000Y-32530000D02*
X49290000Y-31260000D01*
X32780000Y-32530000D02*
X27700000Y-32530000D01*
X27700000Y-32530000D02*
X26430000Y-31260000D01*
X69610000Y-45230000D02*
X68340000Y-46500000D01*
X27700000Y-29990000D02*
X32780000Y-29990000D01*
X46750000Y-45230000D02*
X45480000Y-46500000D01*
X67070000Y-37610000D02*
X67070000Y-32530000D01*
X69610000Y-32530000D02*
X69610000Y-37610000D01*
X27700000Y-47770000D02*
X26430000Y-46500000D01*
X50560000Y-45230000D02*
X49290000Y-46500000D01*
X55640000Y-40150000D02*
X56910000Y-38880000D01*
X67070000Y-32530000D02*
X68340000Y-31260000D01*
D13*
X39400000Y-48880000D02*
X41400000Y-48880000D01*
D11*
X27700000Y-45230000D02*
X26430000Y-46500000D01*
X58180000Y-46500000D02*
X59450000Y-46500000D01*
X48020000Y-40150000D02*
X49290000Y-38880000D01*
X34050000Y-31260000D02*
X35320000Y-32530000D01*
X45480000Y-38880000D02*
X46750000Y-40150000D01*
X36590000Y-46500000D02*
X36590000Y-47770000D01*
X61990000Y-40150000D02*
X60720000Y-38880000D01*
X27700000Y-45230000D02*
X32780000Y-45230000D01*
X50560000Y-37610000D02*
X49290000Y-38880000D01*
X49290000Y-31260000D02*
X50560000Y-32530000D01*
X32780000Y-45230000D02*
X32780000Y-40150000D01*
X59450000Y-37610000D02*
X59450000Y-32530000D01*
X39130000Y-45230000D02*
X44210000Y-45230000D01*
X32780000Y-40150000D02*
X34050000Y-38880000D01*
X36590000Y-32530000D02*
X37860000Y-31260000D01*
X68340000Y-31260000D02*
X67070000Y-32530000D01*
X34050000Y-46500000D02*
X32780000Y-45230000D01*
X36590000Y-47770000D02*
X35320000Y-47770000D01*
X61990000Y-32530000D02*
X60720000Y-31260000D01*
X32780000Y-47770000D02*
X27700000Y-47770000D01*
X34050000Y-38880000D02*
X35320000Y-40150000D01*
X69610000Y-46500000D02*
X70880000Y-46500000D01*
X61990000Y-32530000D02*
X61990000Y-37610000D01*
X34050000Y-38880000D02*
X32780000Y-37610000D01*
X25160000Y-37610000D02*
X25160000Y-32530000D01*
D13*
X21480000Y-48500000D02*
X72020000Y-48500000D01*
D11*
X60720000Y-31260000D02*
X61990000Y-32530000D01*
X39130000Y-29990000D02*
X44210000Y-29990000D01*
X46750000Y-46500000D02*
X48020000Y-46500000D01*
X70880000Y-47770000D02*
X69610000Y-47770000D01*
X61990000Y-29990000D02*
X67070000Y-29990000D01*
X44210000Y-45230000D02*
X45480000Y-46500000D01*
X60720000Y-38880000D02*
X59450000Y-37610000D01*
D13*
X72020000Y-29260000D02*
X21480000Y-29260000D01*
D11*
X68340000Y-31260000D02*
X69610000Y-32530000D01*
X34050000Y-38880000D02*
X32780000Y-40150000D01*
X37860000Y-38880000D02*
X36590000Y-37610000D01*
X25160000Y-32530000D02*
X26430000Y-31260000D01*
X68340000Y-38880000D02*
X69610000Y-40150000D01*
X55640000Y-40150000D02*
X50560000Y-40150000D01*
X27700000Y-40150000D02*
X26430000Y-38880000D01*
X60720000Y-46500000D02*
X61990000Y-45230000D01*
X50560000Y-40150000D02*
X50560000Y-45230000D01*
X56910000Y-46500000D02*
X55640000Y-47770000D01*
X46750000Y-47770000D02*
X46750000Y-46500000D01*
X59450000Y-46500000D02*
X59450000Y-47770000D01*
X56910000Y-38880000D02*
X58180000Y-40150000D01*
X44210000Y-47770000D02*
X39130000Y-47770000D01*
X26430000Y-31260000D02*
X27700000Y-29990000D01*
X32780000Y-45230000D02*
X34050000Y-46500000D01*
X48020000Y-45230000D02*
X48020000Y-40150000D01*
X58180000Y-45230000D02*
X56910000Y-46500000D01*
X26430000Y-38880000D02*
X27700000Y-40150000D01*
X50560000Y-45230000D02*
X55640000Y-45230000D01*
D13*
X72020000Y-48500000D02*
X72020000Y-29260000D01*
D11*
X69610000Y-37610000D02*
X68340000Y-38880000D01*
X45480000Y-38880000D02*
X44210000Y-40150000D01*
X26430000Y-38880000D02*
X25160000Y-37610000D01*
X35320000Y-40150000D02*
X35320000Y-45230000D01*
X35320000Y-32530000D02*
X35320000Y-37610000D01*
X27700000Y-32530000D02*
X27700000Y-37610000D01*
X56910000Y-46500000D02*
X55640000Y-45230000D01*
X48020000Y-47770000D02*
X46750000Y-47770000D01*
X67070000Y-40150000D02*
X68340000Y-38880000D01*
X50560000Y-32530000D02*
X50560000Y-37610000D01*
X59450000Y-40150000D02*
X60720000Y-38880000D01*
X50560000Y-37610000D02*
X55640000Y-37610000D01*
X68340000Y-46500000D02*
X67070000Y-47770000D01*
X49290000Y-31260000D02*
X50560000Y-29990000D01*
X35320000Y-45230000D02*
X34050000Y-46500000D01*
X36590000Y-37610000D02*
X36590000Y-32530000D01*
X58180000Y-37610000D02*
X56910000Y-38880000D01*
X67070000Y-45230000D02*
X68340000Y-46500000D01*
X45480000Y-38880000D02*
X44210000Y-37610000D01*
X67070000Y-29990000D02*
X68340000Y-31260000D01*
X25160000Y-40150000D02*
X26430000Y-38880000D01*
X45480000Y-31260000D02*
X46750000Y-32530000D01*
X67070000Y-45230000D02*
X67070000Y-40150000D01*
X55640000Y-37610000D02*
X55640000Y-32530000D01*
X27700000Y-37610000D02*
X26430000Y-38880000D01*
X46750000Y-32530000D02*
X46750000Y-37610000D01*
X61990000Y-37610000D02*
X60720000Y-38880000D01*
X44210000Y-40150000D02*
X39130000Y-40150000D01*
%TO.C,U5*%
X44210000Y-20650000D02*
X39130000Y-20650000D01*
X61990000Y-18110000D02*
X60720000Y-19380000D01*
X46750000Y-13030000D02*
X46750000Y-18110000D01*
X27700000Y-18110000D02*
X26430000Y-19380000D01*
X55640000Y-18110000D02*
X55640000Y-13030000D01*
X67070000Y-25730000D02*
X67070000Y-20650000D01*
X45480000Y-11760000D02*
X46750000Y-13030000D01*
X25160000Y-20650000D02*
X26430000Y-19380000D01*
X67070000Y-10490000D02*
X68340000Y-11760000D01*
X45480000Y-19380000D02*
X44210000Y-18110000D01*
X67070000Y-25730000D02*
X68340000Y-27000000D01*
X58180000Y-18110000D02*
X56910000Y-19380000D01*
X36590000Y-18110000D02*
X36590000Y-13030000D01*
X35320000Y-25730000D02*
X34050000Y-27000000D01*
X49290000Y-11760000D02*
X50560000Y-10490000D01*
X68340000Y-27000000D02*
X67070000Y-28270000D01*
X50560000Y-18110000D02*
X55640000Y-18110000D01*
X59450000Y-20650000D02*
X60720000Y-19380000D01*
X50560000Y-13030000D02*
X50560000Y-18110000D01*
X67070000Y-20650000D02*
X68340000Y-19380000D01*
X48020000Y-28270000D02*
X46750000Y-28270000D01*
X56910000Y-27000000D02*
X55640000Y-25730000D01*
X27700000Y-13030000D02*
X27700000Y-18110000D01*
X35320000Y-13030000D02*
X35320000Y-18110000D01*
X35320000Y-20650000D02*
X35320000Y-25730000D01*
X26430000Y-19380000D02*
X25160000Y-18110000D01*
X45480000Y-19380000D02*
X44210000Y-20650000D01*
X69610000Y-18110000D02*
X68340000Y-19380000D01*
D13*
X72020000Y-29000000D02*
X72020000Y-9760000D01*
D11*
X50560000Y-25730000D02*
X55640000Y-25730000D01*
X26430000Y-19380000D02*
X27700000Y-20650000D01*
X58180000Y-25730000D02*
X56910000Y-27000000D01*
X48020000Y-25730000D02*
X48020000Y-20650000D01*
X32780000Y-25730000D02*
X34050000Y-27000000D01*
X26430000Y-11760000D02*
X27700000Y-10490000D01*
X44210000Y-28270000D02*
X39130000Y-28270000D01*
X56910000Y-19380000D02*
X58180000Y-20650000D01*
X59450000Y-27000000D02*
X59450000Y-28270000D01*
X46750000Y-28270000D02*
X46750000Y-27000000D01*
X56910000Y-27000000D02*
X55640000Y-28270000D01*
X50560000Y-20650000D02*
X50560000Y-25730000D01*
X60720000Y-27000000D02*
X61990000Y-25730000D01*
X27700000Y-20650000D02*
X26430000Y-19380000D01*
X55640000Y-20650000D02*
X50560000Y-20650000D01*
X68340000Y-19380000D02*
X69610000Y-20650000D01*
X25160000Y-13030000D02*
X26430000Y-11760000D01*
X37860000Y-19380000D02*
X36590000Y-18110000D01*
X34050000Y-19380000D02*
X32780000Y-20650000D01*
X68340000Y-11760000D02*
X69610000Y-13030000D01*
D13*
X72020000Y-9760000D02*
X21480000Y-9760000D01*
D11*
X60720000Y-19380000D02*
X59450000Y-18110000D01*
X44210000Y-25730000D02*
X45480000Y-27000000D01*
X61990000Y-10490000D02*
X67070000Y-10490000D01*
X70880000Y-28270000D02*
X69610000Y-28270000D01*
X46750000Y-27000000D02*
X48020000Y-27000000D01*
X39130000Y-10490000D02*
X44210000Y-10490000D01*
X60720000Y-11760000D02*
X61990000Y-13030000D01*
D13*
X21480000Y-29000000D02*
X72020000Y-29000000D01*
D11*
X25160000Y-18110000D02*
X25160000Y-13030000D01*
X34050000Y-19380000D02*
X32780000Y-18110000D01*
X61990000Y-13030000D02*
X61990000Y-18110000D01*
X69610000Y-27000000D02*
X70880000Y-27000000D01*
X34050000Y-19380000D02*
X35320000Y-20650000D01*
X32780000Y-28270000D02*
X27700000Y-28270000D01*
X61990000Y-13030000D02*
X60720000Y-11760000D01*
X36590000Y-28270000D02*
X35320000Y-28270000D01*
X34050000Y-27000000D02*
X32780000Y-25730000D01*
X68340000Y-11760000D02*
X67070000Y-13030000D01*
X36590000Y-13030000D02*
X37860000Y-11760000D01*
X32780000Y-20650000D02*
X34050000Y-19380000D01*
X39130000Y-25730000D02*
X44210000Y-25730000D01*
X59450000Y-18110000D02*
X59450000Y-13030000D01*
X32780000Y-25730000D02*
X32780000Y-20650000D01*
X49290000Y-11760000D02*
X50560000Y-13030000D01*
X50560000Y-18110000D02*
X49290000Y-19380000D01*
X27700000Y-25730000D02*
X32780000Y-25730000D01*
X61990000Y-20650000D02*
X60720000Y-19380000D01*
X36590000Y-27000000D02*
X36590000Y-28270000D01*
X45480000Y-19380000D02*
X46750000Y-20650000D01*
X34050000Y-11760000D02*
X35320000Y-13030000D01*
X48020000Y-20650000D02*
X49290000Y-19380000D01*
X58180000Y-27000000D02*
X59450000Y-27000000D01*
X27700000Y-25730000D02*
X26430000Y-27000000D01*
D13*
X39400000Y-29380000D02*
X41400000Y-29380000D01*
D11*
X67070000Y-13030000D02*
X68340000Y-11760000D01*
X55640000Y-20650000D02*
X56910000Y-19380000D01*
X50560000Y-25730000D02*
X49290000Y-27000000D01*
X27700000Y-28270000D02*
X26430000Y-27000000D01*
X69610000Y-13030000D02*
X69610000Y-18110000D01*
X67070000Y-18110000D02*
X67070000Y-13030000D01*
X46750000Y-25730000D02*
X45480000Y-27000000D01*
X27700000Y-10490000D02*
X32780000Y-10490000D01*
X69610000Y-25730000D02*
X68340000Y-27000000D01*
X27700000Y-13030000D02*
X26430000Y-11760000D01*
X32780000Y-13030000D02*
X27700000Y-13030000D01*
X48020000Y-13030000D02*
X49290000Y-11760000D01*
X61990000Y-28270000D02*
X60720000Y-27000000D01*
X37860000Y-11760000D02*
X39130000Y-10490000D01*
X55640000Y-25730000D02*
X55640000Y-20650000D01*
X37860000Y-11760000D02*
X39130000Y-13030000D01*
X56910000Y-11760000D02*
X55640000Y-13030000D01*
X58180000Y-20650000D02*
X58180000Y-25730000D01*
X55640000Y-13030000D02*
X50560000Y-13030000D01*
X44210000Y-25730000D02*
X44210000Y-20650000D01*
X50560000Y-13030000D02*
X49290000Y-11760000D01*
X25160000Y-25730000D02*
X25160000Y-20650000D01*
X48020000Y-27000000D02*
X48020000Y-28270000D01*
X50560000Y-10490000D02*
X55640000Y-10490000D01*
X37860000Y-27000000D02*
X39130000Y-25730000D01*
X36590000Y-25730000D02*
X36590000Y-20650000D01*
X46750000Y-20650000D02*
X46750000Y-25730000D01*
X61990000Y-25730000D02*
X67070000Y-25730000D01*
X39130000Y-13030000D02*
X39130000Y-18110000D01*
X46750000Y-18110000D02*
X45480000Y-19380000D01*
X60720000Y-11760000D02*
X61990000Y-10490000D01*
X44210000Y-18110000D02*
X44210000Y-13030000D01*
X45480000Y-11760000D02*
X44210000Y-13030000D01*
X34050000Y-27000000D02*
X32780000Y-28270000D01*
X67070000Y-28270000D02*
X61990000Y-28270000D01*
X35320000Y-28270000D02*
X35320000Y-27000000D01*
X55640000Y-13030000D02*
X56910000Y-11760000D01*
X49290000Y-27000000D02*
X50560000Y-25730000D01*
X49290000Y-19380000D02*
X50560000Y-20650000D01*
X27700000Y-18110000D02*
X32780000Y-18110000D01*
X44210000Y-10490000D02*
X45480000Y-11760000D01*
X37860000Y-19380000D02*
X39130000Y-20650000D01*
X44210000Y-18110000D02*
X45480000Y-19380000D01*
X59450000Y-13030000D02*
X60720000Y-11760000D01*
X39130000Y-20650000D02*
X37860000Y-19380000D01*
X68340000Y-19380000D02*
X67070000Y-18110000D01*
X61990000Y-18110000D02*
X67070000Y-18110000D01*
X49290000Y-27000000D02*
X48020000Y-25730000D01*
X44210000Y-13030000D02*
X45480000Y-11760000D01*
X55640000Y-25730000D02*
X56910000Y-27000000D01*
X56910000Y-19380000D02*
X55640000Y-20650000D01*
X39130000Y-28270000D02*
X37860000Y-27000000D01*
X39130000Y-18110000D02*
X44210000Y-18110000D01*
X26430000Y-11760000D02*
X27700000Y-13030000D01*
X26430000Y-27000000D02*
X27700000Y-25730000D01*
X49290000Y-19380000D02*
X50560000Y-18110000D01*
X50560000Y-20650000D02*
X49290000Y-19380000D01*
X27700000Y-20650000D02*
X27700000Y-25730000D01*
X60720000Y-19380000D02*
X61990000Y-18110000D01*
X69610000Y-20650000D02*
X69610000Y-25730000D01*
X39130000Y-25730000D02*
X37860000Y-27000000D01*
X70880000Y-27000000D02*
X70880000Y-28270000D01*
X67070000Y-18110000D02*
X68340000Y-19380000D01*
X26430000Y-19380000D02*
X27700000Y-18110000D01*
X37860000Y-27000000D02*
X36590000Y-25730000D01*
X45480000Y-27000000D02*
X44210000Y-28270000D01*
X36590000Y-20650000D02*
X37860000Y-19380000D01*
X32780000Y-10490000D02*
X34050000Y-11760000D01*
X67070000Y-20650000D02*
X61990000Y-20650000D01*
X32780000Y-18110000D02*
X34050000Y-19380000D01*
X59450000Y-28270000D02*
X58180000Y-28270000D01*
X39130000Y-20650000D02*
X39130000Y-25730000D01*
X68340000Y-19380000D02*
X67070000Y-20650000D01*
X39130000Y-18110000D02*
X37860000Y-19380000D01*
X59450000Y-25730000D02*
X59450000Y-20650000D01*
X45480000Y-27000000D02*
X44210000Y-25730000D01*
X39130000Y-13030000D02*
X37860000Y-11760000D01*
X60720000Y-27000000D02*
X59450000Y-25730000D01*
X58180000Y-28270000D02*
X58180000Y-27000000D01*
X35320000Y-18110000D02*
X34050000Y-19380000D01*
X67070000Y-13030000D02*
X61990000Y-13030000D01*
X44210000Y-20650000D02*
X45480000Y-19380000D01*
X48020000Y-18110000D02*
X48020000Y-13030000D01*
D13*
X21480000Y-29000000D02*
X21480000Y-9760000D01*
D11*
X44210000Y-13030000D02*
X39130000Y-13030000D01*
X32780000Y-18110000D02*
X32780000Y-13030000D01*
X49290000Y-19380000D02*
X48020000Y-18110000D01*
X61990000Y-20650000D02*
X61990000Y-25730000D01*
X34050000Y-11760000D02*
X32780000Y-13030000D01*
X35320000Y-27000000D02*
X36590000Y-27000000D01*
X61990000Y-25730000D02*
X60720000Y-27000000D01*
X26430000Y-27000000D02*
X25160000Y-25730000D01*
X50560000Y-28270000D02*
X49290000Y-27000000D01*
X55640000Y-10490000D02*
X56910000Y-11760000D01*
X32780000Y-13030000D02*
X34050000Y-11760000D01*
X58180000Y-13030000D02*
X58180000Y-18110000D01*
X55640000Y-18110000D02*
X56910000Y-19380000D01*
X55640000Y-28270000D02*
X50560000Y-28270000D01*
X32780000Y-20650000D02*
X27700000Y-20650000D01*
X69610000Y-28270000D02*
X69610000Y-27000000D01*
X56910000Y-11760000D02*
X58180000Y-13030000D01*
X60720000Y-19380000D02*
X61990000Y-20650000D01*
X68340000Y-27000000D02*
X67070000Y-25730000D01*
X56910000Y-19380000D02*
X55640000Y-18110000D01*
X37860000Y-19380000D02*
X39130000Y-18110000D01*
D13*
%TO.C,S9*%
X88750000Y-40000000D02*
G75*
G03*
X88750000Y-40000000I-4750000J0D01*
G01*
X92000000Y-48500000D02*
X76000000Y-48500000D01*
D11*
%TO.C,BZ1*%
X84494400Y-18500000D02*
G75*
G03*
X84494400Y-18500000I-5994400J0D01*
G01*
D13*
%TO.C,T2*%
X32240000Y-61250000D02*
X12260000Y-61250000D01*
X14630000Y-58250000D02*
X14630000Y-61250000D01*
X12260000Y-58250000D02*
X32240000Y-58250000D01*
X12260000Y-61250000D02*
X12260000Y-58250000D01*
X32240000Y-58250000D02*
X32240000Y-61250000D01*
%TO.C,U1*%
X57750000Y-61260000D02*
X61610000Y-61260000D01*
X53890000Y-61260000D02*
X53890000Y-61005000D01*
X57750000Y-50740000D02*
X53890000Y-50740000D01*
X61610000Y-61260000D02*
X61610000Y-61005000D01*
X57750000Y-61260000D02*
X53890000Y-61260000D01*
X61610000Y-50740000D02*
X61610000Y-50995000D01*
X53890000Y-50995000D02*
X52075000Y-50995000D01*
X53890000Y-50740000D02*
X53890000Y-50995000D01*
X57750000Y-50740000D02*
X61610000Y-50740000D01*
%TO.C,T3*%
X89789000Y-27281000D02*
X82804000Y-27281000D01*
X82804000Y-24281000D02*
X89789000Y-24281000D01*
%TO.C,C3*%
X12444600Y-18242800D02*
X12444600Y-17242800D01*
X12944600Y-17742800D02*
X11944600Y-17742800D01*
%TO.C,Y1*%
X27407200Y-53046000D02*
X27407200Y-56346000D01*
X27407200Y-56346000D02*
X31407200Y-56346000D01*
%TO.C,C4*%
X18444600Y-20479000D02*
X18444600Y-21479000D01*
X17944600Y-20979000D02*
X18944600Y-20979000D01*
%TO.C,D1*%
X10717000Y-26454000D02*
X10717000Y-24904000D01*
D11*
%TO.C,Y2*%
X26907200Y-49196000D02*
X26907200Y-60196000D01*
X21907200Y-60196000D02*
X21907200Y-49196000D01*
X26907200Y-60196000D02*
X21907200Y-60196000D01*
X21907200Y-49196000D02*
X26907200Y-49196000D01*
%TO.C,U4*%
X46875000Y-51625000D02*
X46550000Y-51625000D01*
X46875000Y-51625000D02*
X46875000Y-51950000D01*
X39625000Y-51625000D02*
X39625000Y-51850000D01*
X46875000Y-58875000D02*
X46550000Y-58875000D01*
X39625000Y-51850000D02*
X38200000Y-51850000D01*
X39625000Y-51625000D02*
X39950000Y-51625000D01*
X46875000Y-58875000D02*
X46875000Y-58550000D01*
X39625000Y-58875000D02*
X39950000Y-58875000D01*
X39625000Y-58875000D02*
X39625000Y-58550000D01*
D13*
%TO.C,T1*%
X72874000Y-49937500D02*
X72874000Y-56922500D01*
X69874000Y-56922500D02*
X69874000Y-49937500D01*
%TO.C,C2*%
X4089400Y-17451200D02*
X4089400Y-16451200D01*
X3589400Y-16951200D02*
X4589400Y-16951200D01*
D11*
%TO.C,U3*%
X36590000Y-35230000D02*
X36590000Y-30150000D01*
X45480000Y-36500000D02*
X44210000Y-35230000D01*
X61990000Y-30150000D02*
X61990000Y-35230000D01*
X32780000Y-35230000D02*
X32780000Y-30150000D01*
X56910000Y-21260000D02*
X58180000Y-22530000D01*
X39130000Y-22530000D02*
X37860000Y-21260000D01*
X35320000Y-30150000D02*
X35320000Y-35230000D01*
X61990000Y-30150000D02*
X60720000Y-28880000D01*
X37860000Y-28880000D02*
X36590000Y-27610000D01*
X39130000Y-37770000D02*
X37860000Y-36500000D01*
X58180000Y-30150000D02*
X58180000Y-35230000D01*
X44210000Y-30150000D02*
X45480000Y-28880000D01*
X61990000Y-35230000D02*
X60720000Y-36500000D01*
X37860000Y-36500000D02*
X39130000Y-35230000D01*
X68340000Y-36500000D02*
X67070000Y-35230000D01*
X34050000Y-36500000D02*
X32780000Y-37770000D01*
X59450000Y-27610000D02*
X59450000Y-22530000D01*
X55640000Y-35230000D02*
X55640000Y-30150000D01*
X36590000Y-30150000D02*
X37860000Y-28880000D01*
X44210000Y-27610000D02*
X44210000Y-22530000D01*
X46750000Y-22530000D02*
X46750000Y-27610000D01*
X69610000Y-22530000D02*
X69610000Y-27610000D01*
X67070000Y-35230000D02*
X67070000Y-30150000D01*
X67070000Y-27610000D02*
X68340000Y-28880000D01*
X35320000Y-36500000D02*
X36590000Y-36500000D01*
X60720000Y-28880000D02*
X59450000Y-27610000D01*
X34050000Y-36500000D02*
X32780000Y-35230000D01*
X59450000Y-22530000D02*
X60720000Y-21260000D01*
X61990000Y-37770000D02*
X60720000Y-36500000D01*
X55640000Y-37770000D02*
X50560000Y-37770000D01*
X46750000Y-35230000D02*
X45480000Y-36500000D01*
X37860000Y-28880000D02*
X39130000Y-30150000D01*
X25160000Y-30150000D02*
X26430000Y-28880000D01*
X48020000Y-37770000D02*
X46750000Y-37770000D01*
X55640000Y-22530000D02*
X56910000Y-21260000D01*
X49290000Y-28880000D02*
X48020000Y-27610000D01*
X45480000Y-36500000D02*
X44210000Y-37770000D01*
X55640000Y-27610000D02*
X55640000Y-22530000D01*
X50560000Y-19990000D02*
X55640000Y-19990000D01*
X36590000Y-37770000D02*
X35320000Y-37770000D01*
X26430000Y-28880000D02*
X27700000Y-27610000D01*
X58180000Y-22530000D02*
X58180000Y-27610000D01*
X35320000Y-37770000D02*
X35320000Y-36500000D01*
X32780000Y-35230000D02*
X34050000Y-36500000D01*
X37860000Y-28880000D02*
X39130000Y-27610000D01*
X35320000Y-35230000D02*
X34050000Y-36500000D01*
X32780000Y-30150000D02*
X27700000Y-30150000D01*
X45480000Y-21260000D02*
X46750000Y-22530000D01*
X61990000Y-27610000D02*
X60720000Y-28880000D01*
X67070000Y-37770000D02*
X61990000Y-37770000D01*
X32780000Y-22530000D02*
X27700000Y-22530000D01*
X50560000Y-35230000D02*
X49290000Y-36500000D01*
X56910000Y-21260000D02*
X55640000Y-22530000D01*
X61990000Y-35230000D02*
X67070000Y-35230000D01*
X55640000Y-19990000D02*
X56910000Y-21260000D01*
X58180000Y-37770000D02*
X58180000Y-36500000D01*
X45480000Y-28880000D02*
X44210000Y-27610000D01*
X44210000Y-27610000D02*
X45480000Y-28880000D01*
X27700000Y-37770000D02*
X26430000Y-36500000D01*
X56910000Y-28880000D02*
X55640000Y-30150000D01*
X50560000Y-27610000D02*
X49290000Y-28880000D01*
X37860000Y-21260000D02*
X39130000Y-22530000D01*
X25160000Y-35230000D02*
X25160000Y-30150000D01*
X48020000Y-30150000D02*
X49290000Y-28880000D01*
X48020000Y-22530000D02*
X49290000Y-21260000D01*
X60720000Y-21260000D02*
X61990000Y-22530000D01*
X60720000Y-28880000D02*
X61990000Y-27610000D01*
X67070000Y-27610000D02*
X67070000Y-22530000D01*
X49290000Y-36500000D02*
X50560000Y-35230000D01*
X26430000Y-21260000D02*
X27700000Y-19990000D01*
X68340000Y-28880000D02*
X67070000Y-30150000D01*
X34050000Y-21260000D02*
X35320000Y-22530000D01*
X39130000Y-35230000D02*
X37860000Y-36500000D01*
X67070000Y-30150000D02*
X68340000Y-28880000D01*
X49290000Y-21260000D02*
X50560000Y-19990000D01*
X67070000Y-22530000D02*
X68340000Y-21260000D01*
X44210000Y-22530000D02*
X39130000Y-22530000D01*
X34050000Y-28880000D02*
X35320000Y-30150000D01*
X58180000Y-27610000D02*
X56910000Y-28880000D01*
X68340000Y-36500000D02*
X67070000Y-37770000D01*
X60720000Y-21260000D02*
X61990000Y-19990000D01*
X35320000Y-22530000D02*
X35320000Y-27610000D01*
X48020000Y-27610000D02*
X48020000Y-22530000D01*
X60720000Y-36500000D02*
X59450000Y-35230000D01*
X39130000Y-22530000D02*
X39130000Y-27610000D01*
X50560000Y-22530000D02*
X50560000Y-27610000D01*
X32780000Y-27610000D02*
X32780000Y-22530000D01*
X26430000Y-28880000D02*
X27700000Y-30150000D01*
X39130000Y-30150000D02*
X37860000Y-28880000D01*
X50560000Y-30150000D02*
X50560000Y-35230000D01*
X44210000Y-35230000D02*
X45480000Y-36500000D01*
X45480000Y-28880000D02*
X46750000Y-30150000D01*
X26430000Y-21260000D02*
X27700000Y-22530000D01*
X27700000Y-35230000D02*
X26430000Y-36500000D01*
X34050000Y-28880000D02*
X32780000Y-27610000D01*
X27700000Y-35230000D02*
X32780000Y-35230000D01*
X50560000Y-37770000D02*
X49290000Y-36500000D01*
D13*
X21480000Y-38500000D02*
X72020000Y-38500000D01*
D11*
X34050000Y-28880000D02*
X32780000Y-30150000D01*
X34050000Y-21260000D02*
X32780000Y-22530000D01*
X27700000Y-19990000D02*
X32780000Y-19990000D01*
X68340000Y-28880000D02*
X69610000Y-30150000D01*
X67070000Y-19990000D02*
X68340000Y-21260000D01*
X56910000Y-36500000D02*
X55640000Y-35230000D01*
X36590000Y-22530000D02*
X37860000Y-21260000D01*
X27700000Y-27610000D02*
X26430000Y-28880000D01*
X44210000Y-19990000D02*
X45480000Y-21260000D01*
X32780000Y-30150000D02*
X34050000Y-28880000D01*
X56910000Y-36500000D02*
X55640000Y-37770000D01*
X60720000Y-36500000D02*
X61990000Y-35230000D01*
X60720000Y-28880000D02*
X61990000Y-30150000D01*
X44210000Y-35230000D02*
X44210000Y-30150000D01*
X55640000Y-22530000D02*
X50560000Y-22530000D01*
X67070000Y-35230000D02*
X68340000Y-36500000D01*
X27700000Y-22530000D02*
X27700000Y-27610000D01*
X70880000Y-37770000D02*
X69610000Y-37770000D01*
X35320000Y-27610000D02*
X34050000Y-28880000D01*
X27700000Y-22530000D02*
X26430000Y-21260000D01*
X44210000Y-30150000D02*
X39130000Y-30150000D01*
X46750000Y-37770000D02*
X46750000Y-36500000D01*
D13*
X72020000Y-19260000D02*
X21480000Y-19260000D01*
D11*
X36590000Y-36500000D02*
X36590000Y-37770000D01*
D13*
X72020000Y-38500000D02*
X72020000Y-19260000D01*
D11*
X39130000Y-19990000D02*
X44210000Y-19990000D01*
X46750000Y-30150000D02*
X46750000Y-35230000D01*
X55640000Y-27610000D02*
X56910000Y-28880000D01*
X69610000Y-27610000D02*
X68340000Y-28880000D01*
X39130000Y-27610000D02*
X37860000Y-28880000D01*
X58180000Y-36500000D02*
X59450000Y-36500000D01*
X32780000Y-19990000D02*
X34050000Y-21260000D01*
X61990000Y-22530000D02*
X61990000Y-27610000D01*
X27700000Y-30150000D02*
X27700000Y-35230000D01*
X67070000Y-30150000D02*
X61990000Y-30150000D01*
X50560000Y-27610000D02*
X55640000Y-27610000D01*
X25160000Y-22530000D02*
X26430000Y-21260000D01*
X44210000Y-37770000D02*
X39130000Y-37770000D01*
X45480000Y-28880000D02*
X44210000Y-30150000D01*
X37860000Y-21260000D02*
X39130000Y-19990000D01*
X61990000Y-19990000D02*
X67070000Y-19990000D01*
X26430000Y-36500000D02*
X25160000Y-35230000D01*
X49290000Y-36500000D02*
X48020000Y-35230000D01*
X26430000Y-36500000D02*
X27700000Y-35230000D01*
X69610000Y-30150000D02*
X69610000Y-35230000D01*
X59450000Y-36500000D02*
X59450000Y-37770000D01*
X56910000Y-28880000D02*
X58180000Y-30150000D01*
D13*
X39400000Y-38880000D02*
X41400000Y-38880000D01*
D11*
X46750000Y-36500000D02*
X48020000Y-36500000D01*
X39130000Y-35230000D02*
X44210000Y-35230000D01*
X50560000Y-35230000D02*
X55640000Y-35230000D01*
X58180000Y-35230000D02*
X56910000Y-36500000D01*
X36590000Y-27610000D02*
X36590000Y-22530000D01*
X48020000Y-35230000D02*
X48020000Y-30150000D01*
X68340000Y-21260000D02*
X69610000Y-22530000D01*
X49290000Y-28880000D02*
X50560000Y-30150000D01*
X26430000Y-28880000D02*
X25160000Y-27610000D01*
X45480000Y-21260000D02*
X44210000Y-22530000D01*
X48020000Y-36500000D02*
X48020000Y-37770000D01*
X69610000Y-37770000D02*
X69610000Y-36500000D01*
X67070000Y-22530000D02*
X61990000Y-22530000D01*
X44210000Y-22530000D02*
X45480000Y-21260000D01*
X61990000Y-22530000D02*
X60720000Y-21260000D01*
X27700000Y-27610000D02*
X32780000Y-27610000D01*
X39130000Y-30150000D02*
X39130000Y-35230000D01*
X59450000Y-37770000D02*
X58180000Y-37770000D01*
X37860000Y-36500000D02*
X36590000Y-35230000D01*
X56910000Y-28880000D02*
X55640000Y-27610000D01*
X70880000Y-36500000D02*
X70880000Y-37770000D01*
X55640000Y-30150000D02*
X50560000Y-30150000D01*
X68340000Y-28880000D02*
X67070000Y-27610000D01*
X69610000Y-35230000D02*
X68340000Y-36500000D01*
X32780000Y-37770000D02*
X27700000Y-37770000D01*
X69610000Y-36500000D02*
X70880000Y-36500000D01*
X59450000Y-30150000D02*
X60720000Y-28880000D01*
X59450000Y-35230000D02*
X59450000Y-30150000D01*
X49290000Y-28880000D02*
X50560000Y-27610000D01*
X46750000Y-27610000D02*
X45480000Y-28880000D01*
D13*
X21480000Y-38500000D02*
X21480000Y-19260000D01*
D11*
X32780000Y-22530000D02*
X34050000Y-21260000D01*
X50560000Y-30150000D02*
X49290000Y-28880000D01*
X68340000Y-21260000D02*
X67070000Y-22530000D01*
X61990000Y-27610000D02*
X67070000Y-27610000D01*
X49290000Y-21260000D02*
X50560000Y-22530000D01*
X50560000Y-22530000D02*
X49290000Y-21260000D01*
X55640000Y-35230000D02*
X56910000Y-36500000D01*
X39130000Y-27610000D02*
X44210000Y-27610000D01*
X55640000Y-30150000D02*
X56910000Y-28880000D01*
X32780000Y-27610000D02*
X34050000Y-28880000D01*
X27700000Y-30150000D02*
X26430000Y-28880000D01*
X25160000Y-27610000D02*
X25160000Y-22530000D01*
%TD*%
M02*
