%TF.GenerationSoftware,KiCad,Pcbnew,(6.0.0)*%
%TF.CreationDate,2023-05-06T18:39:40-07:00*%
%TF.ProjectId,digital_clock_v3,64696769-7461-46c5-9f63-6c6f636b5f76,rev?*%
%TF.SameCoordinates,Original*%
%TF.FileFunction,Soldermask,Bot*%
%TF.FilePolarity,Negative*%
%FSLAX46Y46*%
G04 Gerber Fmt 4.6, Leading zero omitted, Abs format (unit mm)*
G04 Created by KiCad (PCBNEW (6.0.0)) date 2023-05-06 18:39:40*
%MOMM*%
%LPD*%
G01*
G04 APERTURE LIST*
G04 Aperture macros list*
%AMFreePoly0*
4,1,54,0.201078,0.979575,0.387516,0.921863,0.559193,0.829038,0.709571,0.704634,0.832921,0.553392,0.924546,0.381070,0.947815,0.304000,1.093000,0.304000,1.093000,0.635000,1.107645,0.670355,1.143000,0.685000,2.921000,0.685000,2.956355,0.670355,2.971000,0.635000,2.971000,0.304000,3.556000,0.304000,3.591355,0.289355,3.606000,0.254000,3.606000,-0.254000,3.591355,-0.289355,
3.556000,-0.304000,2.971000,-0.304000,2.971000,-0.635000,2.956355,-0.670355,2.921000,-0.685000,1.143000,-0.685000,1.107645,-0.670355,1.093000,-0.635000,1.093000,-0.304000,0.947721,-0.304000,0.913545,-0.406737,0.817145,-0.576432,0.689620,-0.724172,0.535827,-0.844328,0.361625,-0.932324,0.173648,-0.984808,-0.020942,-0.999781,-0.214735,-0.976672,-0.400349,-0.916363,-0.570714,-0.821149,
-0.719340,-0.694658,-0.840567,-0.541708,-0.929776,-0.368125,-0.983571,-0.180519,-0.999903,0.013962,-0.978148,0.207912,-0.919135,0.393942,-0.825113,0.564967,-0.699663,0.714473,-0.547563,0.836764,-0.374607,0.927184,-0.187381,0.982287,0.006981,0.999976,0.201078,0.979575,0.201078,0.979575,$1*%
%AMFreePoly1*
4,1,51,0.174003,0.741867,0.334039,0.684881,0.477472,0.593856,0.597174,0.473315,0.687196,0.329249,0.743064,0.168820,0.762000,0.000000,0.761703,-0.021276,0.738060,-0.189502,0.677735,-0.348309,0.583726,-0.489804,0.460705,-0.606956,0.314786,-0.693941,0.153221,-0.746436,-0.015958,-0.761833,-0.184344,-0.739365,-0.343569,-0.680150,-0.485717,-0.587131,-0.603725,-0.464931,-0.691726,-0.319622,
-0.696923,-0.304000,-1.093000,-0.304000,-1.093000,-0.635000,-1.107645,-0.670355,-1.143000,-0.685000,-2.921000,-0.685000,-2.956355,-0.670355,-2.971000,-0.635000,-2.971000,-0.304000,-3.556000,-0.304000,-3.591355,-0.289355,-3.606000,-0.254000,-3.606000,0.254000,-3.591355,0.289355,-3.556000,0.304000,-2.971000,0.304000,-2.971000,0.635000,-2.956355,0.670355,-2.921000,0.685000,-1.143000,0.685000,
-1.107645,0.670355,-1.093000,0.635000,-1.093000,0.304000,-0.695203,0.304000,-0.682532,0.338812,-0.590508,0.481606,-0.469134,0.600464,-0.324444,0.689478,-0.163628,0.744224,0.005320,0.761981,0.174003,0.741867,0.174003,0.741867,$1*%
%AMFreePoly2*
4,1,50,0.174003,0.741867,0.334039,0.684881,0.477472,0.593856,0.597174,0.473315,0.687196,0.329249,0.695989,0.304000,1.093000,0.304000,1.093000,0.635000,1.107645,0.670355,1.143000,0.685000,2.921000,0.685000,2.956355,0.670355,2.971000,0.635000,2.971000,0.304000,3.556000,0.304000,3.591355,0.289355,3.606000,0.254000,3.606000,-0.254000,3.591355,-0.289355,3.556000,-0.304000,
2.971000,-0.304000,2.971000,-0.635000,2.956355,-0.670355,2.921000,-0.685000,1.143000,-0.685000,1.107645,-0.670355,1.093000,-0.635000,1.093000,-0.304000,0.694566,-0.304000,0.677735,-0.348309,0.583726,-0.489804,0.460705,-0.606956,0.314786,-0.693941,0.153221,-0.746436,-0.015958,-0.761833,-0.184344,-0.739365,-0.343569,-0.680150,-0.485717,-0.587131,-0.603725,-0.464931,-0.691726,-0.319622,
-0.745348,-0.158429,-0.761926,0.010639,-0.740634,0.179178,-0.682532,0.338812,-0.590508,0.481606,-0.469134,0.600464,-0.324444,0.689478,-0.163628,0.744224,0.005320,0.761981,0.174003,0.741867,0.174003,0.741867,$1*%
G04 Aperture macros list end*
%ADD10O,1.650000X1.100000*%
%ADD11O,2.700000X1.700000*%
%ADD12R,2.032000X2.032000*%
%ADD13C,2.032000*%
%ADD14R,1.500000X1.500000*%
%ADD15C,1.500000*%
%ADD16R,1.200000X2.000000*%
%ADD17O,1.200000X2.000000*%
%ADD18C,4.300000*%
%ADD19FreePoly0,0.000000*%
%ADD20FreePoly0,180.000000*%
%ADD21FreePoly1,180.000000*%
%ADD22FreePoly2,180.000000*%
%ADD23C,1.000000*%
%ADD24FreePoly0,90.000000*%
%ADD25FreePoly0,270.000000*%
G04 APERTURE END LIST*
D10*
%TO.C,J1*%
X86350000Y-17900000D03*
X88050000Y-18700000D03*
X86350000Y-19500000D03*
X88050000Y-20300000D03*
X86350000Y-21100000D03*
D11*
X91650000Y-23150000D03*
X87139280Y-15850000D03*
X87139280Y-23150000D03*
X91650000Y-15850000D03*
%TD*%
D12*
%TO.C,BZ1*%
X86000000Y-39190000D03*
D13*
X86000000Y-46810000D03*
%TD*%
D14*
%TO.C,T2*%
X13360000Y-59750000D03*
D15*
X15900000Y-59750000D03*
X18440000Y-59750000D03*
X20980000Y-59750000D03*
X23520000Y-59750000D03*
X26060000Y-59750000D03*
X28600000Y-59750000D03*
X31140000Y-59750000D03*
%TD*%
D10*
%TO.C,J2*%
X7150000Y-45600000D03*
X5450000Y-44800000D03*
X7150000Y-44000000D03*
X5450000Y-43200000D03*
X7150000Y-42400000D03*
D11*
X6360720Y-47650000D03*
X1850000Y-40350000D03*
X6360720Y-40350000D03*
X1850000Y-47650000D03*
%TD*%
D16*
%TO.C,T3*%
X89154000Y-25781000D03*
D17*
X86614000Y-25781000D03*
X84074000Y-25781000D03*
%TD*%
D18*
%TO.C,H1*%
X16000000Y-53000000D03*
%TD*%
%TO.C,H3*%
X78000000Y-53000000D03*
%TD*%
D19*
%TO.C,C3*%
X11000000Y-38100000D03*
D20*
X18620000Y-38100000D03*
%TD*%
%TO.C,C4*%
X18620000Y-44000000D03*
D19*
X11000000Y-44000000D03*
%TD*%
D21*
%TO.C,D1*%
X10922400Y-47175000D03*
D22*
X18542400Y-47175000D03*
%TD*%
D23*
%TO.C,Y2*%
X24407200Y-45156000D03*
X24407200Y-50236000D03*
%TD*%
D16*
%TO.C,T1*%
X60097500Y-59690000D03*
D17*
X62637500Y-59690000D03*
X65177500Y-59690000D03*
%TD*%
D24*
%TO.C,C2*%
X6985000Y-21590000D03*
D25*
X6985000Y-13970000D03*
%TD*%
D14*
%TO.C,U3*%
X53350000Y-55477500D03*
D15*
X50810000Y-55477500D03*
X48270000Y-55477500D03*
X45730000Y-55477500D03*
X43190000Y-55477500D03*
X40650000Y-55477500D03*
X40650000Y-40237500D03*
X43190000Y-40237500D03*
X45730000Y-40237500D03*
X48270000Y-40237500D03*
X50810000Y-40237500D03*
X53350000Y-40237500D03*
%TD*%
M02*
