%TF.GenerationSoftware,KiCad,Pcbnew,(6.0.0)*%
%TF.CreationDate,2023-05-06T18:39:40-07:00*%
%TF.ProjectId,digital_clock_v3,64696769-7461-46c5-9f63-6c6f636b5f76,rev?*%
%TF.SameCoordinates,Original*%
%TF.FileFunction,Legend,Bot*%
%TF.FilePolarity,Positive*%
%FSLAX46Y46*%
G04 Gerber Fmt 4.6, Leading zero omitted, Abs format (unit mm)*
G04 Created by KiCad (PCBNEW (6.0.0)) date 2023-05-06 18:39:40*
%MOMM*%
%LPD*%
G01*
G04 APERTURE LIST*
%ADD10C,0.150000*%
%ADD11C,0.300000*%
%ADD12C,0.254000*%
%ADD13C,0.120000*%
G04 APERTURE END LIST*
D10*
X37525119Y-27651000D02*
X37425174Y-28635436D01*
X37425174Y-28635436D02*
X37652119Y-29302000D01*
X37652119Y-29302000D02*
X37682000Y-28293471D01*
X37682000Y-28293471D02*
X37779119Y-27524000D01*
X37779119Y-27524000D02*
X37525119Y-27651000D01*
G36*
X37682000Y-28293471D02*
G01*
X37652119Y-29302000D01*
X37425174Y-28635436D01*
X37525119Y-27651000D01*
X37779119Y-27524000D01*
X37682000Y-28293471D01*
G37*
X37682000Y-28293471D02*
X37652119Y-29302000D01*
X37425174Y-28635436D01*
X37525119Y-27651000D01*
X37779119Y-27524000D01*
X37682000Y-28293471D01*
X15269000Y-27885915D02*
X15269000Y-28266915D01*
X15269000Y-28266915D02*
X15396000Y-28520915D01*
X15396000Y-28520915D02*
X19714000Y-28520915D01*
X19714000Y-28520915D02*
X22127000Y-28520915D01*
X22127000Y-28520915D02*
X22381000Y-28139915D01*
X22381000Y-28139915D02*
X21492000Y-27885915D01*
X21492000Y-27885915D02*
X17428000Y-27758915D01*
X17428000Y-27758915D02*
X15269000Y-27885915D01*
G36*
X21492000Y-27885915D02*
G01*
X22381000Y-28139915D01*
X22127000Y-28520915D01*
X15396000Y-28520915D01*
X15269000Y-28266915D01*
X15269000Y-27885915D01*
X17428000Y-27758915D01*
X21492000Y-27885915D01*
G37*
X21492000Y-27885915D02*
X22381000Y-28139915D01*
X22127000Y-28520915D01*
X15396000Y-28520915D01*
X15269000Y-28266915D01*
X15269000Y-27885915D01*
X17428000Y-27758915D01*
X21492000Y-27885915D01*
X39079000Y-26762000D02*
X40222000Y-27524000D01*
X40222000Y-27524000D02*
X40603000Y-27651000D01*
X40603000Y-27651000D02*
X40349000Y-27270000D01*
X40349000Y-27270000D02*
X39079000Y-26635000D01*
X39079000Y-26635000D02*
X39079000Y-26762000D01*
G36*
X40349000Y-27270000D02*
G01*
X40603000Y-27651000D01*
X40222000Y-27524000D01*
X39079000Y-26762000D01*
X39079000Y-26635000D01*
X40349000Y-27270000D01*
G37*
X40349000Y-27270000D02*
X40603000Y-27651000D01*
X40222000Y-27524000D01*
X39079000Y-26762000D01*
X39079000Y-26635000D01*
X40349000Y-27270000D01*
X34888000Y-23968000D02*
X36031000Y-24730000D01*
X36031000Y-24730000D02*
X36285000Y-24730000D01*
X36285000Y-24730000D02*
X36031000Y-24349000D01*
X36031000Y-24349000D02*
X35142000Y-23714000D01*
X35142000Y-23714000D02*
X34761000Y-23714000D01*
X34761000Y-23714000D02*
X34888000Y-23968000D01*
G36*
X36031000Y-24349000D02*
G01*
X36285000Y-24730000D01*
X36031000Y-24730000D01*
X34888000Y-23968000D01*
X34761000Y-23714000D01*
X35142000Y-23714000D01*
X36031000Y-24349000D01*
G37*
X36031000Y-24349000D02*
X36285000Y-24730000D01*
X36031000Y-24730000D01*
X34888000Y-23968000D01*
X34761000Y-23714000D01*
X35142000Y-23714000D01*
X36031000Y-24349000D01*
X37428000Y-24222000D02*
X37555000Y-24222000D01*
X37555000Y-24222000D02*
X37555000Y-23460000D01*
X37555000Y-23460000D02*
X37428000Y-23206000D01*
X37428000Y-23206000D02*
X37301000Y-23206000D01*
X37301000Y-23206000D02*
X37428000Y-24222000D01*
G36*
X37555000Y-23460000D02*
G01*
X37555000Y-24222000D01*
X37428000Y-24222000D01*
X37301000Y-23206000D01*
X37428000Y-23206000D01*
X37555000Y-23460000D01*
G37*
X37555000Y-23460000D02*
X37555000Y-24222000D01*
X37428000Y-24222000D01*
X37301000Y-23206000D01*
X37428000Y-23206000D01*
X37555000Y-23460000D01*
X15269000Y-26000000D02*
X15269000Y-26381000D01*
X15269000Y-26381000D02*
X15523000Y-26635000D01*
X15523000Y-26635000D02*
X21492000Y-26762000D01*
X21492000Y-26762000D02*
X22254000Y-26635000D01*
X22254000Y-26635000D02*
X22000000Y-26000000D01*
X22000000Y-26000000D02*
X18317000Y-25873000D01*
X18317000Y-25873000D02*
X15269000Y-26000000D01*
G36*
X22000000Y-26000000D02*
G01*
X22254000Y-26635000D01*
X21492000Y-26762000D01*
X15523000Y-26635000D01*
X15269000Y-26381000D01*
X15269000Y-26000000D01*
X18317000Y-25873000D01*
X22000000Y-26000000D01*
G37*
X22000000Y-26000000D02*
X22254000Y-26635000D01*
X21492000Y-26762000D01*
X15523000Y-26635000D01*
X15269000Y-26381000D01*
X15269000Y-26000000D01*
X18317000Y-25873000D01*
X22000000Y-26000000D01*
X36412000Y-26762000D02*
X36793000Y-27143000D01*
X36793000Y-27143000D02*
X38317000Y-27016000D01*
X38317000Y-27016000D02*
X38571000Y-26889000D01*
X38571000Y-26889000D02*
X38825000Y-26508000D01*
X38825000Y-26508000D02*
X38825000Y-26000000D01*
X38825000Y-26000000D02*
X38952000Y-25238000D01*
X38952000Y-25238000D02*
X38317000Y-24730000D01*
X38317000Y-24730000D02*
X36920000Y-24730000D01*
X36920000Y-24730000D02*
X36412000Y-25238000D01*
X36412000Y-25238000D02*
X36412000Y-26762000D01*
G36*
X38952000Y-25238000D02*
G01*
X38825000Y-26000000D01*
X38825000Y-26508000D01*
X38571000Y-26889000D01*
X38317000Y-27016000D01*
X36793000Y-27143000D01*
X36412000Y-26762000D01*
X36412000Y-25238000D01*
X36920000Y-24730000D01*
X38317000Y-24730000D01*
X38952000Y-25238000D01*
G37*
X38952000Y-25238000D02*
X38825000Y-26000000D01*
X38825000Y-26508000D01*
X38571000Y-26889000D01*
X38317000Y-27016000D01*
X36793000Y-27143000D01*
X36412000Y-26762000D01*
X36412000Y-25238000D01*
X36920000Y-24730000D01*
X38317000Y-24730000D01*
X38952000Y-25238000D01*
X34634000Y-27935655D02*
X34634000Y-28159000D01*
X34634000Y-28159000D02*
X35269000Y-27905000D01*
X35269000Y-27905000D02*
X36031000Y-27427655D01*
X36031000Y-27427655D02*
X36158000Y-27270000D01*
X36158000Y-27270000D02*
X35904000Y-27173655D01*
X35904000Y-27173655D02*
X34634000Y-27935655D01*
G36*
X36158000Y-27270000D02*
G01*
X36031000Y-27427655D01*
X35269000Y-27905000D01*
X34634000Y-28159000D01*
X34634000Y-27935655D01*
X35904000Y-27173655D01*
X36158000Y-27270000D01*
G37*
X36158000Y-27270000D02*
X36031000Y-27427655D01*
X35269000Y-27905000D01*
X34634000Y-28159000D01*
X34634000Y-27935655D01*
X35904000Y-27173655D01*
X36158000Y-27270000D01*
X15644181Y-24189237D02*
X15136181Y-24443237D01*
X15136181Y-24443237D02*
X15517181Y-24824237D01*
X15517181Y-24824237D02*
X21359181Y-24697237D01*
X21359181Y-24697237D02*
X22375181Y-24443237D01*
X22375181Y-24443237D02*
X22375181Y-24062237D01*
X22375181Y-24062237D02*
X21613181Y-23935237D01*
X21613181Y-23935237D02*
X15644181Y-24189237D01*
G36*
X22375181Y-24062237D02*
G01*
X22375181Y-24443237D01*
X21359181Y-24697237D01*
X15517181Y-24824237D01*
X15136181Y-24443237D01*
X15644181Y-24189237D01*
X21613181Y-23935237D01*
X22375181Y-24062237D01*
G37*
X22375181Y-24062237D02*
X22375181Y-24443237D01*
X21359181Y-24697237D01*
X15517181Y-24824237D01*
X15136181Y-24443237D01*
X15644181Y-24189237D01*
X21613181Y-23935237D01*
X22375181Y-24062237D01*
X55523000Y-23714000D02*
X55777000Y-23714000D01*
X55777000Y-23714000D02*
X55777000Y-23841000D01*
X55777000Y-23841000D02*
X55650000Y-24095000D01*
X55650000Y-24095000D02*
X52856000Y-24095000D01*
X52856000Y-24095000D02*
X52729000Y-24222000D01*
X52729000Y-24222000D02*
X52729000Y-24476000D01*
X52729000Y-24476000D02*
X59333000Y-24603000D01*
X59333000Y-24603000D02*
X59460000Y-24476000D01*
X59460000Y-24476000D02*
X58952000Y-24222000D01*
X58952000Y-24222000D02*
X56793000Y-24095000D01*
X56793000Y-24095000D02*
X56539000Y-24095000D01*
X56539000Y-24095000D02*
X56158000Y-24095000D01*
X56158000Y-24095000D02*
X56031000Y-23714000D01*
X56031000Y-23714000D02*
X56539000Y-23714000D01*
X56539000Y-23714000D02*
X56666000Y-23460000D01*
X56666000Y-23460000D02*
X55396000Y-23460000D01*
X55396000Y-23460000D02*
X55523000Y-23714000D01*
G36*
X56539000Y-23714000D02*
G01*
X56031000Y-23714000D01*
X56158000Y-24095000D01*
X56793000Y-24095000D01*
X58952000Y-24222000D01*
X59460000Y-24476000D01*
X59333000Y-24603000D01*
X52729000Y-24476000D01*
X52729000Y-24222000D01*
X52856000Y-24095000D01*
X55650000Y-24095000D01*
X55777000Y-23841000D01*
X55777000Y-23714000D01*
X55523000Y-23714000D01*
X55396000Y-23460000D01*
X56666000Y-23460000D01*
X56539000Y-23714000D01*
G37*
X56539000Y-23714000D02*
X56031000Y-23714000D01*
X56158000Y-24095000D01*
X56793000Y-24095000D01*
X58952000Y-24222000D01*
X59460000Y-24476000D01*
X59333000Y-24603000D01*
X52729000Y-24476000D01*
X52729000Y-24222000D01*
X52856000Y-24095000D01*
X55650000Y-24095000D01*
X55777000Y-23841000D01*
X55777000Y-23714000D01*
X55523000Y-23714000D01*
X55396000Y-23460000D01*
X56666000Y-23460000D01*
X56539000Y-23714000D01*
X73698000Y-23476000D02*
X73317000Y-24873000D01*
X73317000Y-24873000D02*
X73317000Y-26143000D01*
X73317000Y-26143000D02*
X72555000Y-26270000D01*
X72555000Y-26270000D02*
X72174000Y-26397000D01*
X72174000Y-26397000D02*
X72174000Y-27032000D01*
X72174000Y-27032000D02*
X72555000Y-27159000D01*
X72555000Y-27159000D02*
X72809000Y-27286000D01*
X72809000Y-27286000D02*
X73444000Y-27286000D01*
X73444000Y-27286000D02*
X74460000Y-27286000D01*
X74460000Y-27286000D02*
X74460000Y-27794000D01*
X74460000Y-27794000D02*
X74587000Y-28175000D01*
X74587000Y-28175000D02*
X74333000Y-28429000D01*
X74333000Y-28429000D02*
X74333000Y-28683000D01*
X74333000Y-28683000D02*
X74460000Y-28937000D01*
X74460000Y-28937000D02*
X74714000Y-29064000D01*
X74714000Y-29064000D02*
X74968000Y-28937000D01*
X74968000Y-28937000D02*
X75222000Y-28683000D01*
X75222000Y-28683000D02*
X75095000Y-28302000D01*
X75095000Y-28302000D02*
X74841000Y-28048000D01*
X74841000Y-28048000D02*
X74841000Y-27286000D01*
X74841000Y-27286000D02*
X76746000Y-27159000D01*
X76746000Y-27159000D02*
X77762000Y-27032000D01*
X77762000Y-27032000D02*
X77762000Y-26524000D01*
X77762000Y-26524000D02*
X76619000Y-25889000D01*
X76619000Y-25889000D02*
X76365000Y-23730000D01*
X76365000Y-23730000D02*
X76111000Y-22968000D01*
X76111000Y-22968000D02*
X74587000Y-22714000D01*
X74587000Y-22714000D02*
X73698000Y-23476000D01*
G36*
X76111000Y-22968000D02*
G01*
X76365000Y-23730000D01*
X76619000Y-25889000D01*
X77762000Y-26524000D01*
X77762000Y-27032000D01*
X76746000Y-27159000D01*
X74841000Y-27286000D01*
X74841000Y-28048000D01*
X75095000Y-28302000D01*
X75222000Y-28683000D01*
X74968000Y-28937000D01*
X74714000Y-29064000D01*
X74460000Y-28937000D01*
X74333000Y-28683000D01*
X74333000Y-28429000D01*
X74587000Y-28175000D01*
X74460000Y-27794000D01*
X74460000Y-27286000D01*
X72809000Y-27286000D01*
X72555000Y-27159000D01*
X72174000Y-27032000D01*
X72174000Y-26397000D01*
X72555000Y-26270000D01*
X73317000Y-26143000D01*
X73317000Y-24873000D01*
X73698000Y-23476000D01*
X74587000Y-22714000D01*
X76111000Y-22968000D01*
G37*
X76111000Y-22968000D02*
X76365000Y-23730000D01*
X76619000Y-25889000D01*
X77762000Y-26524000D01*
X77762000Y-27032000D01*
X76746000Y-27159000D01*
X74841000Y-27286000D01*
X74841000Y-28048000D01*
X75095000Y-28302000D01*
X75222000Y-28683000D01*
X74968000Y-28937000D01*
X74714000Y-29064000D01*
X74460000Y-28937000D01*
X74333000Y-28683000D01*
X74333000Y-28429000D01*
X74587000Y-28175000D01*
X74460000Y-27794000D01*
X74460000Y-27286000D01*
X72809000Y-27286000D01*
X72555000Y-27159000D01*
X72174000Y-27032000D01*
X72174000Y-26397000D01*
X72555000Y-26270000D01*
X73317000Y-26143000D01*
X73317000Y-24873000D01*
X73698000Y-23476000D01*
X74587000Y-22714000D01*
X76111000Y-22968000D01*
X52729000Y-25746000D02*
X51967000Y-25746000D01*
X51967000Y-25746000D02*
X51713000Y-26000000D01*
X51713000Y-26000000D02*
X51840000Y-26254000D01*
X51840000Y-26254000D02*
X52729000Y-26635000D01*
X52729000Y-26635000D02*
X52729000Y-27524000D01*
X52729000Y-27524000D02*
X52856000Y-27778000D01*
X52856000Y-27778000D02*
X53110000Y-28159000D01*
X53110000Y-28159000D02*
X56031000Y-28286000D01*
X56031000Y-28286000D02*
X58698000Y-28286000D01*
X58698000Y-28286000D02*
X59079000Y-26762000D01*
X59079000Y-26762000D02*
X59968000Y-26508000D01*
X59968000Y-26508000D02*
X60349000Y-26127000D01*
X60349000Y-26127000D02*
X60095000Y-25873000D01*
X60095000Y-25873000D02*
X59206000Y-25873000D01*
X59206000Y-25873000D02*
X59206000Y-25746000D01*
X59206000Y-25746000D02*
X59333000Y-24984000D01*
X59333000Y-24984000D02*
X56412000Y-25111000D01*
X56412000Y-25111000D02*
X54507000Y-24984000D01*
X54507000Y-24984000D02*
X52729000Y-24984000D01*
X52729000Y-24984000D02*
X52729000Y-25746000D01*
G36*
X56412000Y-25111000D02*
G01*
X59333000Y-24984000D01*
X59206000Y-25746000D01*
X59206000Y-25873000D01*
X60095000Y-25873000D01*
X60349000Y-26127000D01*
X59968000Y-26508000D01*
X59079000Y-26762000D01*
X58698000Y-28286000D01*
X56031000Y-28286000D01*
X53110000Y-28159000D01*
X52856000Y-27778000D01*
X52729000Y-27524000D01*
X52729000Y-26635000D01*
X51840000Y-26254000D01*
X51713000Y-26000000D01*
X51967000Y-25746000D01*
X52729000Y-25746000D01*
X52729000Y-24984000D01*
X54507000Y-24984000D01*
X56412000Y-25111000D01*
G37*
X56412000Y-25111000D02*
X59333000Y-24984000D01*
X59206000Y-25746000D01*
X59206000Y-25873000D01*
X60095000Y-25873000D01*
X60349000Y-26127000D01*
X59968000Y-26508000D01*
X59079000Y-26762000D01*
X58698000Y-28286000D01*
X56031000Y-28286000D01*
X53110000Y-28159000D01*
X52856000Y-27778000D01*
X52729000Y-27524000D01*
X52729000Y-26635000D01*
X51840000Y-26254000D01*
X51713000Y-26000000D01*
X51967000Y-25746000D01*
X52729000Y-25746000D01*
X52729000Y-24984000D01*
X54507000Y-24984000D01*
X56412000Y-25111000D01*
X39206000Y-25492000D02*
X39333000Y-25619000D01*
X39333000Y-25619000D02*
X40222000Y-25746000D01*
X40222000Y-25746000D02*
X40984000Y-25746000D01*
X40984000Y-25746000D02*
X40984000Y-25492000D01*
X40984000Y-25492000D02*
X40476000Y-25365000D01*
X40476000Y-25365000D02*
X39206000Y-25492000D01*
G36*
X40984000Y-25492000D02*
G01*
X40984000Y-25746000D01*
X40222000Y-25746000D01*
X39333000Y-25619000D01*
X39206000Y-25492000D01*
X40476000Y-25365000D01*
X40984000Y-25492000D01*
G37*
X40984000Y-25492000D02*
X40984000Y-25746000D01*
X40222000Y-25746000D01*
X39333000Y-25619000D01*
X39206000Y-25492000D01*
X40476000Y-25365000D01*
X40984000Y-25492000D01*
X38698000Y-24476000D02*
X38825000Y-24476000D01*
X38825000Y-24476000D02*
X39206000Y-24349000D01*
X39206000Y-24349000D02*
X39460000Y-23460000D01*
X39460000Y-23460000D02*
X39333000Y-23460000D01*
X39333000Y-23460000D02*
X38698000Y-24476000D01*
G36*
X39206000Y-24349000D02*
G01*
X38825000Y-24476000D01*
X38698000Y-24476000D01*
X39333000Y-23460000D01*
X39460000Y-23460000D01*
X39206000Y-24349000D01*
G37*
X39206000Y-24349000D02*
X38825000Y-24476000D01*
X38698000Y-24476000D01*
X39333000Y-23460000D01*
X39460000Y-23460000D01*
X39206000Y-24349000D01*
X34634000Y-25873000D02*
X34634000Y-26000000D01*
X34634000Y-26000000D02*
X35396000Y-26000000D01*
X35396000Y-26000000D02*
X36158000Y-25873000D01*
X36158000Y-25873000D02*
X36031000Y-25746000D01*
X36031000Y-25746000D02*
X35269000Y-25619000D01*
X35269000Y-25619000D02*
X34634000Y-25873000D01*
G36*
X36031000Y-25746000D02*
G01*
X36158000Y-25873000D01*
X35396000Y-26000000D01*
X34634000Y-26000000D01*
X34634000Y-25873000D01*
X35269000Y-25619000D01*
X36031000Y-25746000D01*
G37*
X36031000Y-25746000D02*
X36158000Y-25873000D01*
X35396000Y-26000000D01*
X34634000Y-26000000D01*
X34634000Y-25873000D01*
X35269000Y-25619000D01*
X36031000Y-25746000D01*
D11*
X75849428Y-32030285D02*
X75506571Y-32030285D01*
X75335142Y-32116000D01*
X75163714Y-32287428D01*
X75078000Y-32630285D01*
X75078000Y-33230285D01*
X75163714Y-33573142D01*
X75335142Y-33744571D01*
X75506571Y-33830285D01*
X75849428Y-33830285D01*
X76020857Y-33744571D01*
X76192285Y-33573142D01*
X76278000Y-33230285D01*
X76278000Y-32630285D01*
X76192285Y-32287428D01*
X76020857Y-32116000D01*
X75849428Y-32030285D01*
X74306571Y-33830285D02*
X74306571Y-32030285D01*
X73278000Y-33830285D02*
X74049428Y-32801714D01*
X73278000Y-32030285D02*
X74306571Y-33058857D01*
X20026038Y-33214285D02*
X17740323Y-33214285D01*
X18883181Y-34357142D02*
X18883181Y-32071428D01*
X38761857Y-33087285D02*
X36476142Y-33087285D01*
X57856857Y-32871428D02*
X57256857Y-32871428D01*
X56999714Y-33814285D02*
X57856857Y-33814285D01*
X57856857Y-32014285D01*
X56999714Y-32014285D01*
X56314000Y-33728571D02*
X56056857Y-33814285D01*
X55628285Y-33814285D01*
X55456857Y-33728571D01*
X55371142Y-33642857D01*
X55285428Y-33471428D01*
X55285428Y-33300000D01*
X55371142Y-33128571D01*
X55456857Y-33042857D01*
X55628285Y-32957142D01*
X55971142Y-32871428D01*
X56142571Y-32785714D01*
X56228285Y-32700000D01*
X56314000Y-32528571D01*
X56314000Y-32357142D01*
X56228285Y-32185714D01*
X56142571Y-32100000D01*
X55971142Y-32014285D01*
X55542571Y-32014285D01*
X55285428Y-32100000D01*
X53485428Y-33642857D02*
X53571142Y-33728571D01*
X53828285Y-33814285D01*
X53999714Y-33814285D01*
X54256857Y-33728571D01*
X54428285Y-33557142D01*
X54514000Y-33385714D01*
X54599714Y-33042857D01*
X54599714Y-32785714D01*
X54514000Y-32442857D01*
X54428285Y-32271428D01*
X54256857Y-32100000D01*
X53999714Y-32014285D01*
X53828285Y-32014285D01*
X53571142Y-32100000D01*
X53485428Y-32185714D01*
D12*
%TO.C,BZ1*%
X86748695Y-35956942D02*
X85200504Y-35956942D01*
X85974600Y-36731038D02*
X85974600Y-35182847D01*
D10*
%TO.C,U3*%
X72802380Y-54715595D02*
X73611904Y-54715595D01*
X73707142Y-54763214D01*
X73754761Y-54810833D01*
X73802380Y-54906071D01*
X73802380Y-55096547D01*
X73754761Y-55191785D01*
X73707142Y-55239404D01*
X73611904Y-55287023D01*
X72802380Y-55287023D01*
X72802380Y-55667976D02*
X72802380Y-56287023D01*
X73183333Y-55953690D01*
X73183333Y-56096547D01*
X73230952Y-56191785D01*
X73278571Y-56239404D01*
X73373809Y-56287023D01*
X73611904Y-56287023D01*
X73707142Y-56239404D01*
X73754761Y-56191785D01*
X73802380Y-56096547D01*
X73802380Y-55810833D01*
X73754761Y-55715595D01*
X73707142Y-55667976D01*
%TO.C,BZ1*%
X91994400Y-43000000D02*
G75*
G03*
X91994400Y-43000000I-5994400J0D01*
G01*
%TO.C,U3*%
X57160000Y-54207500D02*
X57160000Y-49127500D01*
X48270000Y-55477500D02*
X49540000Y-54207500D01*
X31760000Y-49127500D02*
X31760000Y-54207500D01*
X60970000Y-54207500D02*
X60970000Y-49127500D01*
X36840000Y-40237500D02*
X35570000Y-41507500D01*
X54620000Y-41507500D02*
X55890000Y-40237500D01*
X58430000Y-49127500D02*
X58430000Y-54207500D01*
X31760000Y-49127500D02*
X33030000Y-47857500D01*
X55890000Y-47857500D02*
X57160000Y-46587500D01*
X54620000Y-56747500D02*
X55890000Y-55477500D01*
X35570000Y-49127500D02*
X35570000Y-54207500D01*
X49540000Y-49127500D02*
X48270000Y-47857500D01*
X31760000Y-54207500D02*
X33030000Y-55477500D01*
X55890000Y-55477500D02*
X54620000Y-54207500D01*
X25410000Y-55477500D02*
X26680000Y-54207500D01*
X59700000Y-55477500D02*
X60970000Y-56747500D01*
X34300000Y-46587500D02*
X34300000Y-41507500D01*
X38110000Y-54207500D02*
X38110000Y-49127500D01*
X57160000Y-49127500D02*
X55890000Y-47857500D01*
X49540000Y-46587500D02*
X49540000Y-41507500D01*
X47000000Y-41507500D02*
X47000000Y-46587500D01*
X24140000Y-41507500D02*
X24140000Y-46587500D01*
X26680000Y-54207500D02*
X26680000Y-49127500D01*
X26680000Y-46587500D02*
X25410000Y-47857500D01*
X58430000Y-55477500D02*
X57160000Y-55477500D01*
X33030000Y-47857500D02*
X34300000Y-46587500D01*
X59700000Y-55477500D02*
X60970000Y-54207500D01*
X34300000Y-41507500D02*
X33030000Y-40237500D01*
X31760000Y-56747500D02*
X33030000Y-55477500D01*
X38110000Y-56747500D02*
X43190000Y-56747500D01*
X47000000Y-54207500D02*
X48270000Y-55477500D01*
X55890000Y-47857500D02*
X54620000Y-49127500D01*
X68590000Y-49127500D02*
X67320000Y-47857500D01*
X45730000Y-56747500D02*
X47000000Y-56747500D01*
X38110000Y-41507500D02*
X36840000Y-40237500D01*
X44460000Y-47857500D02*
X45730000Y-46587500D01*
X48270000Y-55477500D02*
X49540000Y-56747500D01*
X38110000Y-46587500D02*
X38110000Y-41507500D01*
X43190000Y-38967500D02*
X38110000Y-38967500D01*
X57160000Y-56747500D02*
X58430000Y-56747500D01*
X67320000Y-47857500D02*
X66050000Y-46587500D01*
X35570000Y-41507500D02*
X35570000Y-46587500D01*
X58430000Y-56747500D02*
X58430000Y-55477500D01*
X60970000Y-54207500D02*
X59700000Y-55477500D01*
X55890000Y-47857500D02*
X54620000Y-46587500D01*
X58430000Y-54207500D02*
X59700000Y-55477500D01*
X60970000Y-49127500D02*
X66050000Y-49127500D01*
X48270000Y-40237500D02*
X47000000Y-41507500D01*
X31760000Y-46587500D02*
X33030000Y-47857500D01*
X26680000Y-56747500D02*
X31760000Y-56747500D01*
X60970000Y-41507500D02*
X66050000Y-41507500D01*
X43190000Y-54207500D02*
X44460000Y-55477500D01*
X36840000Y-40237500D02*
X38110000Y-41507500D01*
X31760000Y-54207500D02*
X26680000Y-54207500D01*
X38110000Y-38967500D02*
X36840000Y-40237500D01*
X35570000Y-56747500D02*
X35570000Y-55477500D01*
X48270000Y-47857500D02*
X49540000Y-46587500D01*
X49540000Y-46587500D02*
X48270000Y-47857500D01*
X66050000Y-56747500D02*
X67320000Y-55477500D01*
X36840000Y-47857500D02*
X38110000Y-49127500D01*
X43190000Y-46587500D02*
X44460000Y-47857500D01*
X55890000Y-40237500D02*
X54620000Y-41507500D01*
X68590000Y-54207500D02*
X68590000Y-49127500D01*
X45730000Y-49127500D02*
X44460000Y-47857500D01*
X45730000Y-41507500D02*
X44460000Y-40237500D01*
X33030000Y-40237500D02*
X31760000Y-41507500D01*
X33030000Y-47857500D02*
X31760000Y-46587500D01*
X26680000Y-46587500D02*
X26680000Y-41507500D01*
X44460000Y-55477500D02*
X43190000Y-54207500D01*
X67320000Y-40237500D02*
X66050000Y-38967500D01*
X25410000Y-47857500D02*
X26680000Y-49127500D01*
X59700000Y-40237500D02*
X58430000Y-41507500D01*
X54620000Y-54207500D02*
X55890000Y-55477500D01*
X26680000Y-49127500D02*
X25410000Y-47857500D01*
X44460000Y-40237500D02*
X43190000Y-38967500D01*
X26680000Y-41507500D02*
X25410000Y-40237500D01*
X49540000Y-41507500D02*
X54620000Y-41507500D01*
X59700000Y-47857500D02*
X58430000Y-49127500D01*
X35570000Y-46587500D02*
X36840000Y-47857500D01*
X25410000Y-55477500D02*
X26680000Y-56747500D01*
X33030000Y-40237500D02*
X31760000Y-38967500D01*
X58430000Y-41507500D02*
X58430000Y-46587500D01*
X45730000Y-46587500D02*
X45730000Y-41507500D01*
X33030000Y-55477500D02*
X34300000Y-54207500D01*
X54620000Y-41507500D02*
X54620000Y-46587500D01*
X43190000Y-41507500D02*
X43190000Y-46587500D01*
X60970000Y-46587500D02*
X60970000Y-41507500D01*
X67320000Y-47857500D02*
X66050000Y-49127500D01*
X54620000Y-49127500D02*
X55890000Y-47857500D01*
X43190000Y-49127500D02*
X43190000Y-54207500D01*
X49540000Y-54207500D02*
X48270000Y-55477500D01*
X48270000Y-47857500D02*
X47000000Y-49127500D01*
X67320000Y-40237500D02*
X66050000Y-41507500D01*
X66050000Y-54207500D02*
X67320000Y-55477500D01*
X59700000Y-47857500D02*
X60970000Y-46587500D01*
X66050000Y-54207500D02*
X60970000Y-54207500D01*
X43190000Y-56747500D02*
X44460000Y-55477500D01*
D13*
X72270000Y-57477500D02*
X21730000Y-57477500D01*
D10*
X59700000Y-47857500D02*
X60970000Y-49127500D01*
X59700000Y-40237500D02*
X60970000Y-41507500D01*
X66050000Y-38967500D02*
X60970000Y-38967500D01*
X25410000Y-47857500D02*
X24140000Y-49127500D01*
X26680000Y-38967500D02*
X25410000Y-40237500D01*
X36840000Y-55477500D02*
X38110000Y-54207500D01*
X57160000Y-41507500D02*
X55890000Y-40237500D01*
X66050000Y-46587500D02*
X67320000Y-47857500D01*
X49540000Y-38967500D02*
X48270000Y-40237500D01*
X60970000Y-49127500D02*
X59700000Y-47857500D01*
X36840000Y-55477500D02*
X38110000Y-56747500D01*
X33030000Y-55477500D02*
X31760000Y-54207500D01*
X33030000Y-47857500D02*
X31760000Y-49127500D01*
X49540000Y-54207500D02*
X49540000Y-49127500D01*
X38110000Y-41507500D02*
X43190000Y-41507500D01*
X26680000Y-54207500D02*
X25410000Y-55477500D01*
X66050000Y-41507500D02*
X66050000Y-46587500D01*
X22870000Y-56747500D02*
X24140000Y-56747500D01*
X58430000Y-46587500D02*
X59700000Y-47857500D01*
X66050000Y-41507500D02*
X67320000Y-40237500D01*
X49540000Y-49127500D02*
X54620000Y-49127500D01*
X47000000Y-56747500D02*
X47000000Y-55477500D01*
D13*
X21730000Y-38237500D02*
X72270000Y-38237500D01*
D10*
X57160000Y-55477500D02*
X57160000Y-56747500D01*
D13*
X21730000Y-57477500D02*
X21730000Y-38237500D01*
D10*
X54620000Y-38967500D02*
X49540000Y-38967500D01*
X47000000Y-49127500D02*
X47000000Y-54207500D01*
X38110000Y-46587500D02*
X36840000Y-47857500D01*
X24140000Y-46587500D02*
X25410000Y-47857500D01*
X54620000Y-46587500D02*
X55890000Y-47857500D01*
X35570000Y-55477500D02*
X34300000Y-55477500D01*
X60970000Y-38967500D02*
X59700000Y-40237500D01*
X31760000Y-41507500D02*
X31760000Y-46587500D01*
X66050000Y-49127500D02*
X66050000Y-54207500D01*
X26680000Y-49127500D02*
X31760000Y-49127500D01*
X43190000Y-46587500D02*
X38110000Y-46587500D01*
X68590000Y-41507500D02*
X67320000Y-40237500D01*
X49540000Y-56747500D02*
X54620000Y-56747500D01*
X48270000Y-47857500D02*
X49540000Y-49127500D01*
X55890000Y-40237500D02*
X54620000Y-38967500D01*
X31760000Y-38967500D02*
X26680000Y-38967500D01*
X67320000Y-55477500D02*
X68590000Y-54207500D01*
X44460000Y-55477500D02*
X45730000Y-54207500D01*
X67320000Y-55477500D02*
X66050000Y-54207500D01*
X24140000Y-49127500D02*
X24140000Y-54207500D01*
X34300000Y-55477500D02*
X34300000Y-56747500D01*
X36840000Y-47857500D02*
X35570000Y-49127500D01*
D13*
X54350000Y-57857500D02*
X52350000Y-57857500D01*
D10*
X47000000Y-55477500D02*
X45730000Y-55477500D01*
X54620000Y-54207500D02*
X49540000Y-54207500D01*
X43190000Y-54207500D02*
X38110000Y-54207500D01*
X35570000Y-54207500D02*
X36840000Y-55477500D01*
X57160000Y-46587500D02*
X57160000Y-41507500D01*
X45730000Y-54207500D02*
X45730000Y-49127500D01*
X25410000Y-40237500D02*
X24140000Y-41507500D01*
X44460000Y-47857500D02*
X43190000Y-49127500D01*
X67320000Y-47857500D02*
X68590000Y-46587500D01*
X48270000Y-40237500D02*
X49540000Y-41507500D01*
X45730000Y-55477500D02*
X45730000Y-56747500D01*
X24140000Y-56747500D02*
X24140000Y-55477500D01*
X26680000Y-41507500D02*
X31760000Y-41507500D01*
X49540000Y-41507500D02*
X48270000Y-40237500D01*
X31760000Y-41507500D02*
X33030000Y-40237500D01*
X66050000Y-46587500D02*
X60970000Y-46587500D01*
X54620000Y-49127500D02*
X54620000Y-54207500D01*
X34300000Y-56747500D02*
X35570000Y-56747500D01*
X55890000Y-55477500D02*
X57160000Y-54207500D01*
X36840000Y-47857500D02*
X38110000Y-46587500D01*
X22870000Y-55477500D02*
X22870000Y-56747500D01*
X38110000Y-49127500D02*
X43190000Y-49127500D01*
X25410000Y-47857500D02*
X26680000Y-46587500D01*
X24140000Y-54207500D02*
X25410000Y-55477500D01*
X60970000Y-56747500D02*
X66050000Y-56747500D01*
X24140000Y-55477500D02*
X22870000Y-55477500D01*
X34300000Y-49127500D02*
X33030000Y-47857500D01*
X34300000Y-54207500D02*
X34300000Y-49127500D01*
X44460000Y-47857500D02*
X43190000Y-46587500D01*
X47000000Y-46587500D02*
X48270000Y-47857500D01*
D13*
X72270000Y-57477500D02*
X72270000Y-38237500D01*
D10*
X60970000Y-41507500D02*
X59700000Y-40237500D01*
X43190000Y-49127500D02*
X44460000Y-47857500D01*
X25410000Y-40237500D02*
X26680000Y-41507500D01*
X31760000Y-46587500D02*
X26680000Y-46587500D01*
X44460000Y-40237500D02*
X43190000Y-41507500D01*
X43190000Y-41507500D02*
X44460000Y-40237500D01*
X38110000Y-54207500D02*
X36840000Y-55477500D01*
X54620000Y-46587500D02*
X49540000Y-46587500D01*
X38110000Y-49127500D02*
X36840000Y-47857500D01*
X60970000Y-46587500D02*
X59700000Y-47857500D01*
X66050000Y-49127500D02*
X67320000Y-47857500D01*
X68590000Y-46587500D02*
X68590000Y-41507500D01*
%TD*%
M02*
