%TF.GenerationSoftware,KiCad,Pcbnew,(6.0.0)*%
%TF.CreationDate,2023-05-06T18:39:40-07:00*%
%TF.ProjectId,digital_clock_v3,64696769-7461-46c5-9f63-6c6f636b5f76,rev?*%
%TF.SameCoordinates,Original*%
%TF.FileFunction,Legend,Top*%
%TF.FilePolarity,Positive*%
%FSLAX46Y46*%
G04 Gerber Fmt 4.6, Leading zero omitted, Abs format (unit mm)*
G04 Created by KiCad (PCBNEW (6.0.0)) date 2023-05-06 18:39:40*
%MOMM*%
%LPD*%
G01*
G04 APERTURE LIST*
%ADD10C,0.150000*%
%ADD11C,0.254000*%
%ADD12C,0.120000*%
G04 APERTURE END LIST*
D10*
X1751666Y-37712023D02*
X1751666Y-37235833D01*
X2037380Y-37807261D02*
X1037380Y-37473928D01*
X2037380Y-37140595D01*
X2037380Y-36664404D02*
X1989761Y-36759642D01*
X1894523Y-36807261D01*
X1037380Y-36807261D01*
X2037380Y-35854880D02*
X1513571Y-35854880D01*
X1418333Y-35902500D01*
X1370714Y-35997738D01*
X1370714Y-36188214D01*
X1418333Y-36283452D01*
X1989761Y-35854880D02*
X2037380Y-35950119D01*
X2037380Y-36188214D01*
X1989761Y-36283452D01*
X1894523Y-36331071D01*
X1799285Y-36331071D01*
X1704047Y-36283452D01*
X1656428Y-36188214D01*
X1656428Y-35950119D01*
X1608809Y-35854880D01*
X2037380Y-35378690D02*
X1370714Y-35378690D01*
X1561190Y-35378690D02*
X1465952Y-35331071D01*
X1418333Y-35283452D01*
X1370714Y-35188214D01*
X1370714Y-35092976D01*
X2037380Y-34759642D02*
X1370714Y-34759642D01*
X1465952Y-34759642D02*
X1418333Y-34712023D01*
X1370714Y-34616785D01*
X1370714Y-34473928D01*
X1418333Y-34378690D01*
X1513571Y-34331071D01*
X2037380Y-34331071D01*
X1513571Y-34331071D02*
X1418333Y-34283452D01*
X1370714Y-34188214D01*
X1370714Y-34045357D01*
X1418333Y-33950119D01*
X1513571Y-33902500D01*
X2037380Y-33902500D01*
X1942142Y-32092976D02*
X1989761Y-32140595D01*
X2037380Y-32283452D01*
X2037380Y-32378690D01*
X1989761Y-32521547D01*
X1894523Y-32616785D01*
X1799285Y-32664404D01*
X1608809Y-32712023D01*
X1465952Y-32712023D01*
X1275476Y-32664404D01*
X1180238Y-32616785D01*
X1085000Y-32521547D01*
X1037380Y-32378690D01*
X1037380Y-32283452D01*
X1085000Y-32140595D01*
X1132619Y-32092976D01*
X2037380Y-31521547D02*
X1989761Y-31616785D01*
X1894523Y-31664404D01*
X1037380Y-31664404D01*
X2037380Y-30997738D02*
X1989761Y-31092976D01*
X1942142Y-31140595D01*
X1846904Y-31188214D01*
X1561190Y-31188214D01*
X1465952Y-31140595D01*
X1418333Y-31092976D01*
X1370714Y-30997738D01*
X1370714Y-30854880D01*
X1418333Y-30759642D01*
X1465952Y-30712023D01*
X1561190Y-30664404D01*
X1846904Y-30664404D01*
X1942142Y-30712023D01*
X1989761Y-30759642D01*
X2037380Y-30854880D01*
X2037380Y-30997738D01*
X1989761Y-29807261D02*
X2037380Y-29902500D01*
X2037380Y-30092976D01*
X1989761Y-30188214D01*
X1942142Y-30235833D01*
X1846904Y-30283452D01*
X1561190Y-30283452D01*
X1465952Y-30235833D01*
X1418333Y-30188214D01*
X1370714Y-30092976D01*
X1370714Y-29902500D01*
X1418333Y-29807261D01*
X2037380Y-29378690D02*
X1037380Y-29378690D01*
X1656428Y-29283452D02*
X2037380Y-28997738D01*
X1370714Y-28997738D02*
X1751666Y-29378690D01*
X1370714Y-27902500D02*
X2037380Y-27664404D01*
X1370714Y-27426309D01*
X1132619Y-27092976D02*
X1085000Y-27045357D01*
X1037380Y-26950119D01*
X1037380Y-26712023D01*
X1085000Y-26616785D01*
X1132619Y-26569166D01*
X1227857Y-26521547D01*
X1323095Y-26521547D01*
X1465952Y-26569166D01*
X2037380Y-27140595D01*
X2037380Y-26521547D01*
X1942142Y-26092976D02*
X1989761Y-26045357D01*
X2037380Y-26092976D01*
X1989761Y-26140595D01*
X1942142Y-26092976D01*
X2037380Y-26092976D01*
X1037380Y-25426309D02*
X1037380Y-25331071D01*
X1085000Y-25235833D01*
X1132619Y-25188214D01*
X1227857Y-25140595D01*
X1418333Y-25092976D01*
X1656428Y-25092976D01*
X1846904Y-25140595D01*
X1942142Y-25188214D01*
X1989761Y-25235833D01*
X2037380Y-25331071D01*
X2037380Y-25426309D01*
X1989761Y-25521547D01*
X1942142Y-25569166D01*
X1846904Y-25616785D01*
X1656428Y-25664404D01*
X1418333Y-25664404D01*
X1227857Y-25616785D01*
X1132619Y-25569166D01*
X1085000Y-25521547D01*
X1037380Y-25426309D01*
X1132619Y-23950119D02*
X1085000Y-23902500D01*
X1037380Y-23807261D01*
X1037380Y-23569166D01*
X1085000Y-23473928D01*
X1132619Y-23426309D01*
X1227857Y-23378690D01*
X1323095Y-23378690D01*
X1465952Y-23426309D01*
X2037380Y-23997738D01*
X2037380Y-23378690D01*
X1037380Y-22759642D02*
X1037380Y-22664404D01*
X1085000Y-22569166D01*
X1132619Y-22521547D01*
X1227857Y-22473928D01*
X1418333Y-22426309D01*
X1656428Y-22426309D01*
X1846904Y-22473928D01*
X1942142Y-22521547D01*
X1989761Y-22569166D01*
X2037380Y-22664404D01*
X2037380Y-22759642D01*
X1989761Y-22854880D01*
X1942142Y-22902500D01*
X1846904Y-22950119D01*
X1656428Y-22997738D01*
X1418333Y-22997738D01*
X1227857Y-22950119D01*
X1132619Y-22902500D01*
X1085000Y-22854880D01*
X1037380Y-22759642D01*
X1132619Y-22045357D02*
X1085000Y-21997738D01*
X1037380Y-21902500D01*
X1037380Y-21664404D01*
X1085000Y-21569166D01*
X1132619Y-21521547D01*
X1227857Y-21473928D01*
X1323095Y-21473928D01*
X1465952Y-21521547D01*
X2037380Y-22092976D01*
X2037380Y-21473928D01*
X1037380Y-21140595D02*
X1037380Y-20521547D01*
X1418333Y-20854880D01*
X1418333Y-20712023D01*
X1465952Y-20616785D01*
X1513571Y-20569166D01*
X1608809Y-20521547D01*
X1846904Y-20521547D01*
X1942142Y-20569166D01*
X1989761Y-20616785D01*
X2037380Y-20712023D01*
X2037380Y-20997738D01*
X1989761Y-21092976D01*
X1942142Y-21140595D01*
X1656428Y-20092976D02*
X1656428Y-19331071D01*
X1037380Y-18664404D02*
X1037380Y-18569166D01*
X1085000Y-18473928D01*
X1132619Y-18426309D01*
X1227857Y-18378690D01*
X1418333Y-18331071D01*
X1656428Y-18331071D01*
X1846904Y-18378690D01*
X1942142Y-18426309D01*
X1989761Y-18473928D01*
X2037380Y-18569166D01*
X2037380Y-18664404D01*
X1989761Y-18759642D01*
X1942142Y-18807261D01*
X1846904Y-18854880D01*
X1656428Y-18902500D01*
X1418333Y-18902500D01*
X1227857Y-18854880D01*
X1132619Y-18807261D01*
X1085000Y-18759642D01*
X1037380Y-18664404D01*
X1132619Y-17950119D02*
X1085000Y-17902500D01*
X1037380Y-17807261D01*
X1037380Y-17569166D01*
X1085000Y-17473928D01*
X1132619Y-17426309D01*
X1227857Y-17378690D01*
X1323095Y-17378690D01*
X1465952Y-17426309D01*
X2037380Y-17997738D01*
X2037380Y-17378690D01*
X3647380Y-37235833D02*
X3123571Y-37235833D01*
X3028333Y-37283452D01*
X2980714Y-37378690D01*
X2980714Y-37569166D01*
X3028333Y-37664404D01*
X3599761Y-37235833D02*
X3647380Y-37331071D01*
X3647380Y-37569166D01*
X3599761Y-37664404D01*
X3504523Y-37712023D01*
X3409285Y-37712023D01*
X3314047Y-37664404D01*
X3266428Y-37569166D01*
X3266428Y-37331071D01*
X3218809Y-37235833D01*
X3647380Y-36759642D02*
X2980714Y-36759642D01*
X3075952Y-36759642D02*
X3028333Y-36712023D01*
X2980714Y-36616785D01*
X2980714Y-36473928D01*
X3028333Y-36378690D01*
X3123571Y-36331071D01*
X3647380Y-36331071D01*
X3123571Y-36331071D02*
X3028333Y-36283452D01*
X2980714Y-36188214D01*
X2980714Y-36045357D01*
X3028333Y-35950119D01*
X3123571Y-35902500D01*
X3647380Y-35902500D01*
X3599761Y-35045357D02*
X3647380Y-35140595D01*
X3647380Y-35331071D01*
X3599761Y-35426309D01*
X3504523Y-35473928D01*
X3123571Y-35473928D01*
X3028333Y-35426309D01*
X2980714Y-35331071D01*
X2980714Y-35140595D01*
X3028333Y-35045357D01*
X3123571Y-34997738D01*
X3218809Y-34997738D01*
X3314047Y-35473928D01*
X3647380Y-34569166D02*
X2980714Y-34569166D01*
X2647380Y-34569166D02*
X2695000Y-34616785D01*
X2742619Y-34569166D01*
X2695000Y-34521547D01*
X2647380Y-34569166D01*
X2742619Y-34569166D01*
X2980714Y-34092976D02*
X3837857Y-34092976D01*
X3933095Y-34140595D01*
X3980714Y-34235833D01*
X3980714Y-34283452D01*
X2647380Y-34092976D02*
X2695000Y-34140595D01*
X2742619Y-34092976D01*
X2695000Y-34045357D01*
X2647380Y-34092976D01*
X2742619Y-34092976D01*
X3599761Y-33235833D02*
X3647380Y-33331071D01*
X3647380Y-33521547D01*
X3599761Y-33616785D01*
X3504523Y-33664404D01*
X3123571Y-33664404D01*
X3028333Y-33616785D01*
X2980714Y-33521547D01*
X2980714Y-33331071D01*
X3028333Y-33235833D01*
X3123571Y-33188214D01*
X3218809Y-33188214D01*
X3314047Y-33664404D01*
X3552142Y-32759642D02*
X3599761Y-32712023D01*
X3647380Y-32759642D01*
X3599761Y-32807261D01*
X3552142Y-32759642D01*
X3647380Y-32759642D01*
X3599761Y-31854880D02*
X3647380Y-31950119D01*
X3647380Y-32140595D01*
X3599761Y-32235833D01*
X3552142Y-32283452D01*
X3456904Y-32331071D01*
X3171190Y-32331071D01*
X3075952Y-32283452D01*
X3028333Y-32235833D01*
X2980714Y-32140595D01*
X2980714Y-31950119D01*
X3028333Y-31854880D01*
X3647380Y-31283452D02*
X3599761Y-31378690D01*
X3552142Y-31426309D01*
X3456904Y-31473928D01*
X3171190Y-31473928D01*
X3075952Y-31426309D01*
X3028333Y-31378690D01*
X2980714Y-31283452D01*
X2980714Y-31140595D01*
X3028333Y-31045357D01*
X3075952Y-30997738D01*
X3171190Y-30950119D01*
X3456904Y-30950119D01*
X3552142Y-30997738D01*
X3599761Y-31045357D01*
X3647380Y-31140595D01*
X3647380Y-31283452D01*
X3647380Y-30521547D02*
X2980714Y-30521547D01*
X3075952Y-30521547D02*
X3028333Y-30473928D01*
X2980714Y-30378690D01*
X2980714Y-30235833D01*
X3028333Y-30140595D01*
X3123571Y-30092976D01*
X3647380Y-30092976D01*
X3123571Y-30092976D02*
X3028333Y-30045357D01*
X2980714Y-29950119D01*
X2980714Y-29807261D01*
X3028333Y-29712023D01*
X3123571Y-29664404D01*
X3647380Y-29664404D01*
X5257380Y-37664404D02*
X4257380Y-37664404D01*
X4257380Y-37283452D01*
X4305000Y-37188214D01*
X4352619Y-37140595D01*
X4447857Y-37092976D01*
X4590714Y-37092976D01*
X4685952Y-37140595D01*
X4733571Y-37188214D01*
X4781190Y-37283452D01*
X4781190Y-37664404D01*
X5257380Y-36664404D02*
X4590714Y-36664404D01*
X4781190Y-36664404D02*
X4685952Y-36616785D01*
X4638333Y-36569166D01*
X4590714Y-36473928D01*
X4590714Y-36378690D01*
X5257380Y-35902500D02*
X5209761Y-35997738D01*
X5162142Y-36045357D01*
X5066904Y-36092976D01*
X4781190Y-36092976D01*
X4685952Y-36045357D01*
X4638333Y-35997738D01*
X4590714Y-35902500D01*
X4590714Y-35759642D01*
X4638333Y-35664404D01*
X4685952Y-35616785D01*
X4781190Y-35569166D01*
X5066904Y-35569166D01*
X5162142Y-35616785D01*
X5209761Y-35664404D01*
X5257380Y-35759642D01*
X5257380Y-35902500D01*
X4590714Y-35140595D02*
X5447857Y-35140595D01*
X5543095Y-35188214D01*
X5590714Y-35283452D01*
X5590714Y-35331071D01*
X4257380Y-35140595D02*
X4305000Y-35188214D01*
X4352619Y-35140595D01*
X4305000Y-35092976D01*
X4257380Y-35140595D01*
X4352619Y-35140595D01*
X5209761Y-34283452D02*
X5257380Y-34378690D01*
X5257380Y-34569166D01*
X5209761Y-34664404D01*
X5114523Y-34712023D01*
X4733571Y-34712023D01*
X4638333Y-34664404D01*
X4590714Y-34569166D01*
X4590714Y-34378690D01*
X4638333Y-34283452D01*
X4733571Y-34235833D01*
X4828809Y-34235833D01*
X4924047Y-34712023D01*
X5209761Y-33378690D02*
X5257380Y-33473928D01*
X5257380Y-33664404D01*
X5209761Y-33759642D01*
X5162142Y-33807261D01*
X5066904Y-33854880D01*
X4781190Y-33854880D01*
X4685952Y-33807261D01*
X4638333Y-33759642D01*
X4590714Y-33664404D01*
X4590714Y-33473928D01*
X4638333Y-33378690D01*
X4590714Y-33092976D02*
X4590714Y-32712023D01*
X4257380Y-32950119D02*
X5114523Y-32950119D01*
X5209761Y-32902500D01*
X5257380Y-32807261D01*
X5257380Y-32712023D01*
X4590714Y-31759642D02*
X4590714Y-31378690D01*
X5257380Y-31616785D02*
X4400238Y-31616785D01*
X4305000Y-31569166D01*
X4257380Y-31473928D01*
X4257380Y-31378690D01*
X5257380Y-30902500D02*
X5209761Y-30997738D01*
X5162142Y-31045357D01*
X5066904Y-31092976D01*
X4781190Y-31092976D01*
X4685952Y-31045357D01*
X4638333Y-30997738D01*
X4590714Y-30902500D01*
X4590714Y-30759642D01*
X4638333Y-30664404D01*
X4685952Y-30616785D01*
X4781190Y-30569166D01*
X5066904Y-30569166D01*
X5162142Y-30616785D01*
X5209761Y-30664404D01*
X5257380Y-30759642D01*
X5257380Y-30902500D01*
X5257380Y-30140595D02*
X4590714Y-30140595D01*
X4781190Y-30140595D02*
X4685952Y-30092976D01*
X4638333Y-30045357D01*
X4590714Y-29950119D01*
X4590714Y-29854880D01*
X5257380Y-28283452D02*
X5257380Y-28759642D01*
X4257380Y-28759642D01*
X4590714Y-27521547D02*
X5257380Y-27521547D01*
X4590714Y-27950119D02*
X5114523Y-27950119D01*
X5209761Y-27902500D01*
X5257380Y-27807261D01*
X5257380Y-27664404D01*
X5209761Y-27569166D01*
X5162142Y-27521547D01*
X5209761Y-26616785D02*
X5257380Y-26712023D01*
X5257380Y-26902500D01*
X5209761Y-26997738D01*
X5162142Y-27045357D01*
X5066904Y-27092976D01*
X4781190Y-27092976D01*
X4685952Y-27045357D01*
X4638333Y-26997738D01*
X4590714Y-26902500D01*
X4590714Y-26712023D01*
X4638333Y-26616785D01*
X5257380Y-26188214D02*
X4590714Y-26188214D01*
X4257380Y-26188214D02*
X4305000Y-26235833D01*
X4352619Y-26188214D01*
X4305000Y-26140595D01*
X4257380Y-26188214D01*
X4352619Y-26188214D01*
X5209761Y-25331071D02*
X5257380Y-25426309D01*
X5257380Y-25616785D01*
X5209761Y-25712023D01*
X5114523Y-25759642D01*
X4733571Y-25759642D01*
X4638333Y-25712023D01*
X4590714Y-25616785D01*
X4590714Y-25426309D01*
X4638333Y-25331071D01*
X4733571Y-25283452D01*
X4828809Y-25283452D01*
X4924047Y-25759642D01*
X5257380Y-23664404D02*
X4733571Y-23664404D01*
X4638333Y-23712023D01*
X4590714Y-23807261D01*
X4590714Y-23997738D01*
X4638333Y-24092976D01*
X5209761Y-23664404D02*
X5257380Y-23759642D01*
X5257380Y-23997738D01*
X5209761Y-24092976D01*
X5114523Y-24140595D01*
X5019285Y-24140595D01*
X4924047Y-24092976D01*
X4876428Y-23997738D01*
X4876428Y-23759642D01*
X4828809Y-23664404D01*
X4590714Y-23188214D02*
X5257380Y-23188214D01*
X4685952Y-23188214D02*
X4638333Y-23140595D01*
X4590714Y-23045357D01*
X4590714Y-22902500D01*
X4638333Y-22807261D01*
X4733571Y-22759642D01*
X5257380Y-22759642D01*
X5257380Y-21854880D02*
X4257380Y-21854880D01*
X5209761Y-21854880D02*
X5257380Y-21950119D01*
X5257380Y-22140595D01*
X5209761Y-22235833D01*
X5162142Y-22283452D01*
X5066904Y-22331071D01*
X4781190Y-22331071D01*
X4685952Y-22283452D01*
X4638333Y-22235833D01*
X4590714Y-22140595D01*
X4590714Y-21950119D01*
X4638333Y-21854880D01*
X5257380Y-20045357D02*
X4781190Y-20378690D01*
X5257380Y-20616785D02*
X4257380Y-20616785D01*
X4257380Y-20235833D01*
X4305000Y-20140595D01*
X4352619Y-20092976D01*
X4447857Y-20045357D01*
X4590714Y-20045357D01*
X4685952Y-20092976D01*
X4733571Y-20140595D01*
X4781190Y-20235833D01*
X4781190Y-20616785D01*
X5257380Y-19188214D02*
X4733571Y-19188214D01*
X4638333Y-19235833D01*
X4590714Y-19331071D01*
X4590714Y-19521547D01*
X4638333Y-19616785D01*
X5209761Y-19188214D02*
X5257380Y-19283452D01*
X5257380Y-19521547D01*
X5209761Y-19616785D01*
X5114523Y-19664404D01*
X5019285Y-19664404D01*
X4924047Y-19616785D01*
X4876428Y-19521547D01*
X4876428Y-19283452D01*
X4828809Y-19188214D01*
X5257380Y-18712023D02*
X4590714Y-18712023D01*
X4685952Y-18712023D02*
X4638333Y-18664404D01*
X4590714Y-18569166D01*
X4590714Y-18426309D01*
X4638333Y-18331071D01*
X4733571Y-18283452D01*
X5257380Y-18283452D01*
X4733571Y-18283452D02*
X4638333Y-18235833D01*
X4590714Y-18140595D01*
X4590714Y-17997738D01*
X4638333Y-17902500D01*
X4733571Y-17854880D01*
X5257380Y-17854880D01*
X5209761Y-17426309D02*
X5257380Y-17331071D01*
X5257380Y-17140595D01*
X5209761Y-17045357D01*
X5114523Y-16997738D01*
X5066904Y-16997738D01*
X4971666Y-17045357D01*
X4924047Y-17140595D01*
X4924047Y-17283452D01*
X4876428Y-17378690D01*
X4781190Y-17426309D01*
X4733571Y-17426309D01*
X4638333Y-17378690D01*
X4590714Y-17283452D01*
X4590714Y-17140595D01*
X4638333Y-17045357D01*
X5209761Y-16188214D02*
X5257380Y-16283452D01*
X5257380Y-16473928D01*
X5209761Y-16569166D01*
X5114523Y-16616785D01*
X4733571Y-16616785D01*
X4638333Y-16569166D01*
X4590714Y-16473928D01*
X4590714Y-16283452D01*
X4638333Y-16188214D01*
X4733571Y-16140595D01*
X4828809Y-16140595D01*
X4924047Y-16616785D01*
X5209761Y-15759642D02*
X5257380Y-15664404D01*
X5257380Y-15473928D01*
X5209761Y-15378690D01*
X5114523Y-15331071D01*
X5066904Y-15331071D01*
X4971666Y-15378690D01*
X4924047Y-15473928D01*
X4924047Y-15616785D01*
X4876428Y-15712023D01*
X4781190Y-15759642D01*
X4733571Y-15759642D01*
X4638333Y-15712023D01*
X4590714Y-15616785D01*
X4590714Y-15473928D01*
X4638333Y-15378690D01*
X6867380Y-37664404D02*
X5867380Y-37664404D01*
X6248333Y-37664404D02*
X6200714Y-37569166D01*
X6200714Y-37378690D01*
X6248333Y-37283452D01*
X6295952Y-37235833D01*
X6391190Y-37188214D01*
X6676904Y-37188214D01*
X6772142Y-37235833D01*
X6819761Y-37283452D01*
X6867380Y-37378690D01*
X6867380Y-37569166D01*
X6819761Y-37664404D01*
X6200714Y-36854880D02*
X6867380Y-36616785D01*
X6200714Y-36378690D02*
X6867380Y-36616785D01*
X7105476Y-36712023D01*
X7153095Y-36759642D01*
X7200714Y-36854880D01*
X5867380Y-35235833D02*
X6676904Y-35235833D01*
X6772142Y-35188214D01*
X6819761Y-35140595D01*
X6867380Y-35045357D01*
X6867380Y-34854880D01*
X6819761Y-34759642D01*
X6772142Y-34712023D01*
X6676904Y-34664404D01*
X5867380Y-34664404D01*
X6200714Y-34188214D02*
X6867380Y-34188214D01*
X6295952Y-34188214D02*
X6248333Y-34140595D01*
X6200714Y-34045357D01*
X6200714Y-33902500D01*
X6248333Y-33807261D01*
X6343571Y-33759642D01*
X6867380Y-33759642D01*
X6819761Y-32854880D02*
X6867380Y-32950119D01*
X6867380Y-33140595D01*
X6819761Y-33235833D01*
X6772142Y-33283452D01*
X6676904Y-33331071D01*
X6391190Y-33331071D01*
X6295952Y-33283452D01*
X6248333Y-33235833D01*
X6200714Y-33140595D01*
X6200714Y-32950119D01*
X6248333Y-32854880D01*
X6867380Y-32283452D02*
X6819761Y-32378690D01*
X6724523Y-32426309D01*
X5867380Y-32426309D01*
X6819761Y-31521547D02*
X6867380Y-31616785D01*
X6867380Y-31807261D01*
X6819761Y-31902500D01*
X6724523Y-31950119D01*
X6343571Y-31950119D01*
X6248333Y-31902500D01*
X6200714Y-31807261D01*
X6200714Y-31616785D01*
X6248333Y-31521547D01*
X6343571Y-31473928D01*
X6438809Y-31473928D01*
X6534047Y-31950119D01*
X6867380Y-29807261D02*
X6867380Y-30283452D01*
X5867380Y-30283452D01*
X6867380Y-29331071D02*
X6819761Y-29426309D01*
X6772142Y-29473928D01*
X6676904Y-29521547D01*
X6391190Y-29521547D01*
X6295952Y-29473928D01*
X6248333Y-29426309D01*
X6200714Y-29331071D01*
X6200714Y-29188214D01*
X6248333Y-29092976D01*
X6295952Y-29045357D01*
X6391190Y-28997738D01*
X6676904Y-28997738D01*
X6772142Y-29045357D01*
X6819761Y-29092976D01*
X6867380Y-29188214D01*
X6867380Y-29331071D01*
X6200714Y-28664404D02*
X6867380Y-28473928D01*
X6391190Y-28283452D01*
X6867380Y-28092976D01*
X6200714Y-27902500D01*
X6486428Y-27521547D02*
X6486428Y-26759642D01*
X6867380Y-26283452D02*
X5867380Y-26283452D01*
X5867380Y-26045357D01*
X5915000Y-25902500D01*
X6010238Y-25807261D01*
X6105476Y-25759642D01*
X6295952Y-25712023D01*
X6438809Y-25712023D01*
X6629285Y-25759642D01*
X6724523Y-25807261D01*
X6819761Y-25902500D01*
X6867380Y-26045357D01*
X6867380Y-26283452D01*
%TO.C,R9*%
X31721380Y-43839666D02*
X31245190Y-44173000D01*
X31721380Y-44411095D02*
X30721380Y-44411095D01*
X30721380Y-44030142D01*
X30769000Y-43934904D01*
X30816619Y-43887285D01*
X30911857Y-43839666D01*
X31054714Y-43839666D01*
X31149952Y-43887285D01*
X31197571Y-43934904D01*
X31245190Y-44030142D01*
X31245190Y-44411095D01*
X31721380Y-43363476D02*
X31721380Y-43173000D01*
X31673761Y-43077761D01*
X31626142Y-43030142D01*
X31483285Y-42934904D01*
X31292809Y-42887285D01*
X30911857Y-42887285D01*
X30816619Y-42934904D01*
X30769000Y-42982523D01*
X30721380Y-43077761D01*
X30721380Y-43268238D01*
X30769000Y-43363476D01*
X30816619Y-43411095D01*
X30911857Y-43458714D01*
X31149952Y-43458714D01*
X31245190Y-43411095D01*
X31292809Y-43363476D01*
X31340428Y-43268238D01*
X31340428Y-43077761D01*
X31292809Y-42982523D01*
X31245190Y-42934904D01*
X31149952Y-42887285D01*
%TO.C,R8*%
X32864380Y-43839666D02*
X32388190Y-44173000D01*
X32864380Y-44411095D02*
X31864380Y-44411095D01*
X31864380Y-44030142D01*
X31912000Y-43934904D01*
X31959619Y-43887285D01*
X32054857Y-43839666D01*
X32197714Y-43839666D01*
X32292952Y-43887285D01*
X32340571Y-43934904D01*
X32388190Y-44030142D01*
X32388190Y-44411095D01*
X32292952Y-43268238D02*
X32245333Y-43363476D01*
X32197714Y-43411095D01*
X32102476Y-43458714D01*
X32054857Y-43458714D01*
X31959619Y-43411095D01*
X31912000Y-43363476D01*
X31864380Y-43268238D01*
X31864380Y-43077761D01*
X31912000Y-42982523D01*
X31959619Y-42934904D01*
X32054857Y-42887285D01*
X32102476Y-42887285D01*
X32197714Y-42934904D01*
X32245333Y-42982523D01*
X32292952Y-43077761D01*
X32292952Y-43268238D01*
X32340571Y-43363476D01*
X32388190Y-43411095D01*
X32483428Y-43458714D01*
X32673904Y-43458714D01*
X32769142Y-43411095D01*
X32816761Y-43363476D01*
X32864380Y-43268238D01*
X32864380Y-43077761D01*
X32816761Y-42982523D01*
X32769142Y-42934904D01*
X32673904Y-42887285D01*
X32483428Y-42887285D01*
X32388190Y-42934904D01*
X32340571Y-42982523D01*
X32292952Y-43077761D01*
%TO.C,R7*%
X34007380Y-43839666D02*
X33531190Y-44173000D01*
X34007380Y-44411095D02*
X33007380Y-44411095D01*
X33007380Y-44030142D01*
X33055000Y-43934904D01*
X33102619Y-43887285D01*
X33197857Y-43839666D01*
X33340714Y-43839666D01*
X33435952Y-43887285D01*
X33483571Y-43934904D01*
X33531190Y-44030142D01*
X33531190Y-44411095D01*
X33007380Y-43506333D02*
X33007380Y-42839666D01*
X34007380Y-43268238D01*
%TO.C,R6*%
X30578380Y-43839666D02*
X30102190Y-44173000D01*
X30578380Y-44411095D02*
X29578380Y-44411095D01*
X29578380Y-44030142D01*
X29626000Y-43934904D01*
X29673619Y-43887285D01*
X29768857Y-43839666D01*
X29911714Y-43839666D01*
X30006952Y-43887285D01*
X30054571Y-43934904D01*
X30102190Y-44030142D01*
X30102190Y-44411095D01*
X29578380Y-42982523D02*
X29578380Y-43173000D01*
X29626000Y-43268238D01*
X29673619Y-43315857D01*
X29816476Y-43411095D01*
X30006952Y-43458714D01*
X30387904Y-43458714D01*
X30483142Y-43411095D01*
X30530761Y-43363476D01*
X30578380Y-43268238D01*
X30578380Y-43077761D01*
X30530761Y-42982523D01*
X30483142Y-42934904D01*
X30387904Y-42887285D01*
X30149809Y-42887285D01*
X30054571Y-42934904D01*
X30006952Y-42982523D01*
X29959333Y-43077761D01*
X29959333Y-43268238D01*
X30006952Y-43363476D01*
X30054571Y-43411095D01*
X30149809Y-43458714D01*
%TO.C,R5*%
X37823380Y-46493666D02*
X37347190Y-46827000D01*
X37823380Y-47065095D02*
X36823380Y-47065095D01*
X36823380Y-46684142D01*
X36871000Y-46588904D01*
X36918619Y-46541285D01*
X37013857Y-46493666D01*
X37156714Y-46493666D01*
X37251952Y-46541285D01*
X37299571Y-46588904D01*
X37347190Y-46684142D01*
X37347190Y-47065095D01*
X36823380Y-45588904D02*
X36823380Y-46065095D01*
X37299571Y-46112714D01*
X37251952Y-46065095D01*
X37204333Y-45969857D01*
X37204333Y-45731761D01*
X37251952Y-45636523D01*
X37299571Y-45588904D01*
X37394809Y-45541285D01*
X37632904Y-45541285D01*
X37728142Y-45588904D01*
X37775761Y-45636523D01*
X37823380Y-45731761D01*
X37823380Y-45969857D01*
X37775761Y-46065095D01*
X37728142Y-46112714D01*
%TO.C,R4*%
X69192380Y-40166666D02*
X68716190Y-40500000D01*
X69192380Y-40738095D02*
X68192380Y-40738095D01*
X68192380Y-40357142D01*
X68240000Y-40261904D01*
X68287619Y-40214285D01*
X68382857Y-40166666D01*
X68525714Y-40166666D01*
X68620952Y-40214285D01*
X68668571Y-40261904D01*
X68716190Y-40357142D01*
X68716190Y-40738095D01*
X68525714Y-39309523D02*
X69192380Y-39309523D01*
X68144761Y-39547619D02*
X68859047Y-39785714D01*
X68859047Y-39166666D01*
%TO.C,R3*%
X67541380Y-40166666D02*
X67065190Y-40500000D01*
X67541380Y-40738095D02*
X66541380Y-40738095D01*
X66541380Y-40357142D01*
X66589000Y-40261904D01*
X66636619Y-40214285D01*
X66731857Y-40166666D01*
X66874714Y-40166666D01*
X66969952Y-40214285D01*
X67017571Y-40261904D01*
X67065190Y-40357142D01*
X67065190Y-40738095D01*
X66541380Y-39833333D02*
X66541380Y-39214285D01*
X66922333Y-39547619D01*
X66922333Y-39404761D01*
X66969952Y-39309523D01*
X67017571Y-39261904D01*
X67112809Y-39214285D01*
X67350904Y-39214285D01*
X67446142Y-39261904D01*
X67493761Y-39309523D01*
X67541380Y-39404761D01*
X67541380Y-39690476D01*
X67493761Y-39785714D01*
X67446142Y-39833333D01*
%TO.C,R2*%
X36172380Y-49795666D02*
X35696190Y-50129000D01*
X36172380Y-50367095D02*
X35172380Y-50367095D01*
X35172380Y-49986142D01*
X35220000Y-49890904D01*
X35267619Y-49843285D01*
X35362857Y-49795666D01*
X35505714Y-49795666D01*
X35600952Y-49843285D01*
X35648571Y-49890904D01*
X35696190Y-49986142D01*
X35696190Y-50367095D01*
X35267619Y-49414714D02*
X35220000Y-49367095D01*
X35172380Y-49271857D01*
X35172380Y-49033761D01*
X35220000Y-48938523D01*
X35267619Y-48890904D01*
X35362857Y-48843285D01*
X35458095Y-48843285D01*
X35600952Y-48890904D01*
X36172380Y-49462333D01*
X36172380Y-48843285D01*
%TO.C,R1*%
X9008333Y-49022380D02*
X8675000Y-48546190D01*
X8436904Y-49022380D02*
X8436904Y-48022380D01*
X8817857Y-48022380D01*
X8913095Y-48070000D01*
X8960714Y-48117619D01*
X9008333Y-48212857D01*
X9008333Y-48355714D01*
X8960714Y-48450952D01*
X8913095Y-48498571D01*
X8817857Y-48546190D01*
X8436904Y-48546190D01*
X9960714Y-49022380D02*
X9389285Y-49022380D01*
X9675000Y-49022380D02*
X9675000Y-48022380D01*
X9579761Y-48165238D01*
X9484523Y-48260476D01*
X9389285Y-48308095D01*
%TO.C,C7*%
X31566142Y-49795666D02*
X31613761Y-49843285D01*
X31661380Y-49986142D01*
X31661380Y-50081380D01*
X31613761Y-50224238D01*
X31518523Y-50319476D01*
X31423285Y-50367095D01*
X31232809Y-50414714D01*
X31089952Y-50414714D01*
X30899476Y-50367095D01*
X30804238Y-50319476D01*
X30709000Y-50224238D01*
X30661380Y-50081380D01*
X30661380Y-49986142D01*
X30709000Y-49843285D01*
X30756619Y-49795666D01*
X30661380Y-49462333D02*
X30661380Y-48795666D01*
X31661380Y-49224238D01*
%TO.C,C6*%
X31566142Y-46493666D02*
X31613761Y-46541285D01*
X31661380Y-46684142D01*
X31661380Y-46779380D01*
X31613761Y-46922238D01*
X31518523Y-47017476D01*
X31423285Y-47065095D01*
X31232809Y-47112714D01*
X31089952Y-47112714D01*
X30899476Y-47065095D01*
X30804238Y-47017476D01*
X30709000Y-46922238D01*
X30661380Y-46779380D01*
X30661380Y-46684142D01*
X30709000Y-46541285D01*
X30756619Y-46493666D01*
X30661380Y-45636523D02*
X30661380Y-45827000D01*
X30709000Y-45922238D01*
X30756619Y-45969857D01*
X30899476Y-46065095D01*
X31089952Y-46112714D01*
X31470904Y-46112714D01*
X31566142Y-46065095D01*
X31613761Y-46017476D01*
X31661380Y-45922238D01*
X31661380Y-45731761D01*
X31613761Y-45636523D01*
X31566142Y-45588904D01*
X31470904Y-45541285D01*
X31232809Y-45541285D01*
X31137571Y-45588904D01*
X31089952Y-45636523D01*
X31042333Y-45731761D01*
X31042333Y-45922238D01*
X31089952Y-46017476D01*
X31137571Y-46065095D01*
X31232809Y-46112714D01*
%TO.C,C5*%
X36077142Y-46493666D02*
X36124761Y-46541285D01*
X36172380Y-46684142D01*
X36172380Y-46779380D01*
X36124761Y-46922238D01*
X36029523Y-47017476D01*
X35934285Y-47065095D01*
X35743809Y-47112714D01*
X35600952Y-47112714D01*
X35410476Y-47065095D01*
X35315238Y-47017476D01*
X35220000Y-46922238D01*
X35172380Y-46779380D01*
X35172380Y-46684142D01*
X35220000Y-46541285D01*
X35267619Y-46493666D01*
X35172380Y-45588904D02*
X35172380Y-46065095D01*
X35648571Y-46112714D01*
X35600952Y-46065095D01*
X35553333Y-45969857D01*
X35553333Y-45731761D01*
X35600952Y-45636523D01*
X35648571Y-45588904D01*
X35743809Y-45541285D01*
X35981904Y-45541285D01*
X36077142Y-45588904D01*
X36124761Y-45636523D01*
X36172380Y-45731761D01*
X36172380Y-45969857D01*
X36124761Y-46065095D01*
X36077142Y-46112714D01*
%TO.C,C1*%
X67888142Y-40166666D02*
X67935761Y-40214285D01*
X67983380Y-40357142D01*
X67983380Y-40452380D01*
X67935761Y-40595238D01*
X67840523Y-40690476D01*
X67745285Y-40738095D01*
X67554809Y-40785714D01*
X67411952Y-40785714D01*
X67221476Y-40738095D01*
X67126238Y-40690476D01*
X67031000Y-40595238D01*
X66983380Y-40452380D01*
X66983380Y-40357142D01*
X67031000Y-40214285D01*
X67078619Y-40166666D01*
X67983380Y-39214285D02*
X67983380Y-39785714D01*
X67983380Y-39500000D02*
X66983380Y-39500000D01*
X67126238Y-39595238D01*
X67221476Y-39690476D01*
X67269095Y-39785714D01*
%TO.C,J1*%
X90402380Y-19833333D02*
X91116666Y-19833333D01*
X91259523Y-19880952D01*
X91354761Y-19976190D01*
X91402380Y-20119047D01*
X91402380Y-20214285D01*
X91402380Y-18833333D02*
X91402380Y-19404761D01*
X91402380Y-19119047D02*
X90402380Y-19119047D01*
X90545238Y-19214285D01*
X90640476Y-19309523D01*
X90688095Y-19404761D01*
%TO.C,BZ1*%
X90199047Y-36578571D02*
X90341904Y-36626190D01*
X90389523Y-36673809D01*
X90437142Y-36769047D01*
X90437142Y-36911904D01*
X90389523Y-37007142D01*
X90341904Y-37054761D01*
X90246666Y-37102380D01*
X89865714Y-37102380D01*
X89865714Y-36102380D01*
X90199047Y-36102380D01*
X90294285Y-36150000D01*
X90341904Y-36197619D01*
X90389523Y-36292857D01*
X90389523Y-36388095D01*
X90341904Y-36483333D01*
X90294285Y-36530952D01*
X90199047Y-36578571D01*
X89865714Y-36578571D01*
X90770476Y-36102380D02*
X91437142Y-36102380D01*
X90770476Y-37102380D01*
X91437142Y-37102380D01*
X92341904Y-37102380D02*
X91770476Y-37102380D01*
X92056190Y-37102380D02*
X92056190Y-36102380D01*
X91960952Y-36245238D01*
X91865714Y-36340476D01*
X91770476Y-36388095D01*
D11*
X85149704Y-36033142D02*
X86697895Y-36033142D01*
X85923800Y-36807238D02*
X85923800Y-35259047D01*
D10*
%TO.C,T2*%
X19304095Y-56983380D02*
X19875523Y-56983380D01*
X19589809Y-57983380D02*
X19589809Y-56983380D01*
X20161238Y-57078619D02*
X20208857Y-57031000D01*
X20304095Y-56983380D01*
X20542190Y-56983380D01*
X20637428Y-57031000D01*
X20685047Y-57078619D01*
X20732666Y-57173857D01*
X20732666Y-57269095D01*
X20685047Y-57411952D01*
X20113619Y-57983380D01*
X20732666Y-57983380D01*
%TO.C,S8*%
X80238095Y-33404761D02*
X80380952Y-33452380D01*
X80619047Y-33452380D01*
X80714285Y-33404761D01*
X80761904Y-33357142D01*
X80809523Y-33261904D01*
X80809523Y-33166666D01*
X80761904Y-33071428D01*
X80714285Y-33023809D01*
X80619047Y-32976190D01*
X80428571Y-32928571D01*
X80333333Y-32880952D01*
X80285714Y-32833333D01*
X80238095Y-32738095D01*
X80238095Y-32642857D01*
X80285714Y-32547619D01*
X80333333Y-32500000D01*
X80428571Y-32452380D01*
X80666666Y-32452380D01*
X80809523Y-32500000D01*
X81380952Y-32880952D02*
X81285714Y-32833333D01*
X81238095Y-32785714D01*
X81190476Y-32690476D01*
X81190476Y-32642857D01*
X81238095Y-32547619D01*
X81285714Y-32500000D01*
X81380952Y-32452380D01*
X81571428Y-32452380D01*
X81666666Y-32500000D01*
X81714285Y-32547619D01*
X81761904Y-32642857D01*
X81761904Y-32690476D01*
X81714285Y-32785714D01*
X81666666Y-32833333D01*
X81571428Y-32880952D01*
X81380952Y-32880952D01*
X81285714Y-32928571D01*
X81238095Y-32976190D01*
X81190476Y-33071428D01*
X81190476Y-33261904D01*
X81238095Y-33357142D01*
X81285714Y-33404761D01*
X81380952Y-33452380D01*
X81571428Y-33452380D01*
X81666666Y-33404761D01*
X81714285Y-33357142D01*
X81761904Y-33261904D01*
X81761904Y-33071428D01*
X81714285Y-32976190D01*
X81666666Y-32928571D01*
X81571428Y-32880952D01*
%TO.C,U1*%
X67310095Y-54951380D02*
X67310095Y-55760904D01*
X67357714Y-55856142D01*
X67405333Y-55903761D01*
X67500571Y-55951380D01*
X67691047Y-55951380D01*
X67786285Y-55903761D01*
X67833904Y-55856142D01*
X67881523Y-55760904D01*
X67881523Y-54951380D01*
X68881523Y-55951380D02*
X68310095Y-55951380D01*
X68595809Y-55951380D02*
X68595809Y-54951380D01*
X68500571Y-55094238D01*
X68405333Y-55189476D01*
X68310095Y-55237095D01*
%TO.C,J2*%
X2002380Y-44333333D02*
X2716666Y-44333333D01*
X2859523Y-44380952D01*
X2954761Y-44476190D01*
X3002380Y-44619047D01*
X3002380Y-44714285D01*
X2097619Y-43904761D02*
X2050000Y-43857142D01*
X2002380Y-43761904D01*
X2002380Y-43523809D01*
X2050000Y-43428571D01*
X2097619Y-43380952D01*
X2192857Y-43333333D01*
X2288095Y-43333333D01*
X2430952Y-43380952D01*
X3002380Y-43952380D01*
X3002380Y-43333333D01*
%TO.C,T3*%
X85852095Y-22733380D02*
X86423523Y-22733380D01*
X86137809Y-23733380D02*
X86137809Y-22733380D01*
X86661619Y-22733380D02*
X87280666Y-22733380D01*
X86947333Y-23114333D01*
X87090190Y-23114333D01*
X87185428Y-23161952D01*
X87233047Y-23209571D01*
X87280666Y-23304809D01*
X87280666Y-23542904D01*
X87233047Y-23638142D01*
X87185428Y-23685761D01*
X87090190Y-23733380D01*
X86804476Y-23733380D01*
X86709238Y-23685761D01*
X86661619Y-23638142D01*
%TO.C,H1*%
X9779095Y-53538380D02*
X9779095Y-52538380D01*
X9779095Y-53014571D02*
X10350523Y-53014571D01*
X10350523Y-53538380D02*
X10350523Y-52538380D01*
X11350523Y-53538380D02*
X10779095Y-53538380D01*
X11064809Y-53538380D02*
X11064809Y-52538380D01*
X10969571Y-52681238D01*
X10874333Y-52776476D01*
X10779095Y-52824095D01*
%TO.C,H3*%
X77470095Y-59253380D02*
X77470095Y-58253380D01*
X77470095Y-58729571D02*
X78041523Y-58729571D01*
X78041523Y-59253380D02*
X78041523Y-58253380D01*
X78422476Y-58253380D02*
X79041523Y-58253380D01*
X78708190Y-58634333D01*
X78851047Y-58634333D01*
X78946285Y-58681952D01*
X78993904Y-58729571D01*
X79041523Y-58824809D01*
X79041523Y-59062904D01*
X78993904Y-59158142D01*
X78946285Y-59205761D01*
X78851047Y-59253380D01*
X78565333Y-59253380D01*
X78470095Y-59205761D01*
X78422476Y-59158142D01*
%TO.C,S5*%
X23238095Y-33404761D02*
X23380952Y-33452380D01*
X23619047Y-33452380D01*
X23714285Y-33404761D01*
X23761904Y-33357142D01*
X23809523Y-33261904D01*
X23809523Y-33166666D01*
X23761904Y-33071428D01*
X23714285Y-33023809D01*
X23619047Y-32976190D01*
X23428571Y-32928571D01*
X23333333Y-32880952D01*
X23285714Y-32833333D01*
X23238095Y-32738095D01*
X23238095Y-32642857D01*
X23285714Y-32547619D01*
X23333333Y-32500000D01*
X23428571Y-32452380D01*
X23666666Y-32452380D01*
X23809523Y-32500000D01*
X24714285Y-32452380D02*
X24238095Y-32452380D01*
X24190476Y-32928571D01*
X24238095Y-32880952D01*
X24333333Y-32833333D01*
X24571428Y-32833333D01*
X24666666Y-32880952D01*
X24714285Y-32928571D01*
X24761904Y-33023809D01*
X24761904Y-33261904D01*
X24714285Y-33357142D01*
X24666666Y-33404761D01*
X24571428Y-33452380D01*
X24333333Y-33452380D01*
X24238095Y-33404761D01*
X24190476Y-33357142D01*
%TO.C,C3*%
X20661333Y-38584142D02*
X20613714Y-38631761D01*
X20470857Y-38679380D01*
X20375619Y-38679380D01*
X20232761Y-38631761D01*
X20137523Y-38536523D01*
X20089904Y-38441285D01*
X20042285Y-38250809D01*
X20042285Y-38107952D01*
X20089904Y-37917476D01*
X20137523Y-37822238D01*
X20232761Y-37727000D01*
X20375619Y-37679380D01*
X20470857Y-37679380D01*
X20613714Y-37727000D01*
X20661333Y-37774619D01*
X20994666Y-37679380D02*
X21613714Y-37679380D01*
X21280380Y-38060333D01*
X21423238Y-38060333D01*
X21518476Y-38107952D01*
X21566095Y-38155571D01*
X21613714Y-38250809D01*
X21613714Y-38488904D01*
X21566095Y-38584142D01*
X21518476Y-38631761D01*
X21423238Y-38679380D01*
X21137523Y-38679380D01*
X21042285Y-38631761D01*
X20994666Y-38584142D01*
%TO.C,S7*%
X61238095Y-33404761D02*
X61380952Y-33452380D01*
X61619047Y-33452380D01*
X61714285Y-33404761D01*
X61761904Y-33357142D01*
X61809523Y-33261904D01*
X61809523Y-33166666D01*
X61761904Y-33071428D01*
X61714285Y-33023809D01*
X61619047Y-32976190D01*
X61428571Y-32928571D01*
X61333333Y-32880952D01*
X61285714Y-32833333D01*
X61238095Y-32738095D01*
X61238095Y-32642857D01*
X61285714Y-32547619D01*
X61333333Y-32500000D01*
X61428571Y-32452380D01*
X61666666Y-32452380D01*
X61809523Y-32500000D01*
X62142857Y-32452380D02*
X62809523Y-32452380D01*
X62380952Y-33452380D01*
%TO.C,Y1*%
X27844809Y-50126190D02*
X27844809Y-50602380D01*
X27511476Y-49602380D02*
X27844809Y-50126190D01*
X28178142Y-49602380D01*
X29035285Y-50602380D02*
X28463857Y-50602380D01*
X28749571Y-50602380D02*
X28749571Y-49602380D01*
X28654333Y-49745238D01*
X28559095Y-49840476D01*
X28463857Y-49888095D01*
%TO.C,C4*%
X20534333Y-44299142D02*
X20486714Y-44346761D01*
X20343857Y-44394380D01*
X20248619Y-44394380D01*
X20105761Y-44346761D01*
X20010523Y-44251523D01*
X19962904Y-44156285D01*
X19915285Y-43965809D01*
X19915285Y-43822952D01*
X19962904Y-43632476D01*
X20010523Y-43537238D01*
X20105761Y-43442000D01*
X20248619Y-43394380D01*
X20343857Y-43394380D01*
X20486714Y-43442000D01*
X20534333Y-43489619D01*
X21391476Y-43727714D02*
X21391476Y-44394380D01*
X21153380Y-43346761D02*
X20915285Y-44061047D01*
X21534333Y-44061047D01*
%TO.C,D1*%
X19708904Y-47569380D02*
X19708904Y-46569380D01*
X19947000Y-46569380D01*
X20089857Y-46617000D01*
X20185095Y-46712238D01*
X20232714Y-46807476D01*
X20280333Y-46997952D01*
X20280333Y-47140809D01*
X20232714Y-47331285D01*
X20185095Y-47426523D01*
X20089857Y-47521761D01*
X19947000Y-47569380D01*
X19708904Y-47569380D01*
X21232714Y-47569380D02*
X20661285Y-47569380D01*
X20947000Y-47569380D02*
X20947000Y-46569380D01*
X20851761Y-46712238D01*
X20756523Y-46807476D01*
X20661285Y-46855095D01*
%TO.C,S6*%
X42238095Y-33404761D02*
X42380952Y-33452380D01*
X42619047Y-33452380D01*
X42714285Y-33404761D01*
X42761904Y-33357142D01*
X42809523Y-33261904D01*
X42809523Y-33166666D01*
X42761904Y-33071428D01*
X42714285Y-33023809D01*
X42619047Y-32976190D01*
X42428571Y-32928571D01*
X42333333Y-32880952D01*
X42285714Y-32833333D01*
X42238095Y-32738095D01*
X42238095Y-32642857D01*
X42285714Y-32547619D01*
X42333333Y-32500000D01*
X42428571Y-32452380D01*
X42666666Y-32452380D01*
X42809523Y-32500000D01*
X43666666Y-32452380D02*
X43476190Y-32452380D01*
X43380952Y-32500000D01*
X43333333Y-32547619D01*
X43238095Y-32690476D01*
X43190476Y-32880952D01*
X43190476Y-33261904D01*
X43238095Y-33357142D01*
X43285714Y-33404761D01*
X43380952Y-33452380D01*
X43571428Y-33452380D01*
X43666666Y-33404761D01*
X43714285Y-33357142D01*
X43761904Y-33261904D01*
X43761904Y-33023809D01*
X43714285Y-32928571D01*
X43666666Y-32880952D01*
X43571428Y-32833333D01*
X43380952Y-32833333D01*
X43285714Y-32880952D01*
X43238095Y-32928571D01*
X43190476Y-33023809D01*
%TO.C,Y2*%
X23883390Y-48172190D02*
X24359580Y-48172190D01*
X23359580Y-48505523D02*
X23883390Y-48172190D01*
X23359580Y-47838857D01*
X23454819Y-47553142D02*
X23407200Y-47505523D01*
X23359580Y-47410285D01*
X23359580Y-47172190D01*
X23407200Y-47076952D01*
X23454819Y-47029333D01*
X23550057Y-46981714D01*
X23645295Y-46981714D01*
X23788152Y-47029333D01*
X24359580Y-47600761D01*
X24359580Y-46981714D01*
%TO.C,U4*%
X49072895Y-52233580D02*
X49072895Y-53043104D01*
X49120514Y-53138342D01*
X49168133Y-53185961D01*
X49263371Y-53233580D01*
X49453847Y-53233580D01*
X49549085Y-53185961D01*
X49596704Y-53138342D01*
X49644323Y-53043104D01*
X49644323Y-52233580D01*
X50549085Y-52566914D02*
X50549085Y-53233580D01*
X50310990Y-52185961D02*
X50072895Y-52900247D01*
X50691942Y-52900247D01*
%TO.C,T1*%
X66802095Y-58888380D02*
X67373523Y-58888380D01*
X67087809Y-59888380D02*
X67087809Y-58888380D01*
X68230666Y-59888380D02*
X67659238Y-59888380D01*
X67944952Y-59888380D02*
X67944952Y-58888380D01*
X67849714Y-59031238D01*
X67754476Y-59126476D01*
X67659238Y-59174095D01*
%TO.C,C2*%
X4802142Y-14136666D02*
X4849761Y-14184285D01*
X4897380Y-14327142D01*
X4897380Y-14422380D01*
X4849761Y-14565238D01*
X4754523Y-14660476D01*
X4659285Y-14708095D01*
X4468809Y-14755714D01*
X4325952Y-14755714D01*
X4135476Y-14708095D01*
X4040238Y-14660476D01*
X3945000Y-14565238D01*
X3897380Y-14422380D01*
X3897380Y-14327142D01*
X3945000Y-14184285D01*
X3992619Y-14136666D01*
X3992619Y-13755714D02*
X3945000Y-13708095D01*
X3897380Y-13612857D01*
X3897380Y-13374761D01*
X3945000Y-13279523D01*
X3992619Y-13231904D01*
X4087857Y-13184285D01*
X4183095Y-13184285D01*
X4325952Y-13231904D01*
X4897380Y-13803333D01*
X4897380Y-13184285D01*
D12*
%TO.C,R9*%
X30479000Y-43519359D02*
X30479000Y-43826641D01*
X29719000Y-43519359D02*
X29719000Y-43826641D01*
%TO.C,R8*%
X31622000Y-43519359D02*
X31622000Y-43826641D01*
X30862000Y-43519359D02*
X30862000Y-43826641D01*
%TO.C,R7*%
X32765000Y-43519359D02*
X32765000Y-43826641D01*
X32005000Y-43519359D02*
X32005000Y-43826641D01*
%TO.C,R6*%
X29336000Y-43519359D02*
X29336000Y-43826641D01*
X28576000Y-43519359D02*
X28576000Y-43826641D01*
%TO.C,R5*%
X36463500Y-46089742D02*
X36463500Y-46564258D01*
X35418500Y-46089742D02*
X35418500Y-46564258D01*
%TO.C,R4*%
X67832500Y-39762742D02*
X67832500Y-40237258D01*
X66787500Y-39762742D02*
X66787500Y-40237258D01*
%TO.C,R3*%
X66181500Y-39762742D02*
X66181500Y-40237258D01*
X65136500Y-39762742D02*
X65136500Y-40237258D01*
%TO.C,R2*%
X34812500Y-49391742D02*
X34812500Y-49866258D01*
X33767500Y-49391742D02*
X33767500Y-49866258D01*
%TO.C,R1*%
X8937742Y-49477500D02*
X9412258Y-49477500D01*
X8937742Y-50522500D02*
X9412258Y-50522500D01*
%TO.C,C7*%
X32129000Y-49769580D02*
X32129000Y-49488420D01*
X33149000Y-49769580D02*
X33149000Y-49488420D01*
%TO.C,C6*%
X32129000Y-46467580D02*
X32129000Y-46186420D01*
X33149000Y-46467580D02*
X33149000Y-46186420D01*
%TO.C,C5*%
X34800000Y-46186420D02*
X34800000Y-46467580D01*
X33780000Y-46186420D02*
X33780000Y-46467580D01*
%TO.C,C1*%
X68451000Y-40140580D02*
X68451000Y-39859420D01*
X69471000Y-40140580D02*
X69471000Y-39859420D01*
D10*
%TO.C,J1*%
X86400000Y-15650000D02*
X93400000Y-15650000D01*
X93400000Y-23350000D02*
X86400000Y-23350000D01*
X86400000Y-23350000D02*
X86400000Y-15650000D01*
%TO.C,BZ1*%
X91994400Y-43000000D02*
G75*
G03*
X91994400Y-43000000I-5994400J0D01*
G01*
D12*
%TO.C,T2*%
X32240000Y-61250000D02*
X12260000Y-61250000D01*
X14630000Y-58250000D02*
X14630000Y-61250000D01*
X12260000Y-58250000D02*
X32240000Y-58250000D01*
X12260000Y-61250000D02*
X12260000Y-58250000D01*
X32240000Y-58250000D02*
X32240000Y-61250000D01*
%TO.C,S8*%
X70000000Y-31845000D02*
X70000000Y-33845000D01*
X71500000Y-32845000D02*
X73500000Y-33845000D01*
X80000000Y-33845000D02*
X73500000Y-33845000D01*
X79000000Y-32845000D02*
X77000000Y-31845000D01*
X67000000Y-22345000D02*
X67000000Y-31345000D01*
X70000000Y-33845000D02*
X72000000Y-33845000D01*
X75000000Y-32845000D02*
X77000000Y-32845000D01*
X75000000Y-31845000D02*
X75000000Y-32845000D01*
X80000000Y-32845000D02*
X80000000Y-33845000D01*
X72000000Y-32845000D02*
X72000000Y-33845000D01*
X80000000Y-31845000D02*
X80000000Y-32845000D01*
X83000000Y-22345000D02*
X83000000Y-31345000D01*
X80000000Y-32845000D02*
X79000000Y-32845000D01*
%TO.C,U1*%
X65000000Y-54260000D02*
X68860000Y-54260000D01*
X61140000Y-54260000D02*
X61140000Y-54005000D01*
X65000000Y-43740000D02*
X61140000Y-43740000D01*
X68860000Y-54260000D02*
X68860000Y-54005000D01*
X65000000Y-54260000D02*
X61140000Y-54260000D01*
X68860000Y-43740000D02*
X68860000Y-43995000D01*
X61140000Y-43995000D02*
X59325000Y-43995000D01*
X61140000Y-43740000D02*
X61140000Y-43995000D01*
X65000000Y-43740000D02*
X68860000Y-43740000D01*
D10*
%TO.C,J2*%
X7100000Y-40150000D02*
X7100000Y-47850000D01*
X100000Y-40150000D02*
X7100000Y-40150000D01*
X7100000Y-47850000D02*
X100000Y-47850000D01*
D12*
%TO.C,T3*%
X89789000Y-27281000D02*
X82804000Y-27281000D01*
X82804000Y-24281000D02*
X89789000Y-24281000D01*
%TO.C,S5*%
X22000000Y-32845000D02*
X20000000Y-31845000D01*
X23000000Y-33845000D02*
X16500000Y-33845000D01*
X14500000Y-32845000D02*
X16500000Y-33845000D01*
X23000000Y-32845000D02*
X22000000Y-32845000D01*
X15000000Y-32845000D02*
X15000000Y-33845000D01*
X26000000Y-22345000D02*
X26000000Y-31345000D01*
X23000000Y-31845000D02*
X23000000Y-32845000D01*
X18000000Y-31845000D02*
X18000000Y-32845000D01*
X13000000Y-31845000D02*
X13000000Y-33845000D01*
X18000000Y-32845000D02*
X20000000Y-32845000D01*
X10000000Y-22345000D02*
X10000000Y-31345000D01*
X13000000Y-33845000D02*
X15000000Y-33845000D01*
X23000000Y-32845000D02*
X23000000Y-33845000D01*
%TO.C,C3*%
X11810000Y-40100000D02*
X11810000Y-39100000D01*
X12310000Y-39600000D02*
X11310000Y-39600000D01*
%TO.C,S7*%
X51000000Y-33845000D02*
X53000000Y-33845000D01*
X51000000Y-31845000D02*
X51000000Y-33845000D01*
X53000000Y-32845000D02*
X53000000Y-33845000D01*
X61000000Y-31845000D02*
X61000000Y-32845000D01*
X61000000Y-32845000D02*
X60000000Y-32845000D01*
X64000000Y-22345000D02*
X64000000Y-31345000D01*
X56000000Y-32845000D02*
X58000000Y-32845000D01*
X48000000Y-22345000D02*
X48000000Y-31345000D01*
X56000000Y-31845000D02*
X56000000Y-32845000D01*
X60000000Y-32845000D02*
X58000000Y-31845000D01*
X61000000Y-32845000D02*
X61000000Y-33845000D01*
X52500000Y-32845000D02*
X54500000Y-33845000D01*
X61000000Y-33845000D02*
X54500000Y-33845000D01*
%TO.C,Y1*%
X27407200Y-46046000D02*
X27407200Y-49346000D01*
X27407200Y-49346000D02*
X31407200Y-49346000D01*
%TO.C,C4*%
X17810000Y-42000000D02*
X17810000Y-43000000D01*
X17310000Y-42500000D02*
X18310000Y-42500000D01*
%TO.C,D1*%
X10082400Y-47975000D02*
X10082400Y-46425000D01*
%TO.C,S6*%
X37000000Y-32845000D02*
X39000000Y-32845000D01*
X33500000Y-32845000D02*
X35500000Y-33845000D01*
X42000000Y-32845000D02*
X41000000Y-32845000D01*
X32000000Y-33845000D02*
X34000000Y-33845000D01*
X32000000Y-31845000D02*
X32000000Y-33845000D01*
X42000000Y-33845000D02*
X35500000Y-33845000D01*
X45000000Y-22345000D02*
X45000000Y-31345000D01*
X29000000Y-22345000D02*
X29000000Y-31345000D01*
X37000000Y-31845000D02*
X37000000Y-32845000D01*
X42000000Y-32845000D02*
X42000000Y-33845000D01*
X34000000Y-32845000D02*
X34000000Y-33845000D01*
X42000000Y-31845000D02*
X42000000Y-32845000D01*
X41000000Y-32845000D02*
X39000000Y-31845000D01*
D10*
%TO.C,Y2*%
X26907200Y-42196000D02*
X26907200Y-53196000D01*
X21907200Y-53196000D02*
X21907200Y-42196000D01*
X26907200Y-53196000D02*
X21907200Y-53196000D01*
X21907200Y-42196000D02*
X26907200Y-42196000D01*
%TO.C,U4*%
X39625000Y-51875000D02*
X39625000Y-51550000D01*
X39625000Y-51875000D02*
X39950000Y-51875000D01*
X46875000Y-51875000D02*
X46875000Y-51550000D01*
X39625000Y-44625000D02*
X39950000Y-44625000D01*
X39625000Y-44850000D02*
X38200000Y-44850000D01*
X46875000Y-51875000D02*
X46550000Y-51875000D01*
X39625000Y-44625000D02*
X39625000Y-44850000D01*
X46875000Y-44625000D02*
X46875000Y-44950000D01*
X46875000Y-44625000D02*
X46550000Y-44625000D01*
D12*
%TO.C,T1*%
X66447500Y-61190000D02*
X59462500Y-61190000D01*
X59462500Y-58190000D02*
X66447500Y-58190000D01*
%TO.C,C2*%
X8485000Y-20280000D02*
X8485000Y-21280000D01*
X8985000Y-20780000D02*
X7985000Y-20780000D01*
%TD*%
M02*
