M48
; DRILL file {KiCad (6.0.0)} date Sun Feb  5 23:26:19 2023
; FORMAT={-:-/ absolute / inch / decimal}
; #@! TF.CreationDate,2023-02-05T23:26:19-08:00
; #@! TF.GenerationSoftware,Kicad,Pcbnew,(6.0.0)
; #@! TF.FileFunction,Plated,1,2,PTH
FMAT,2
INCH
; #@! TA.AperFunction,Plated,PTH,ViaDrill
T1C0.0157
; #@! TA.AperFunction,Plated,PTH,ComponentDrill
T2C0.0197
; #@! TA.AperFunction,Plated,PTH,ComponentDrill
T3C0.0250
; #@! TA.AperFunction,Plated,PTH,ComponentDrill
T4C0.0276
; #@! TA.AperFunction,Plated,PTH,ComponentDrill
T5C0.0315
; #@! TA.AperFunction,Plated,PTH,ComponentDrill
T6C0.0394
; #@! TA.AperFunction,Plated,PTH,ComponentDrill
T7C0.0520
%
G90
G05
T1
X0.085Y-1.385
X0.165Y-1.025
X0.2465Y-1.1536
X0.325Y-1.925
X0.5118Y-0.925
X0.5118Y-1.175
X0.55Y-1.625
X0.7087Y-0.925
X0.7087Y-1.175
X0.8Y-1.6
X0.895Y-1.8604
X0.9055Y-0.925
X0.9055Y-1.175
X0.935Y-1.52
X1.0174Y-1.948
X1.0219Y-1.765
X1.025Y-1.3
X1.05Y-2.025
X1.0639Y-1.6039
X1.1Y-1.725
X1.105Y-1.085
X1.107Y-2.2985
X1.1651Y-1.7686
X1.2038Y-1.7759
X1.2257Y-2.2415
X1.2598Y-0.925
X1.2598Y-1.175
X1.3266Y-1.7331
X1.335Y-1.63
X1.37Y-2.23
X1.37Y-1.745
X1.4Y-1.7035
X1.45Y-1.6
X1.4567Y-0.925
X1.4567Y-1.175
X1.47Y-1.705
X1.47Y-1.81
X1.525Y-2.05
X1.6Y-2.0
X1.6229Y-1.7826
X1.625Y-1.825
X1.65Y-1.6785
X1.6535Y-0.925
X1.6535Y-1.175
X1.675Y-1.8847
X1.6813Y-1.8458
X1.6923Y-2.0077
X1.7376Y-1.947
X1.75Y-1.675
X1.8035Y-1.8183
X1.85Y-2.05
X1.86Y-2.36
X1.875Y-1.055
X1.9Y-1.5035
X1.9215Y-1.6746
X2.0Y-1.8835
X2.0079Y-0.925
X2.0079Y-1.175
X2.015Y-2.0
X2.115Y-1.745
X2.125Y-1.85
X2.19Y-2.315
X2.2047Y-0.925
X2.2047Y-1.175
X2.225Y-1.8835
X2.4016Y-0.925
X2.4016Y-1.175
X2.495Y-2.195
X2.505Y-1.87
X2.575Y-1.1
X2.575Y-1.65
X2.65Y-1.65
X2.7559Y-0.925
X2.7559Y-1.1671
X2.77Y-1.67
X2.775Y-1.55
X2.79Y-2.19
X2.805Y-2.33
X2.9528Y-0.925
X2.9528Y-1.1671
X2.98Y-1.825
X3.015Y-1.62
X3.035Y-2.36
X3.075Y-1.475
X3.1496Y-0.925
X3.1496Y-1.1671
X3.525Y-1.275
X3.525Y-1.74
X3.58Y-1.12
T2
X0.9609Y-1.7778
X0.9609Y-1.9778
T3
X0.43Y-1.8573
X0.73Y-1.8573
T5
X0.275Y-0.55
X0.275Y-0.85
X0.4331Y-1.5
X0.4331Y-1.7323
X0.526Y-2.3524
X0.626Y-2.3524
X0.726Y-2.3524
X0.7331Y-1.5
X0.7331Y-1.7323
X0.826Y-2.3524
X0.926Y-2.3524
X1.026Y-2.3524
X1.126Y-2.3524
X1.226Y-2.3524
X2.366Y-2.35
X2.466Y-2.35
X2.566Y-2.35
X3.31Y-1.015
X3.41Y-1.015
X3.51Y-1.015
T6
X1.6004Y-1.5842
X1.6004Y-2.1842
X1.7004Y-1.5842
X1.7004Y-2.1842
X1.8004Y-1.5842
X1.8004Y-2.1842
X1.9004Y-1.5842
X1.9004Y-2.1842
X2.0004Y-1.5842
X2.0004Y-2.1842
X2.1004Y-1.5842
X2.1004Y-2.1842
T7
X3.3858Y-1.5429
X3.3858Y-1.8429
T4
G00X0.0492Y-1.5886
M15
G01X0.0965Y-1.5886
M16
G05
G00X0.0492Y-1.876
M15
G01X0.0965Y-1.876
M16
G05
G00X0.2244Y-1.7008
M15
G01X0.2244Y-1.7008
M16
G05
G00X0.2244Y-1.7638
M15
G01X0.2244Y-1.7638
M16
G05
G00X0.2268Y-1.5886
M15
G01X0.274Y-1.5886
M16
G05
G00X0.2268Y-1.876
M15
G01X0.274Y-1.876
M16
G05
G00X0.2717Y-1.6693
M15
G01X0.2717Y-1.6693
M16
G05
G00X0.2717Y-1.7323
M15
G01X0.2717Y-1.7323
M16
G05
G00X0.2717Y-1.7953
M15
G01X0.2717Y-1.7953
M16
G05
G00X3.4094Y-0.7047
M15
G01X3.4094Y-0.7047
M16
G05
G00X3.4094Y-0.7677
M15
G01X3.4094Y-0.7677
M16
G05
G00X3.4094Y-0.8307
M15
G01X3.4094Y-0.8307
M16
G05
G00X3.4543Y-0.624
M15
G01X3.4071Y-0.624
M16
G05
G00X3.4543Y-0.9114
M15
G01X3.4071Y-0.9114
M16
G05
G00X3.4567Y-0.7362
M15
G01X3.4567Y-0.7362
M16
G05
G00X3.4567Y-0.7992
M15
G01X3.4567Y-0.7992
M16
G05
G00X3.6319Y-0.624
M15
G01X3.5846Y-0.624
M16
G05
G00X3.6319Y-0.9114
M15
G01X3.5846Y-0.9114
M16
G05
T0
M30
