%TF.GenerationSoftware,KiCad,Pcbnew,(6.0.0)*%
%TF.CreationDate,2023-02-05T23:26:26-08:00*%
%TF.ProjectId,digital_clock_v2,64696769-7461-46c5-9f63-6c6f636b5f76,rev?*%
%TF.SameCoordinates,Original*%
%TF.FileFunction,Soldermask,Top*%
%TF.FilePolarity,Negative*%
%FSLAX46Y46*%
G04 Gerber Fmt 4.6, Leading zero omitted, Abs format (unit mm)*
G04 Created by KiCad (PCBNEW (6.0.0)) date 2023-02-05 23:26:26*
%MOMM*%
%LPD*%
G01*
G04 APERTURE LIST*
G04 Aperture macros list*
%AMRoundRect*
0 Rectangle with rounded corners*
0 $1 Rounding radius*
0 $2 $3 $4 $5 $6 $7 $8 $9 X,Y pos of 4 corners*
0 Add a 4 corners polygon primitive as box body*
4,1,4,$2,$3,$4,$5,$6,$7,$8,$9,$2,$3,0*
0 Add four circle primitives for the rounded corners*
1,1,$1+$1,$2,$3*
1,1,$1+$1,$4,$5*
1,1,$1+$1,$6,$7*
1,1,$1+$1,$8,$9*
0 Add four rect primitives between the rounded corners*
20,1,$1+$1,$2,$3,$4,$5,0*
20,1,$1+$1,$4,$5,$6,$7,0*
20,1,$1+$1,$6,$7,$8,$9,0*
20,1,$1+$1,$8,$9,$2,$3,0*%
%AMFreePoly0*
4,1,54,0.201078,0.979575,0.387516,0.921863,0.559193,0.829038,0.709571,0.704634,0.832921,0.553392,0.924546,0.381070,0.947815,0.304000,1.093000,0.304000,1.093000,0.635000,1.107645,0.670355,1.143000,0.685000,2.921000,0.685000,2.956355,0.670355,2.971000,0.635000,2.971000,0.304000,3.556000,0.304000,3.591355,0.289355,3.606000,0.254000,3.606000,-0.254000,3.591355,-0.289355,
3.556000,-0.304000,2.971000,-0.304000,2.971000,-0.635000,2.956355,-0.670355,2.921000,-0.685000,1.143000,-0.685000,1.107645,-0.670355,1.093000,-0.635000,1.093000,-0.304000,0.947721,-0.304000,0.913545,-0.406737,0.817145,-0.576432,0.689620,-0.724172,0.535827,-0.844328,0.361625,-0.932324,0.173648,-0.984808,-0.020942,-0.999781,-0.214735,-0.976672,-0.400349,-0.916363,-0.570714,-0.821149,
-0.719340,-0.694658,-0.840567,-0.541708,-0.929776,-0.368125,-0.983571,-0.180519,-0.999903,0.013962,-0.978148,0.207912,-0.919135,0.393942,-0.825113,0.564967,-0.699663,0.714473,-0.547563,0.836764,-0.374607,0.927184,-0.187381,0.982287,0.006981,0.999976,0.201078,0.979575,0.201078,0.979575,$1*%
%AMFreePoly1*
4,1,51,0.174003,0.741867,0.334039,0.684881,0.477472,0.593856,0.597174,0.473315,0.687196,0.329249,0.743064,0.168820,0.762000,0.000000,0.761703,-0.021276,0.738060,-0.189502,0.677735,-0.348309,0.583726,-0.489804,0.460705,-0.606956,0.314786,-0.693941,0.153221,-0.746436,-0.015958,-0.761833,-0.184344,-0.739365,-0.343569,-0.680150,-0.485717,-0.587131,-0.603725,-0.464931,-0.691726,-0.319622,
-0.696923,-0.304000,-1.093000,-0.304000,-1.093000,-0.635000,-1.107645,-0.670355,-1.143000,-0.685000,-2.921000,-0.685000,-2.956355,-0.670355,-2.971000,-0.635000,-2.971000,-0.304000,-3.556000,-0.304000,-3.591355,-0.289355,-3.606000,-0.254000,-3.606000,0.254000,-3.591355,0.289355,-3.556000,0.304000,-2.971000,0.304000,-2.971000,0.635000,-2.956355,0.670355,-2.921000,0.685000,-1.143000,0.685000,
-1.107645,0.670355,-1.093000,0.635000,-1.093000,0.304000,-0.695203,0.304000,-0.682532,0.338812,-0.590508,0.481606,-0.469134,0.600464,-0.324444,0.689478,-0.163628,0.744224,0.005320,0.761981,0.174003,0.741867,0.174003,0.741867,$1*%
%AMFreePoly2*
4,1,50,0.174003,0.741867,0.334039,0.684881,0.477472,0.593856,0.597174,0.473315,0.687196,0.329249,0.695989,0.304000,1.093000,0.304000,1.093000,0.635000,1.107645,0.670355,1.143000,0.685000,2.921000,0.685000,2.956355,0.670355,2.971000,0.635000,2.971000,0.304000,3.556000,0.304000,3.591355,0.289355,3.606000,0.254000,3.606000,-0.254000,3.591355,-0.289355,3.556000,-0.304000,
2.971000,-0.304000,2.971000,-0.635000,2.956355,-0.670355,2.921000,-0.685000,1.143000,-0.685000,1.107645,-0.670355,1.093000,-0.635000,1.093000,-0.304000,0.694566,-0.304000,0.677735,-0.348309,0.583726,-0.489804,0.460705,-0.606956,0.314786,-0.693941,0.153221,-0.746436,-0.015958,-0.761833,-0.184344,-0.739365,-0.343569,-0.680150,-0.485717,-0.587131,-0.603725,-0.464931,-0.691726,-0.319622,
-0.745348,-0.158429,-0.761926,0.010639,-0.740634,0.179178,-0.682532,0.338812,-0.590508,0.481606,-0.469134,0.600464,-0.324444,0.689478,-0.163628,0.744224,0.005320,0.761981,0.174003,0.741867,0.174003,0.741867,$1*%
G04 Aperture macros list end*
%ADD10O,2.700000X1.700000*%
%ADD11RoundRect,0.200000X-0.275000X0.200000X-0.275000X-0.200000X0.275000X-0.200000X0.275000X0.200000X0*%
%ADD12RoundRect,0.135000X-0.185000X0.135000X-0.185000X-0.135000X0.185000X-0.135000X0.185000X0.135000X0*%
%ADD13R,2.032000X2.032000*%
%ADD14C,2.032000*%
%ADD15RoundRect,0.225000X0.250000X-0.225000X0.250000X0.225000X-0.250000X0.225000X-0.250000X-0.225000X0*%
%ADD16R,1.500000X1.500000*%
%ADD17C,1.500000*%
%ADD18RoundRect,0.750000X-0.750000X-3.750000X0.750000X-3.750000X0.750000X3.750000X-0.750000X3.750000X0*%
%ADD19RoundRect,0.150000X-0.875000X-0.150000X0.875000X-0.150000X0.875000X0.150000X-0.875000X0.150000X0*%
%ADD20R,1.200000X2.000000*%
%ADD21O,1.200000X2.000000*%
%ADD22C,4.300000*%
%ADD23RoundRect,0.200000X-0.200000X-0.275000X0.200000X-0.275000X0.200000X0.275000X-0.200000X0.275000X0*%
%ADD24FreePoly0,0.000000*%
%ADD25FreePoly0,180.000000*%
%ADD26RoundRect,0.225000X-0.250000X0.225000X-0.250000X-0.225000X0.250000X-0.225000X0.250000X0.225000X0*%
%ADD27R,1.400000X1.200000*%
%ADD28FreePoly1,180.000000*%
%ADD29FreePoly2,180.000000*%
%ADD30C,1.000000*%
%ADD31R,1.600000X0.550000*%
%ADD32R,0.550000X1.600000*%
%ADD33FreePoly0,90.000000*%
%ADD34FreePoly0,270.000000*%
G04 APERTURE END LIST*
D10*
%TO.C,J1*%
X91650000Y-23150000D03*
X87139280Y-15850000D03*
X87139280Y-23150000D03*
X91650000Y-15850000D03*
%TD*%
D11*
%TO.C,R4*%
X67310000Y-39175000D03*
X67310000Y-40825000D03*
%TD*%
D12*
%TO.C,R9*%
X30099000Y-43163000D03*
X30099000Y-44183000D03*
%TD*%
D13*
%TO.C,BZ1*%
X86000000Y-39190000D03*
D14*
X86000000Y-46810000D03*
%TD*%
D15*
%TO.C,C7*%
X32639000Y-50404000D03*
X32639000Y-48854000D03*
%TD*%
D16*
%TO.C,T2*%
X13360000Y-59750000D03*
D17*
X15900000Y-59750000D03*
X18440000Y-59750000D03*
X20980000Y-59750000D03*
X23520000Y-59750000D03*
X26060000Y-59750000D03*
X28600000Y-59750000D03*
X31140000Y-59750000D03*
%TD*%
D18*
%TO.C,S8*%
X80000000Y-26845000D03*
X75000000Y-26845000D03*
X70000000Y-26845000D03*
%TD*%
D19*
%TO.C,U1*%
X60350000Y-44555000D03*
X60350000Y-45825000D03*
X60350000Y-47095000D03*
X60350000Y-48365000D03*
X60350000Y-49635000D03*
X60350000Y-50905000D03*
X60350000Y-52175000D03*
X60350000Y-53445000D03*
X69650000Y-53445000D03*
X69650000Y-52175000D03*
X69650000Y-50905000D03*
X69650000Y-49635000D03*
X69650000Y-48365000D03*
X69650000Y-47095000D03*
X69650000Y-45825000D03*
X69650000Y-44555000D03*
%TD*%
D10*
%TO.C,J2*%
X6360720Y-47650000D03*
X1850000Y-40350000D03*
X6360720Y-40350000D03*
X1850000Y-47650000D03*
%TD*%
D11*
%TO.C,R5*%
X35941000Y-45502000D03*
X35941000Y-47152000D03*
%TD*%
D20*
%TO.C,T3*%
X89154000Y-25781000D03*
D21*
X86614000Y-25781000D03*
X84074000Y-25781000D03*
%TD*%
D22*
%TO.C,H1*%
X16000000Y-53000000D03*
%TD*%
D15*
%TO.C,C6*%
X32639000Y-47102000D03*
X32639000Y-45552000D03*
%TD*%
D23*
%TO.C,R1*%
X8350000Y-50000000D03*
X10000000Y-50000000D03*
%TD*%
D22*
%TO.C,H3*%
X78000000Y-53000000D03*
%TD*%
D12*
%TO.C,R8*%
X31242000Y-43163000D03*
X31242000Y-44183000D03*
%TD*%
D18*
%TO.C,S5*%
X23000000Y-26845000D03*
X18000000Y-26845000D03*
X13000000Y-26845000D03*
%TD*%
D12*
%TO.C,R7*%
X32385000Y-43163000D03*
X32385000Y-44183000D03*
%TD*%
D11*
%TO.C,R2*%
X34290000Y-48804000D03*
X34290000Y-50454000D03*
%TD*%
D24*
%TO.C,C3*%
X11000000Y-38100000D03*
D25*
X18620000Y-38100000D03*
%TD*%
D18*
%TO.C,S7*%
X51000000Y-26845000D03*
X56000000Y-26845000D03*
X61000000Y-26845000D03*
%TD*%
D26*
%TO.C,C5*%
X34290000Y-45552000D03*
X34290000Y-47102000D03*
%TD*%
D27*
%TO.C,Y1*%
X28307200Y-48546000D03*
X30507200Y-48546000D03*
X30507200Y-46846000D03*
X28307200Y-46846000D03*
%TD*%
D25*
%TO.C,C4*%
X18620000Y-44000000D03*
D24*
X11000000Y-44000000D03*
%TD*%
D28*
%TO.C,D1*%
X10922400Y-47175000D03*
D29*
X18542400Y-47175000D03*
%TD*%
D11*
%TO.C,R3*%
X65659000Y-39175000D03*
X65659000Y-40825000D03*
%TD*%
D18*
%TO.C,S6*%
X32000000Y-26845000D03*
X37000000Y-26845000D03*
X42000000Y-26845000D03*
%TD*%
D30*
%TO.C,Y2*%
X24407200Y-45156000D03*
X24407200Y-50236000D03*
%TD*%
D31*
%TO.C,U4*%
X39000000Y-45450000D03*
X39000000Y-46250000D03*
X39000000Y-47050000D03*
X39000000Y-47850000D03*
X39000000Y-48650000D03*
X39000000Y-49450000D03*
X39000000Y-50250000D03*
X39000000Y-51050000D03*
D32*
X40450000Y-52500000D03*
X41250000Y-52500000D03*
X42050000Y-52500000D03*
X42850000Y-52500000D03*
X43650000Y-52500000D03*
X44450000Y-52500000D03*
X45250000Y-52500000D03*
X46050000Y-52500000D03*
D31*
X47500000Y-51050000D03*
X47500000Y-50250000D03*
X47500000Y-49450000D03*
X47500000Y-48650000D03*
X47500000Y-47850000D03*
X47500000Y-47050000D03*
X47500000Y-46250000D03*
X47500000Y-45450000D03*
D32*
X46050000Y-44000000D03*
X45250000Y-44000000D03*
X44450000Y-44000000D03*
X43650000Y-44000000D03*
X42850000Y-44000000D03*
X42050000Y-44000000D03*
X41250000Y-44000000D03*
X40450000Y-44000000D03*
%TD*%
D15*
%TO.C,C1*%
X68961000Y-40775000D03*
X68961000Y-39225000D03*
%TD*%
D12*
%TO.C,R6*%
X28956000Y-43163000D03*
X28956000Y-44183000D03*
%TD*%
D20*
%TO.C,T1*%
X60097500Y-59690000D03*
D21*
X62637500Y-59690000D03*
X65177500Y-59690000D03*
%TD*%
D33*
%TO.C,C2*%
X6985000Y-21590000D03*
D34*
X6985000Y-13970000D03*
%TD*%
D16*
%TO.C,U3*%
X53350000Y-55477500D03*
D17*
X50810000Y-55477500D03*
X48270000Y-55477500D03*
X45730000Y-55477500D03*
X43190000Y-55477500D03*
X40650000Y-55477500D03*
X40650000Y-40237500D03*
X43190000Y-40237500D03*
X45730000Y-40237500D03*
X48270000Y-40237500D03*
X50810000Y-40237500D03*
X53350000Y-40237500D03*
%TD*%
G36*
X33597121Y-41295002D02*
G01*
X33643614Y-41348658D01*
X33655000Y-41401000D01*
X33655000Y-43054000D01*
X33634998Y-43122121D01*
X33581342Y-43168614D01*
X33529000Y-43180000D01*
X28066000Y-43180000D01*
X27997879Y-43159998D01*
X27951386Y-43106342D01*
X27940000Y-43054000D01*
X27940000Y-41401000D01*
X27960002Y-41332879D01*
X28013658Y-41286386D01*
X28066000Y-41275000D01*
X33529000Y-41275000D01*
X33597121Y-41295002D01*
G37*
M02*
